<?xml version="1.0" encoding="iso-8859-1"?>
<!-- Generator: Adobe Illustrator 28.5.0, SVG Export Plug-In . SVG Version: 9.03 Build 54727)  -->
<svg version="1.1" id="Layer_1" xmlns="http://www.w3.org/2000/svg" xmlns:xlink="http://www.w3.org/1999/xlink" x="0px" y="0px"
	 viewBox="0 0 489.496 178.73" style="enable-background:new 0 0 489.496 178.73;" xml:space="preserve">
<g>
	<rect style="fill:none;" width="489.496" height="178.73"/>
	<g id="_x3C_Grid_Repeat_x3E__00000074431208157694330570000011378116888552954529_">
		<path style="fill:#1a3e40;" d="M289.628,44.45c-9.574,2.086-15.073,10.376-14.684,18.937c0.462,10.168,7.987,16.335,19.074,19.029
			c-6.537,0.88-17.835-0.134-22.558-10.485c-15.379,33.324,3.353,42.582-26.074,93.906c14.006-6.21,25.286-17.922,34.376-43.525
			c19.479-9.787,35.001-36.762,27.793-52.38c-3.145-6.814,0.63-10.319,3.686-6.114C313.214,57.143,305.867,40.912,289.628,44.45z"/>
		<path style="fill:#1a3e40;" d="M393.13,127.53c-4.483-1.563-9.964-4.439-15.745-14.253c-5.341-9.067-20.783-11.412-28.764-10.205
			c-8.356-7.191-6.116-23.723-12.468-23.829c-8.243-0.138-29.361,29.543-8.566,51.755c0,0-8.118-1.684-12.186-8.889
			c-7.087,17.519,0.348,42.775,11.876,54.122c2.004-24.228,33.077-13.836,53.068-17.622c10.485-1.986,14.971-13.721,14.022-18.957
			c-0.165-0.91-0.048-1.856,0.41-2.661C396.515,133.932,396.265,128.623,393.13,127.53z"/>
		<path style="fill:#1a3e40;" d="M433.406,105.424c-14.712-12.037-11.76-36.641-2.452-50.474
			c-6.004,22.734,3.97,45.754,24.675,47.667c8.089,0.747,19.856-1.801,28.867-8.697c-4.42-30.86-24.733-65.273-63.151-73.883
			c-12.238-2.743-19.747,0.075-31.278,2.333c-17.377,3.402-38.785-11.33-52.391-13.699c-7.992-1.392-10.43,12.654-12.202,16.842
			c-10.294,24.333,22.198,45.717,39.541,54.454c23.26,11.718,76.765,39.781,42.27,96.264c34.725-8.434,60.703-33.135,68.869-66.367
			C456.136,116.47,441.571,112.104,433.406,105.424z"/>
		<path style="fill:#1a3e40;" d="M117.164,45.839c0.325,0.672,0.369,1.44,0.187,2.164c-1.046,4.163,1.935,13.851,10.268,16.014
			c15.889,4.123,41.46-2.572,41.772,17.038c9.89-8.514,17.232-28.446,12.469-42.929c-3.662,5.582-10.288,6.501-10.288,6.501
			c17.934-16.763,2.53-41.79-4.113-42.123c-5.119-0.256-4.204,13.173-11.317,18.512c-6.359-1.4-18.917-0.342-23.703,6.669
			c-5.181,7.59-9.748,9.61-13.441,10.627C116.416,39.023,115.929,43.284,117.164,45.839z"/>
		<path style="fill:#1a3e40;" d="M6.214,41.037c-2.41,19.471,6.464,38.009,23.346,49.617C22.611,53.35,57.006,49.24,71.86,47.711
			c11.075-1.14,32.849-5.962,32.302-21.1c-0.094-2.605,1.468-10.628-3.098-11.514c-7.773-1.509-22.25,2.013-30.865-3.358
			c-5.717-3.564-9.164-6.606-16.281-7.636C31.577,0.872,13.669,15.161,5,30.792c3.419,5.534,9.203,9.302,13.69,10.553
			c11.483,3.202,21.527-7.094,22.952-20.499c2.163,9.312-1.279,23.096-11.619,26.541C24.285,49.298,15.59,48.663,6.214,41.037z"/>
		<path style="fill:#1a3e40;" d="M282.079,14.1c-11.647-3.436-37.17,7.239-49.286,19.159c5.975-11.584,18.424-18.603,28.873-21.649
			c1.041-4.411,0.664-8.967,0.664-8.967c-17.249,0.379-41.449,20.971-44.967,44.154c0,0-15.429,4.533-20.501,18.661
			c-0.885,2.465-0.719,4.87,0.309,7.243c3.017,6.959,16.311,13.681,31.208,12.4c21.001-1.806,23.626-23.626,17.1-31.25
			C257.575,51.393,280.173,34.679,282.079,14.1z"/>
		<path style="fill:#1a3e40;" d="M39.107,143.633c-5.24,6.974-1.758,25.759,16.561,26.166c12.994,0.289,24.156-6.277,26.389-12.481
			c0.761-2.115,0.772-4.211-0.132-6.301c-5.18-11.977-18.816-15.057-18.816-15.057c-4.332-19.918-26.463-36.446-41.448-35.822
			c0,0-0.076,3.973,1.071,7.742c9.233,2.066,20.421,7.468,26.244,17.187c-11.169-9.672-33.9-17.524-43.815-13.9
			C7.951,128.915,28.477,142.168,39.107,143.633z"/>
		<path style="fill:#1a3e40;" d="M95.624,173.23c24.445-30.526,101.296,1.546,125.348-24.954
			c16.938-18.663-1.542-47.337-45.425-54.593c-25.548-4.224-48.151,0.521-56.183-3.186c-5.123-2.365-5.939-4.733-10.076-7.886
			c-4.262-3.248-15.217-8.631-24.851-9.279c-4.787-0.322-7.949,1.569-15.992,1.836c-9.508,0.316-19.737,7.117,9.611,25.48
			c14.33,8.966,29.194,18.58,31.868,19.657c3.958,1.593,2.418,14.075-0.498,14.758c-2.916,0.682-8.383,1.471-8.291,5.748l14.133,0
			c4.893-7.654,10.267-11.725,11.397-16.499c0.787-3.326,0.939-13.747,0.939-13.747c0,0,8.903,9.213,2.879,18.782
			c9.621,6.665,38.868-7.745,55.575,4.403C175.228,134.991,110.972,131.921,95.624,173.23z"/>
	</g>
</g>
</svg>
