<?xml version="1.0" encoding="iso-8859-1"?>
<!-- Generator: Adobe Illustrator 28.5.0, SVG Export Plug-In . SVG Version: 9.03 Build 54727)  -->
<svg version="1.1" xmlns="http://www.w3.org/2000/svg" xmlns:xlink="http://www.w3.org/1999/xlink" x="0px" y="0px"
	 viewBox="0 0 441.148 384.542" style="enable-background:new 0 0 441.148 384.542;" xml:space="preserve">
<g id="Layer_1">
	<path style="fill:#00292E;" d="M81.823,304.34L66.68,348.273l-15.642,0L35.832,304.34l13.087,0l9.97,31.72l9.909-31.72
		L81.823,304.34z M113.85,333.255l-23.12,0c0.125,1.911,0.654,3.334,1.589,4.268c0.935,0.935,2.128,1.402,3.583,1.402
		c2.035,0,3.489-0.914,4.362-2.742l13.025,0c-0.541,2.41-1.589,4.56-3.147,6.45c-1.558,1.891-3.521,3.376-5.889,4.456
		c-2.368,1.081-4.986,1.62-7.852,1.62c-3.449,0-6.512-0.726-9.192-2.181c-2.68-1.454-4.778-3.53-6.294-6.232
		c-1.517-2.7-2.274-5.878-2.274-9.534c0-3.656,0.747-6.824,2.243-9.504c1.496-2.679,3.583-4.746,6.263-6.2
		c2.68-1.454,5.764-2.181,9.254-2.181c3.448,0,6.501,0.707,9.161,2.119c2.658,1.413,4.736,3.438,6.232,6.076
		c1.496,2.639,2.243,5.744,2.243,9.316C114.037,331.345,113.975,332.3,113.85,333.255z M101.574,327.335
		c0-1.496-0.499-2.669-1.496-3.521c-0.997-0.851-2.243-1.277-3.739-1.277c-1.496,0-2.722,0.405-3.677,1.215
		c-0.956,0.81-1.579,2.005-1.87,3.583H101.574z M137.949,337.867l0,10.407h-5.297c-8.933,0-13.398-4.425-13.398-13.274l0-11.528
		h-4.3l0-10.158l4.3,0l0-8.475h12.276l0,8.475l6.356,0l0,10.158h-6.356l0,11.716c0,0.956,0.218,1.642,0.654,2.056
		c0.436,0.416,1.174,0.623,2.212,0.623H137.949z"/>
	<path style="fill:#00B2C2;" d="M175.515,326.244c-1.226,2.181-3.075,3.926-5.546,5.235c-2.473,1.308-5.495,1.963-9.067,1.963
		h-6.045v14.831h-12.214l0-43.934h18.259c3.53,0,6.532,0.623,9.005,1.87c2.471,1.246,4.331,2.971,5.577,5.172
		c1.246,2.203,1.87,4.736,1.87,7.603C177.354,321.644,176.74,324.063,175.515,326.244z M164.89,318.984
		c0-3.199-1.724-4.798-5.173-4.798h-4.861v9.534h4.861C163.166,323.72,164.89,322.142,164.89,318.984z M180.418,321.29
		c1.308-2.7,3.094-4.777,5.359-6.232c2.264-1.454,4.787-2.181,7.571-2.181c2.409,0,4.487,0.478,6.232,1.434
		c1.745,0.956,3.094,2.243,4.05,3.864v-4.861h12.214v34.96h-12.214v-4.861c-0.956,1.62-2.316,2.909-4.082,3.864
		c-1.767,0.956-3.832,1.433-6.201,1.433c-2.784,0-5.308-0.726-7.571-2.181c-2.265-1.454-4.051-3.541-5.359-6.263
		c-1.309-2.72-1.963-5.889-1.963-9.503C178.455,327.148,179.109,323.991,180.418,321.29z M201.793,325.465
		c-1.226-1.287-2.732-1.932-4.518-1.932c-1.828,0-3.345,0.634-4.549,1.901c-1.206,1.268-1.807,3.044-1.807,5.328
		c0,2.243,0.602,4.019,1.807,5.328c1.205,1.308,2.721,1.963,4.549,1.963c1.786,0,3.292-0.644,4.518-1.932
		c1.225-1.287,1.838-3.074,1.838-5.359C203.631,328.519,203.018,326.753,201.793,325.465z M236.985,314.746
		c1.952-1.162,4.05-1.745,6.294-1.745v13.025h-3.427c-2.659,0-4.633,0.52-5.92,1.558c-1.288,1.039-1.932,2.846-1.932,5.422v15.268
		h-12.214v-34.96h12.214v6.17C233.371,317.488,235.032,315.91,236.985,314.746z M269.519,337.867v10.407h-5.297
		c-8.933,0-13.398-4.425-13.398-13.274v-11.528h-4.3v-10.158h4.3v-8.475H263.1l0,8.475h6.356v10.158H263.1v11.716
		c0,0.956,0.218,1.642,0.654,2.056c0.436,0.416,1.174,0.623,2.212,0.623H269.519z M305.392,317.021
		c2.368,2.68,3.552,6.304,3.552,10.874v20.378h-12.214v-18.758c0-1.994-0.52-3.562-1.558-4.705
		c-1.039-1.142-2.431-1.714-4.175-1.714c-1.829,0-3.262,0.572-4.3,1.714c-1.039,1.143-1.558,2.711-1.558,4.705v18.758h-12.214
		v-34.96h12.214v4.985c1.08-1.578,2.533-2.856,4.362-3.832c1.828-0.976,3.926-1.465,6.294-1.465
		C299.825,313.002,303.025,314.342,305.392,317.021z M347.329,333.255h-23.12c0.125,1.911,0.654,3.334,1.589,4.268
		c0.935,0.935,2.128,1.402,3.583,1.402c2.035,0,3.489-0.914,4.362-2.742h13.025c-0.541,2.41-1.589,4.56-3.147,6.45
		c-1.558,1.891-3.521,3.376-5.889,4.456c-2.368,1.081-4.986,1.62-7.852,1.62c-3.449,0-6.512-0.726-9.192-2.181
		c-2.68-1.454-4.778-3.53-6.294-6.232c-1.517-2.7-2.274-5.878-2.274-9.534c0-3.656,0.747-6.824,2.243-9.504
		c1.496-2.679,3.583-4.746,6.263-6.2c2.68-1.454,5.764-2.181,9.254-2.181c3.448,0,6.501,0.707,9.161,2.119
		c2.658,1.413,4.736,3.438,6.232,6.076c1.496,2.639,2.243,5.744,2.243,9.316C347.516,331.345,347.454,332.3,347.329,333.255z
		 M335.053,327.335c0-1.496-0.499-2.669-1.496-3.521c-0.997-0.851-2.243-1.277-3.739-1.277s-2.722,0.405-3.677,1.215
		c-0.956,0.81-1.579,2.005-1.87,3.583H335.053z M367.314,314.747c1.952-1.162,4.05-1.745,6.294-1.745v13.025h-3.427
		c-2.659,0-4.633,0.52-5.92,1.558c-1.288,1.039-1.932,2.846-1.932,5.422v15.268h-12.214v-34.96h12.214v6.17
		C363.699,317.488,365.36,315.91,367.314,314.747z M382.352,347.121c-2.473-1.059-4.425-2.513-5.858-4.362
		c-1.433-1.848-2.233-3.936-2.399-6.263h11.84c0.166,1.122,0.686,1.994,1.558,2.617c0.872,0.623,1.953,0.935,3.241,0.935
		c0.997,0,1.786-0.207,2.368-0.623c0.581-0.415,0.872-0.955,0.872-1.62c0-0.872-0.478-1.516-1.433-1.932
		c-0.956-0.415-2.534-0.872-4.736-1.371c-2.493-0.499-4.571-1.059-6.232-1.683c-1.662-0.623-3.106-1.641-4.331-3.053
		c-1.226-1.412-1.838-3.323-1.838-5.733c0-2.077,0.561-3.957,1.683-5.64s2.773-3.022,4.954-4.019
		c2.181-0.997,4.808-1.496,7.883-1.496c4.569,0,8.164,1.122,10.781,3.365c2.617,2.243,4.133,5.194,4.549,8.849h-11.03
		c-0.209-1.122-0.696-1.984-1.465-2.586c-0.769-0.602-1.797-0.904-3.085-0.904c-0.997,0-1.756,0.187-2.275,0.561
		c-0.52,0.374-0.779,0.894-0.779,1.558c0,0.832,0.477,1.465,1.433,1.901c0.955,0.436,2.493,0.883,4.611,1.34
		c2.533,0.54,4.643,1.143,6.325,1.807c1.683,0.665,3.157,1.735,4.425,3.209c1.267,1.475,1.901,3.48,1.901,6.014
		c0,2.036-0.592,3.864-1.776,5.484s-2.867,2.898-5.047,3.832c-2.181,0.935-4.747,1.402-7.696,1.402
		C387.638,348.709,384.823,348.18,382.352,347.121z"/>
	<g>
		<path style="fill:#00B2C2;" d="M199.302,155.464c0,0-8.082,5.618-19.403,1.498c0,0,1.906-6.877,6.955-10.069
			C194.956,141.77,199.302,155.464,199.302,155.464z M238.281,78.335c-4.094,2.448-6.553,10.116-1.897,13.249
			c5.947,4.002,16.28,1.175,16.28,1.175S249.994,79.63,238.281,78.335z M343.736,158.994c0,68.02-55.141,123.161-123.162,123.161
			c-68.019,0-123.161-55.141-123.161-123.161c0-68.02,55.141-123.161,123.161-123.161
			C288.594,35.832,343.736,90.973,343.736,158.994z M202.709,191.272c12.332-2.544,17.401-16.475,16.181-22.633
			c-0.212-1.071-0.092-2.189,0.432-3.147c1.992-3.641,1.596-9.901-2.123-11.13c-5.32-1.758-11.84-5.047-18.849-16.515
			c-6.474-10.595-24.738-13.067-34.131-11.491c-9.996-8.324-7.669-27.872-15.165-27.876c-9.728-0.005-34.076,35.416-9.117,61.225
			c0,0-9.61-1.831-14.548-10.255c-8.026,20.804,1.228,50.461,15.045,63.628C142.338,184.454,179.196,196.121,202.709,191.272z
			 M285.31,216.696c-19.567,17.494-62.797,28.74-86.974,13.46c47.264,2.353,43.218-27.778,37.21-27.157
			c-2.886,0.298-13.117,7.683-34.304,4.628c-31.296-4.512-44.381,3.527-44.419,17.128c-0.06,21.749,32.973,39.618,68.158,38.57
			c36.002-1.072,67.713-30.228,76.38-45.173C303.05,215.24,293.427,209.439,285.31,216.696z M315.107,147.152
			c-18.146,7.398-31.933,4.274-39.929-1.403c-14.41-10.229-13.234-33.235-5.479-46.656c-4.125,21.465,6.587,42.182,25.911,42.642
			c7.55,0.18,18.301-2.931,26.221-9.899c-6.059-28.34-27.083-58.966-63.26-64.512c-11.525-1.767-18.309,1.323-28.86,4.149
			c-15.9,4.259-36.69-8.045-49.46-9.379c-7.501-0.783-8.87,12.398-10.247,16.394c-8.002,23.221,23.49,40.99,40.129,47.992
			c22.316,9.391,73.72,32.02,45.315,86.595C287.118,203.05,309.644,178.491,315.107,147.152z"/>
		<path style="fill:#FFF7EC;" d="M218.89,168.639c-0.212-1.071-0.092-2.189,0.432-3.147c1.992-3.641,1.596-9.901-2.123-11.13
			c-5.32-1.758-11.84-5.047-18.849-16.515c-6.474-10.595-24.738-13.067-34.131-11.491c-9.996-8.324-7.669-27.872-15.165-27.876
			c-9.728-0.005-34.076,35.416-9.117,61.225c0,0-9.61-1.831-14.548-10.255c-8.026,20.804,1.228,50.461,15.045,63.628
			c1.902-28.623,38.76-16.955,62.274-21.805C215.041,188.728,220.11,174.797,218.89,168.639z M179.898,156.962
			c0,0,1.906-6.877,6.955-10.069c8.103-5.123,12.449,8.571,12.449,8.571S191.219,161.082,179.898,156.962z"/>
		<path style="fill:#FFF7EC;" d="M285.31,216.696c-19.567,17.494-62.797,28.74-86.974,13.46
			c47.264,2.353,43.218-27.778,37.21-27.157c-2.886,0.298-13.117,7.683-34.304,4.628c-31.296-4.512-44.381,3.527-44.419,17.128
			c-0.06,21.749,32.973,39.618,68.158,38.57c36.002-1.072,67.713-30.228,76.38-45.173C303.05,215.24,293.427,209.439,285.31,216.696
			z"/>
		<path style="fill:#FFF7EC;" d="M275.178,145.749c-14.41-10.229-13.234-33.235-5.479-46.656
			c-4.125,21.465,6.587,42.182,25.911,42.642c7.55,0.18,18.301-2.931,26.221-9.899c-6.059-28.34-27.083-58.966-63.26-64.512
			c-11.525-1.767-18.309,1.323-28.86,4.149c-15.9,4.259-36.69-8.045-49.46-9.379c-7.501-0.783-8.87,12.398-10.247,16.394
			c-8.002,23.221,23.49,40.99,40.129,47.992c22.316,9.391,73.72,32.02,45.315,86.595c31.669-10.027,54.195-34.585,59.658-65.924
			C296.961,154.55,283.174,151.426,275.178,145.749z M236.384,91.584c-4.656-3.133-2.197-10.801,1.897-13.249
			c11.713,1.296,14.383,14.424,14.383,14.424S242.331,95.585,236.384,91.584z"/>
	</g>
</g>
<g id="Guides">
</g>
</svg>
