<?xml version="1.0" encoding="iso-8859-1"?>
<!-- Generator: Adobe Illustrator 28.5.0, SVG Export Plug-In . SVG Version: 9.03 Build 54727)  -->
<svg version="1.1" xmlns="http://www.w3.org/2000/svg" xmlns:xlink="http://www.w3.org/1999/xlink" x="0px" y="0px"
	 viewBox="0 0 441.148 384.542" style="enable-background:new 0 0 441.148 384.542;" xml:space="preserve">
<g id="Layer_1">
	<path style="fill:#FFFFFF;" d="M81.823,304.34L66.68,348.273l-15.642,0L35.832,304.34l13.087,0l9.97,31.72l9.909-31.72
		L81.823,304.34z M113.85,333.255l-23.12,0c0.125,1.911,0.654,3.334,1.589,4.268c0.935,0.935,2.128,1.402,3.583,1.402
		c2.035,0,3.489-0.914,4.362-2.742l13.025,0c-0.541,2.41-1.589,4.56-3.147,6.45c-1.558,1.891-3.521,3.376-5.889,4.456
		c-2.368,1.081-4.986,1.62-7.852,1.62c-3.449,0-6.512-0.726-9.192-2.181c-2.68-1.454-4.778-3.53-6.294-6.232
		c-1.517-2.7-2.274-5.878-2.274-9.534c0-3.656,0.747-6.824,2.243-9.504c1.496-2.679,3.583-4.746,6.263-6.2
		c2.68-1.454,5.764-2.181,9.254-2.181c3.448,0,6.501,0.707,9.161,2.119c2.658,1.413,4.736,3.438,6.232,6.076
		c1.496,2.639,2.243,5.744,2.243,9.316C114.037,331.345,113.975,332.3,113.85,333.255z M101.574,327.335
		c0-1.496-0.499-2.669-1.496-3.521c-0.997-0.851-2.243-1.277-3.739-1.277c-1.496,0-2.722,0.405-3.677,1.215
		c-0.956,0.81-1.579,2.005-1.87,3.583H101.574z M137.949,337.867l0,10.407h-5.297c-8.933,0-13.398-4.425-13.398-13.274l0-11.528
		h-4.3l0-10.158l4.3,0l0-8.475h12.276l0,8.475l6.356,0l0,10.158h-6.356l0,11.716c0,0.956,0.218,1.642,0.654,2.056
		c0.436,0.416,1.174,0.623,2.212,0.623H137.949z"/>
	<path style="fill:#FFFFFF;" d="M175.515,326.244c-1.226,2.181-3.075,3.926-5.546,5.235c-2.473,1.308-5.495,1.963-9.067,1.963
		h-6.045v14.831h-12.214l0-43.934h18.259c3.53,0,6.532,0.623,9.005,1.87c2.471,1.246,4.331,2.971,5.577,5.172
		c1.246,2.203,1.87,4.736,1.87,7.603C177.354,321.644,176.74,324.063,175.515,326.244z M164.89,318.984
		c0-3.199-1.724-4.798-5.173-4.798h-4.861v9.534h4.861C163.166,323.72,164.89,322.142,164.89,318.984z M180.418,321.29
		c1.308-2.7,3.094-4.777,5.359-6.232c2.264-1.454,4.787-2.181,7.571-2.181c2.409,0,4.487,0.478,6.232,1.434
		c1.745,0.956,3.094,2.243,4.05,3.864v-4.861h12.214v34.96h-12.214v-4.861c-0.956,1.62-2.316,2.909-4.082,3.864
		c-1.767,0.956-3.832,1.433-6.201,1.433c-2.784,0-5.308-0.726-7.571-2.181c-2.265-1.454-4.051-3.541-5.359-6.263
		c-1.309-2.72-1.963-5.889-1.963-9.503C178.455,327.148,179.109,323.991,180.418,321.29z M201.793,325.465
		c-1.226-1.287-2.732-1.932-4.518-1.932c-1.828,0-3.345,0.634-4.549,1.901c-1.206,1.268-1.807,3.044-1.807,5.328
		c0,2.243,0.602,4.019,1.807,5.328c1.205,1.308,2.721,1.963,4.549,1.963c1.786,0,3.292-0.644,4.518-1.932
		c1.225-1.287,1.838-3.074,1.838-5.359C203.631,328.519,203.018,326.753,201.793,325.465z M236.985,314.746
		c1.952-1.162,4.05-1.745,6.294-1.745v13.025h-3.427c-2.659,0-4.633,0.52-5.92,1.558c-1.288,1.039-1.932,2.846-1.932,5.422v15.268
		h-12.214v-34.96h12.214v6.17C233.371,317.488,235.032,315.91,236.985,314.746z M269.519,337.867v10.407h-5.297
		c-8.933,0-13.398-4.425-13.398-13.274v-11.528h-4.3v-10.158h4.3v-8.475H263.1l0,8.475h6.356v10.158H263.1v11.716
		c0,0.956,0.218,1.642,0.654,2.056c0.436,0.416,1.174,0.623,2.212,0.623H269.519z M305.392,317.021
		c2.368,2.68,3.552,6.304,3.552,10.874v20.378h-12.214v-18.758c0-1.994-0.52-3.562-1.558-4.705
		c-1.039-1.142-2.431-1.714-4.175-1.714c-1.829,0-3.262,0.572-4.3,1.714c-1.039,1.143-1.558,2.711-1.558,4.705v18.758h-12.214
		v-34.96h12.214v4.985c1.08-1.578,2.533-2.856,4.362-3.832c1.828-0.976,3.926-1.465,6.294-1.465
		C299.825,313.002,303.025,314.342,305.392,317.021z M347.329,333.255h-23.12c0.125,1.911,0.654,3.334,1.589,4.268
		c0.935,0.935,2.128,1.402,3.583,1.402c2.035,0,3.489-0.914,4.362-2.742h13.025c-0.541,2.41-1.589,4.56-3.147,6.45
		c-1.558,1.891-3.521,3.376-5.889,4.456c-2.368,1.081-4.986,1.62-7.852,1.62c-3.449,0-6.512-0.726-9.192-2.181
		c-2.68-1.454-4.778-3.53-6.294-6.232c-1.517-2.7-2.274-5.878-2.274-9.534c0-3.656,0.747-6.824,2.243-9.504
		c1.496-2.679,3.583-4.746,6.263-6.2c2.68-1.454,5.764-2.181,9.254-2.181c3.448,0,6.501,0.707,9.161,2.119
		c2.658,1.413,4.736,3.438,6.232,6.076c1.496,2.639,2.243,5.744,2.243,9.316C347.516,331.345,347.454,332.3,347.329,333.255z
		 M335.053,327.335c0-1.496-0.499-2.669-1.496-3.521c-0.997-0.851-2.243-1.277-3.739-1.277s-2.722,0.405-3.677,1.215
		c-0.956,0.81-1.579,2.005-1.87,3.583H335.053z M367.314,314.747c1.952-1.162,4.05-1.745,6.294-1.745v13.025h-3.427
		c-2.659,0-4.633,0.52-5.92,1.558c-1.288,1.039-1.932,2.846-1.932,5.422v15.268h-12.214v-34.96h12.214v6.17
		C363.699,317.488,365.36,315.91,367.314,314.747z M382.352,347.121c-2.473-1.059-4.425-2.513-5.858-4.362
		c-1.433-1.848-2.233-3.936-2.399-6.263h11.84c0.166,1.122,0.686,1.994,1.558,2.617c0.872,0.623,1.953,0.935,3.241,0.935
		c0.997,0,1.786-0.207,2.368-0.623c0.581-0.415,0.872-0.955,0.872-1.62c0-0.872-0.478-1.516-1.433-1.932
		c-0.956-0.415-2.534-0.872-4.736-1.371c-2.493-0.499-4.571-1.059-6.232-1.683c-1.662-0.623-3.106-1.641-4.331-3.053
		c-1.226-1.412-1.838-3.323-1.838-5.733c0-2.077,0.561-3.957,1.683-5.64s2.773-3.022,4.954-4.019
		c2.181-0.997,4.808-1.496,7.883-1.496c4.569,0,8.164,1.122,10.781,3.365c2.617,2.243,4.133,5.194,4.549,8.849h-11.03
		c-0.209-1.122-0.696-1.984-1.465-2.586c-0.769-0.602-1.797-0.904-3.085-0.904c-0.997,0-1.756,0.187-2.275,0.561
		c-0.52,0.374-0.779,0.894-0.779,1.558c0,0.832,0.477,1.465,1.433,1.901c0.955,0.436,2.493,0.883,4.611,1.34
		c2.533,0.54,4.643,1.143,6.325,1.807c1.683,0.665,3.157,1.735,4.425,3.209c1.267,1.475,1.901,3.48,1.901,6.014
		c0,2.036-0.592,3.864-1.776,5.484s-2.867,2.898-5.047,3.832c-2.181,0.935-4.747,1.402-7.696,1.402
		C387.638,348.709,384.823,348.18,382.352,347.121z"/>
	<g>
		<g>
			<path style="fill:#FFFFFF;" d="M219.062,168.325c-0.201-1.014-0.087-2.073,0.409-2.98c1.887-3.448,1.512-9.377-2.01-10.541
				c-5.038-1.665-11.214-4.78-17.851-15.641c-6.132-10.034-23.429-12.375-32.324-10.883c-9.466-7.883-7.263-26.397-14.361-26.4
				c-9.214-0.005-32.273,33.541-8.635,57.984c0,0-9.101-1.734-13.777-9.712c-7.602,19.703,1.162,47.789,14.249,60.259
				c1.801-27.107,36.708-16.058,58.977-20.651C215.416,187.351,220.217,174.157,219.062,168.325z M182.133,157.267
				c0,0,1.805-6.513,6.586-9.536c7.674-4.852,11.79,8.117,11.79,8.117S192.855,161.168,182.133,157.267z"/>
			<path style="fill:#FFFFFF;" d="M281.965,213.839c-18.532,16.568-59.472,27.219-82.37,12.748
				c44.762,2.228,40.93-26.307,35.24-25.719c-2.733,0.282-12.423,7.276-32.488,4.383c-29.639-4.273-42.032,3.341-42.067,16.222
				c-0.057,20.597,31.227,37.52,64.549,36.528c34.096-1.015,64.128-28.628,72.337-42.782
				C298.766,212.459,289.651,206.966,281.965,213.839z"/>
			<path style="fill:#FFFFFF;" d="M272.369,146.648c-13.646-9.688-12.533-31.476-5.189-44.186
				c-3.907,20.329,6.238,39.949,24.54,40.384c7.149,0.17,17.332-2.776,24.832-9.375c-5.738-26.84-25.649-55.844-59.911-61.097
				c-10.915-1.673-17.34,1.253-27.332,3.93c-15.059,4.033-34.747-7.619-46.842-8.882c-7.104-0.742-8.4,11.741-9.704,15.526
				c-7.578,21.992,22.247,38.821,38.005,45.452c21.135,8.894,69.817,30.325,42.915,82.011c29.993-9.496,51.326-32.754,56.5-62.435
				C292.999,154.983,279.942,152.024,272.369,146.648z M235.629,95.349c-4.41-2.967-2.081-10.23,1.797-12.548
				c11.092,1.227,13.622,13.661,13.622,13.661S241.261,99.139,235.629,95.349z"/>
		</g>
		<path style="fill:#FFFFFF;" d="M220.574,35.833c-68.019,0-123.161,55.141-123.161,123.161c0,68.02,55.141,123.161,123.161,123.161
			c68.02,0,123.161-55.141,123.161-123.161C343.736,90.973,288.594,35.833,220.574,35.833z M220.574,274.075
			c-63.455,0-115.081-51.625-115.081-115.081c0-63.456,51.625-115.081,115.081-115.081c63.456,0,115.082,51.625,115.082,115.081
			C335.656,222.45,284.03,274.075,220.574,274.075z"/>
	</g>
</g>
<g id="Guides">
</g>
</svg>
