<?xml version="1.0" encoding="UTF-8"?> <svg xmlns="http://www.w3.org/2000/svg" xmlns:xlink="http://www.w3.org/1999/xlink" viewBox="0 0 360 177.44"><defs><style>.cls-1{fill:none;}.cls-2{clip-path:url(#clip-path);}.cls-3{fill:#00616d;}.cls-4{fill:#a5cf4c;}</style><clipPath id="clip-path" transform="translate(-36.2 -37.28)"><rect class="cls-1" width="432" height="252"></rect></clipPath></defs><title>VetPartners Logo FullColor</title><g id="Layer_2" data-name="Layer 2"><g id="Layer_1-2" data-name="Layer 1"><g class="cls-2"><path class="cls-3" d="M83.27,162.38,59.44,214.72H58L39.76,169.07a39.68,39.68,0,0,0-3.56-6.68h8.69l15.59,39.2q13-28.28,14.77-32.37a23,23,0,0,0,2-6.83Z" transform="translate(-36.2 -37.28)"></path><path class="cls-3" d="M85,194c0,4.82,1.26,8.68,3.79,11.43a12.37,12.37,0,0,0,9.5,4.08,20,20,0,0,0,10.76-3v4.38c-3.49,2.6-7.94,3.86-13.36,3.86a16,16,0,0,1-12.55-5.35,19.82,19.82,0,0,1-4.68-13.51c0-5.79,1.63-10.39,4.82-13.88a16,16,0,0,1,12.4-5.2c9.72,0,15.14,6.24,15.14,17.22Zm.08-3.34h18c-.08-6.23-3.27-9.8-8.61-9.8-4.53,0-8.46,4.16-9.43,9.8" transform="translate(-36.2 -37.28)"></path><path class="cls-3" d="M137.08,212.42a15.59,15.59,0,0,1-8.09,2.3c-5,0-9-3-9-10.32V181.91h-5.79V181c4.23-3,8.09-7.42,11.73-13.14h.89v9.8h10.24v4.23H126.83v21.16c0,4.38,1.63,6.53,4.9,6.53a12.28,12.28,0,0,0,5.35-1.26Z" transform="translate(-36.2 -37.28)"></path><path class="cls-3" d="M152.47,188.59l4.8.15c9.13,0,13.66-3.49,13.66-10.54,0-7.65-4.08-11.51-13.36-11.51-2,0-3.41.07-4.16.15v40.23a29.76,29.76,0,0,0,.67,6.76h-7.79V168.92a20.72,20.72,0,0,0-.89-6.53H158a33.8,33.8,0,0,1,9.87,1.34c5.94,1.71,10.62,6.38,10.62,13.29,0,9.8-6.24,15.22-18,15.22-1.86,0-6.73-.07-8.29-.3Z" transform="translate(-36.2 -37.28)"></path><path class="cls-3" d="M202.7,213.83a30,30,0,0,1-1.11-4.53c-4.08,3.64-7.87,5.42-11.36,5.42-5.57,0-9.35-3.64-9.28-8.91s4.16-8.61,12.84-12.1q.45-.22,7.35-2.67v-1.63c.07-5.2-2.38-7.79-7.28-7.79a22.55,22.55,0,0,0-10.69,2.82v-4a22,22,0,0,1,12.17-3.64c4.23,0,7.42.89,9.58,2.75s3,5,3,9.87l-.22,12.84c.07,5,.74,8.83,1.93,11.58Zm-9.5-4.08c2.6,0,5.27-1.26,8-3.71a42.65,42.65,0,0,1-.3-5.79l.15-6.16q-7.35,2.78-10.24,4.9a6.64,6.64,0,0,0-2.9,5.27c-.07,3.49,2,5.49,5.27,5.49" transform="translate(-36.2 -37.28)"></path><path class="cls-3" d="M223.48,197.2v9.5a28.56,28.56,0,0,0,.82,7.13h-7.65V185.62a23.82,23.82,0,0,0-.82-7l7.65-1.78v8.69c3.49-6.16,7.2-8.76,12.47-8.76.37,0,1,.07,1.78.15V185h-.89a6.3,6.3,0,0,0-4.45-1.86c-5.57,0-8.91,5.42-8.91,14" transform="translate(-36.2 -37.28)"></path><path class="cls-3" d="M263.86,212.42a15.59,15.59,0,0,1-8.09,2.3c-5,0-9-3-9-10.32V181.91H241V181c4.23-3,8.09-7.42,11.73-13.14h.89v9.8h10.24v4.23H253.61v21.16c0,4.38,1.63,6.53,4.9,6.53a12.28,12.28,0,0,0,5.35-1.26Z" transform="translate(-36.2 -37.28)"></path><path class="cls-3" d="M294.59,213.83V192c0-7.35-1.86-10.17-6.68-10.17-3.49,0-6.68,1.78-9.5,5.27v19.6a27.17,27.17,0,0,0,.74,7.13h-7.57V185.62a22.47,22.47,0,0,0-.89-7l7.72-1.78v6.61q5.9-6.68,12-6.68c7.35,0,11,4.75,11,14.25V206.7a30.49,30.49,0,0,0,.74,7.13Z" transform="translate(-36.2 -37.28)"></path><path class="cls-3" d="M314.31,194c0,4.82,1.26,8.68,3.79,11.43a12.36,12.36,0,0,0,9.5,4.08,20,20,0,0,0,10.76-3v4.38c-3.49,2.6-7.94,3.86-13.36,3.86a16,16,0,0,1-12.55-5.35,19.82,19.82,0,0,1-4.68-13.51c0-5.79,1.63-10.39,4.83-13.88a16,16,0,0,1,12.4-5.2c9.72,0,15.14,6.24,15.14,17.22Zm.07-3.34h18c-.07-6.23-3.27-9.8-8.61-9.8-4.53,0-8.46,4.16-9.43,9.8" transform="translate(-36.2 -37.28)"></path><path class="cls-3" d="M353.07,197.2v9.5a28.6,28.6,0,0,0,.82,7.13h-7.65V185.62a23.82,23.82,0,0,0-.82-7l7.65-1.78v8.69c3.49-6.16,7.2-8.76,12.47-8.76.37,0,1,.07,1.78.15V185h-.89a6.3,6.3,0,0,0-4.45-1.86c-5.57,0-8.91,5.42-8.91,14" transform="translate(-36.2 -37.28)"></path><path class="cls-3" d="M392.19,211.68a15.53,15.53,0,0,1-9.58,3,28.55,28.55,0,0,1-11.51-2.52v-6.75h.82c3.93,3.49,7.72,5.27,11.36,5.27s6.31-2.3,6.31-5-1.71-4.38-6.53-6.76c-4.6-2.3-7.65-4.23-9.21-5.79a8.67,8.67,0,0,1-2.23-6.09,9.17,9.17,0,0,1,3.49-7.27,12.72,12.72,0,0,1,8.69-3c2.89,0,6.53.89,10.91,2.6v7.27h-.82c-3.49-3.86-6.76-5.79-9.95-5.79-3.64,0-6.24,2-6.24,4.38,0,2.67,2.6,4.6,8,7.2,6.83,3.34,10.47,6.53,10.47,11.36a9.45,9.45,0,0,1-4,7.87" transform="translate(-36.2 -37.28)"></path><path class="cls-4" d="M250,123.76a4.41,4.41,0,0,0-3.13,1.29l-.76.76-.76-.76a4.42,4.42,0,1,0-6.25,6.25l.8.8,6.21,6.21,6.21-6.21.8-.8a4.42,4.42,0,0,0-3.13-7.54" transform="translate(-36.2 -37.28)"></path><path class="cls-4" d="M131,72.1c17.41-20.22,47.69-34.8,84.91-34.82,34.11,0,68.91,16.43,84.67,34.71l-.9,4c-16.67-18.82-49.93-33.1-83.77-33.1C179,42.93,149,56.26,132,76Z" transform="translate(-36.2 -37.28)"></path><path class="cls-3" d="M237.31,123.29c.14-.14.29-.27.44-.4-7.83-2.42-14.11-8.74-14.11-8.74-3.58,1.67-19.21,11.67-31,19.68l45.41,0-.74-.74a6.92,6.92,0,0,1,0-9.78" transform="translate(-36.2 -37.28)"></path><path class="cls-3" d="M254.13,133.8h17.64c-.95-10.95-10.43-19.54-8.51-22,3.62-4.69,4.81-6.94,5.17-12.84a14,14,0,0,0-3-10h0c2.11-4.89,3.55-11.76.66-18a68.94,68.94,0,0,0-13.31,7.43c-4.6-1.25-6.2-1.24-9.07-1a16,16,0,0,0-5.32,1.22s-4.38-4-13.95-7.79c-2.05,6.39-1.59,13.25,1,18.15A24.09,24.09,0,0,0,223,101.8c.3,3.46,3.1,8,6,10.72a23.45,23.45,0,0,0,6.62,4.68c3.49,1.78,7.51,3,11.35,2.68a22.06,22.06,0,0,0,5.24-1.07,35.32,35.32,0,0,0,7.84-4.37s-1.6,4.17-8.11,7.12a6.84,6.84,0,0,1,3,1.74,6.92,6.92,0,0,1,0,9.78Z" transform="translate(-36.2 -37.28)"></path><path class="cls-3" d="M221.84,111.53c-2.54-4.3-7.78-11.87-10.11-16.21l-5.23,7.81a8.08,8.08,0,0,1-5,3.45c-4.67,1.05-9.12-2.56-9.57-7.32l.4-18.08,2.07,15.73a6.63,6.63,0,0,0,11.49,1.59l8.57-9.74c3.51-4.68-5.65-17.84-12.24-21.11-4.12-2-7.05.21-8.68,2.2-13.24-1-24,7-24.7,8.38l-3.82,6.58-19.25,7.5-2.4.85s-.73,4.93,3.14,7.54c1.87,4.37,6.83,13.64,15.24,13.74,3.1,0,8.15-1.3,10.65-1.78a9.6,9.6,0,0,1,3.34.1,3.56,3.56,0,0,1,.88.45,14.51,14.51,0,0,1,6,7.24c.7,2.1,2.07,5.23-.78,13.39Z" transform="translate(-36.2 -37.28)"></path></g></g></g></svg> 