<?xml version="1.0" standalone="no"?>
<!DOCTYPE svg PUBLIC "-//W3C//DTD SVG 1.1//EN" "http://www.w3.org/Graphics/SVG/1.1/DTD/svg11.dtd" >
<svg xmlns="http://www.w3.org/2000/svg" xmlns:xlink="http://www.w3.org/1999/xlink" version="1.1">
<metadata>
Created by FontForge 20170731 at Mon Jun 15 16:48:36 2020
 By Aleksey,,,
Copyright 2015-2016, 2019-2020 Dalton Maag Ltd. Modification of this file requires prior written permission from Dalton Maag Ltd.
</metadata>
<defs>
<font id="ObjektivMk2-XBold" horiz-adv-x="0" >
  <font-face 
    font-family="Objektiv Mk2 XBold"
    font-weight="800"
    font-stretch="normal"
    units-per-em="1000"
    panose-1="2 11 8 2 2 2 4 2 2 3"
    ascent="800"
    descent="-200"
    x-height="516"
    cap-height="760"
    bbox="-252 -283 1388 1097"
    underline-thickness="76"
    underline-position="-244"
    unicode-range="U+000D-FEFF"
  />
<missing-glyph horiz-adv-x="500" 
d="M50 0v750h400v-750h-400zM100 50h300v650h-300v-650z" />
    <glyph glyph-name="f_i" unicode="fi" horiz-adv-x="739" 
d="M114 0v371h-83v145h83v50q0 119 58.5 184t165.5 65q31 0 58.5 -4.5t46.5 -12.5l-9 -150q-11 5 -26.5 7.5t-28.5 2.5q-43 0 -63.5 -25t-20.5 -79v-38h122v-145h-122v-371h-181zM588 597q-43 0 -72.5 28t-29.5 68q0 42 29.5 69.5t72.5 27.5t72 -27.5t29 -69.5
q0 -40 -29 -68t-72 -28zM497 0v516h181v-516h-181z" />
    <glyph glyph-name="f_l" unicode="fl" horiz-adv-x="739" 
d="M114 0v371h-83v145h83v50q0 119 58.5 184t165.5 65q31 0 58.5 -4.5t46.5 -12.5l-9 -150q-11 5 -26.5 7.5t-28.5 2.5q-43 0 -63.5 -25t-20.5 -79v-38h122v-145h-122v-371h-181zM497 0v810h181v-810h-181z" />
    <glyph glyph-name="f_f_i" unicode="ffi" horiz-adv-x="1172" 
d="M114 0v371h-83v145h83v50q0 119 59 184t168 65q33 0 69.5 -6.5t57.5 -17.5l-17 -146q-14 5 -34 9t-36 4q-44 0 -65 -25t-21 -79v-38h122v-145h-122v-371h-181zM547 0v371h-83v145h83v50q0 119 58.5 184t165.5 65q31 0 58.5 -4.5t46.5 -12.5l-9 -150q-11 5 -26.5 7.5
t-28.5 2.5q-43 0 -63.5 -25t-20.5 -79v-38h122v-145h-122v-371h-181zM1021 597q-43 0 -72.5 28t-29.5 68q0 42 29.5 69.5t72.5 27.5t72 -27.5t29 -69.5q0 -40 -29 -68t-72 -28zM930 0v516h181v-516h-181z" />
    <glyph glyph-name="f_f_l" unicode="ffl" horiz-adv-x="1172" 
d="M114 0v371h-83v145h83v50q0 119 59 184t168 65q33 0 69.5 -6.5t57.5 -17.5l-17 -146q-14 5 -34 9t-36 4q-44 0 -65 -25t-21 -79v-38h122v-145h-122v-371h-181zM547 0v371h-83v145h83v50q0 119 58.5 184t165.5 65q31 0 58.5 -4.5t46.5 -12.5l-9 -150q-11 5 -26.5 7.5
t-28.5 2.5q-43 0 -63.5 -25t-20.5 -79v-38h122v-145h-122v-371h-181zM930 0v810h181v-810h-181z" />
    <glyph glyph-name="f_f" unicode="ff" horiz-adv-x="877" 
d="M114 0v371h-83v145h83v50q0 119 59 184t168 65q33 0 69.5 -6.5t57.5 -17.5l-17 -146q-14 5 -34 9t-36 4q-44 0 -65 -25t-21 -79v-38h122v-145h-122v-371h-181zM543 0v371h-83v145h83v50q0 119 59 184t168 65q33 0 69.5 -6.5t57.5 -17.5l-17 -146q-14 5 -34 9t-36 4
q-44 0 -65 -25t-21 -79v-38h122v-145h-122v-371h-181z" />
    <glyph glyph-name=".notdef" horiz-adv-x="500" 
d="M50 0v750h400v-750h-400zM100 50h300v650h-300v-650z" />
    <glyph glyph-name="uni0000" 
 />
    <glyph glyph-name="uni0000" 
 />
    <glyph glyph-name="uni000D" unicode="&#xd;" horiz-adv-x="214" 
 />
    <glyph glyph-name="space" unicode=" " horiz-adv-x="214" 
 />
    <glyph glyph-name="exclam" unicode="!" horiz-adv-x="381" 
d="M110 262l-18 528h198l-18 -528h-162zM191 -6q-46 0 -74 27t-28 69t28 68.5t74 26.5q45 0 73.5 -26.5t28.5 -68.5t-28.5 -69t-73.5 -27z" />
    <glyph glyph-name="quotedbl" unicode="&#x22;" horiz-adv-x="490" 
d="M58 444l-17 316h172l-17 -316h-138zM293 444l-17 316h172l-17 -316h-138z" />
    <glyph glyph-name="numbersign" unicode="#" horiz-adv-x="697" 
d="M85 0l32 150h-85v111h109l33 155h-97v111h121l32 150h132l-32 -150h115l34 150h132l-32 -150h86v-111h-110l-33 -155h97v-111h-121l-32 -150h-139l34 150h-112l-32 -150h-132zM273 261h113l34 155h-114z" />
    <glyph glyph-name="dollar" unicode="$" horiz-adv-x="646" 
d="M296 -134v121q-61 2 -124.5 17.5t-108.5 47.5l18 145q43 -30 99 -49t116 -22v182q-122 39 -176.5 92t-54.5 138q0 66 30.5 112.5t82.5 73t118 33.5v138h73v-136q43 -3 97.5 -17.5t97.5 -39.5l-27 -139q-36 21 -79.5 35.5t-88.5 19.5v-169q85 -27 136.5 -59.5t74.5 -75.5
t23 -102q0 -66 -30.5 -113t-83.5 -75t-120 -35v-123h-73zM222 548q0 -27 17 -45t57 -33v147q-32 -5 -53 -22t-21 -47zM441 205q0 27 -17 45.5t-55 33.5v-154q33 7 52.5 25.5t19.5 49.5z" />
    <glyph glyph-name="percent" unicode="%" horiz-adv-x="1000" 
d="M175 0l507 744h142l-506 -744h-143zM743 -14q-58 0 -103.5 25t-72 68.5t-26.5 99.5t26.5 99.5t72 68.5t103.5 25t103.5 -25t72 -68.5t26.5 -99.5t-26.5 -99.5t-72 -68.5t-103.5 -25zM743 99q33 0 52.5 22t19.5 58t-19.5 57.5t-52.5 21.5t-52.5 -21.5t-19.5 -57.5
t19.5 -58t52.5 -22zM257 374q-58 0 -103.5 25t-72 68.5t-26.5 99.5t26.5 99.5t72 68.5t103.5 25t103.5 -25t72 -68.5t26.5 -99.5t-26.5 -99.5t-72 -68.5t-103.5 -25zM257 487q33 0 52.5 22t19.5 58t-19.5 57.5t-52.5 21.5t-52.5 -21.5t-19.5 -57.5t19.5 -58t52.5 -22z" />
    <glyph glyph-name="ampersand" unicode="&#x26;" horiz-adv-x="774" 
d="M312 -16q-84 0 -145.5 26.5t-95 75.5t-33.5 116q0 136 159 212q-44 53 -62.5 92t-18.5 87q0 55 28.5 97t79.5 65.5t117 23.5t116.5 -23t79 -64.5t28.5 -95.5q0 -127 -158 -201l126 -142q16 30 26.5 66.5t12.5 78.5l146 -16q-4 -73 -26.5 -134t-58.5 -109l123 -139h-199
l-35 40q-95 -56 -210 -56zM273 591q0 -22 12.5 -45.5t41.5 -58.5q42 23 61 48.5t19 57.5q0 29 -18 47t-48 18q-31 0 -49.5 -18t-18.5 -49zM209 215q0 -42 33 -68.5t85 -26.5q53 0 102 27l-152 174q-36 -23 -52 -48t-16 -58z" />
    <glyph glyph-name="quotesingle" unicode="'" horiz-adv-x="255" 
d="M58 444l-17 316h172l-17 -316h-138z" />
    <glyph glyph-name="parenleft" unicode="(" horiz-adv-x="447" 
d="M260 -134q-57 57 -98.5 132.5t-63.5 163.5t-22 181t22 181t63.5 164t98.5 132h188q-100 -97 -153 -219t-53 -258t53 -258t153 -219h-188z" />
    <glyph glyph-name="parenright" unicode=")" horiz-adv-x="447" 
d="M-2 -134q101 97 154 219t53 258t-53 258t-154 219h189q58 -56 98.5 -132t62.5 -164t22 -181t-22 -181t-62.5 -163.5t-98.5 -132.5h-189z" />
    <glyph glyph-name="asterisk" unicode="*" horiz-adv-x="484" 
d="M178 344l-117 81l93 100l-130 29l49 133l116 -62l-18 135h142l-20 -136l118 62l49 -133l-130 -28l95 -100l-117 -80l-66 121z" />
    <glyph glyph-name="plus" unicode="+" horiz-adv-x="646" 
d="M257 88v175h-163v146h163v175h156v-175h163v-146h-163v-175h-156z" />
    <glyph glyph-name="comma" unicode="," horiz-adv-x="306" 
d="M-11 -169q42 72 65 159.5t24 182.5h166q-1 -98 -32.5 -190t-85.5 -152h-137z" />
    <glyph glyph-name="hyphen" unicode="-" horiz-adv-x="419" 
d="M49 214v147h320v-147h-320z" />
    <glyph glyph-name="period" unicode="." horiz-adv-x="306" 
d="M153 -6q-45 0 -73.5 27t-28.5 69t28.5 68.5t73.5 26.5t73.5 -26.5t28.5 -68.5t-28.5 -69t-73.5 -27z" />
    <glyph glyph-name="slash" unicode="/" horiz-adv-x="578" 
d="M5 -133l402 943h167l-403 -943h-166z" />
    <glyph glyph-name="zero" unicode="0" horiz-adv-x="646" 
d="M335 -16q-91 0 -156.5 46t-100 133t-34.5 209q0 73 12 133q24 122 96.5 188.5t182.5 66.5q92 0 157 -46t99.5 -133t34.5 -209q0 -73 -12 -133q-24 -122 -96.5 -188.5t-182.5 -66.5zM335 150q57 0 78 83q13 49 13 139q0 222 -91 222q-55 0 -78 -83q-13 -49 -13 -139
q0 -222 91 -222z" />
    <glyph glyph-name="one" unicode="1" horiz-adv-x="646" 
d="M299 0v558l-186 -79l-31 156l252 109h149v-744h-184z" />
    <glyph glyph-name="two" unicode="2" horiz-adv-x="646" 
d="M69 0v137q62 54 112.5 102.5t85.5 88.5q39 45 61 77t31.5 58t9.5 52q0 40 -25.5 63.5t-66.5 23.5q-94 0 -173 -81l-31 154q46 41 108.5 63t129.5 22q77 0 133.5 -27t87.5 -77t31 -118q0 -65 -33.5 -132t-104.5 -145q-19 -21 -47 -48t-56 -53h265v-160h-518z" />
    <glyph glyph-name="three" unicode="3" horiz-adv-x="646" 
d="M289 -16q-66 0 -124 13t-98 37l16 151q90 -49 191 -49q59 0 91.5 25t32.5 70q0 44 -31 67.5t-87 23.5q-19 0 -35.5 -1.5t-31.5 -6.5l-44 100l178 180h-264v150h481v-130l-170 -170q58 -4 101.5 -31.5t68.5 -73.5t25 -105q0 -76 -36.5 -132.5t-103.5 -87t-160 -30.5z" />
    <glyph glyph-name="four" unicode="4" horiz-adv-x="646" 
d="M373 0v152h-335v141l320 451h185v-447h85v-145h-85v-152h-170zM204 297h169v238z" />
    <glyph glyph-name="five" unicode="5" horiz-adv-x="646" 
d="M291 -16q-65 0 -127 12.5t-100 31.5l16 154q97 -44 189 -44q62 0 97 27t35 73q0 47 -38.5 73t-109.5 26q-37 0 -81.5 -5.5t-76.5 -14.5l17 427h433v-155h-271l-5 -118q33 5 54 5q82 0 142 -29t93.5 -81.5t33.5 -123.5q0 -79 -36.5 -137t-104 -89.5t-160.5 -31.5z" />
    <glyph glyph-name="six" unicode="6" horiz-adv-x="646" 
d="M342 -16q-90 0 -154.5 33t-99 94.5t-34.5 146.5q0 82 33.5 168t95 169t145.5 152l224 -7q-195 -161 -268 -299q39 32 104 32q67 0 119 -30.5t82 -83.5t30 -121q0 -74 -35.5 -131.5t-97.5 -90t-144 -32.5zM338 135q44 0 71.5 28t27.5 71q0 44 -27.5 71.5t-71.5 27.5
q-42 0 -70 -27.5t-28 -71.5q0 -43 28 -71t70 -28z" />
    <glyph glyph-name="seven" unicode="7" horiz-adv-x="646" 
d="M135 2l260 570h-327v172h529v-149l-264 -598z" />
    <glyph glyph-name="eight" unicode="8" horiz-adv-x="646" 
d="M335 -16q-89 0 -153.5 27t-99.5 77.5t-35 119.5q0 64 33 112.5t91 69.5q-50 21 -77.5 63t-27.5 98q0 63 33.5 110t94 73t141.5 26t141.5 -26t94 -73t33.5 -110q0 -55 -27.5 -97.5t-77.5 -63.5q57 -21 90.5 -70t33.5 -112q0 -69 -35 -119t-99.5 -77.5t-153.5 -27.5z
M335 449q42 0 67.5 23.5t25.5 63.5q0 39 -25.5 62.5t-67.5 23.5t-67.5 -23.5t-25.5 -62.5q0 -40 25.5 -63.5t67.5 -23.5zM335 129q45 0 72.5 26t27.5 67q0 42 -28 67.5t-72 25.5t-72 -25.5t-28 -67.5q0 -41 27.5 -67t72.5 -26z" />
    <glyph glyph-name="nine" unicode="9" horiz-adv-x="646" 
d="M118 4q96 78 162.5 152.5t105.5 146.5q-37 -32 -104 -32q-66 0 -118.5 30.5t-82.5 84t-30 120.5q0 75 35.5 132t98 89.5t143.5 32.5q90 0 154.5 -33t99 -94.5t34.5 -146.5q0 -81 -33.5 -168t-94.5 -169t-146 -152zM332 411q43 0 70.5 28t27.5 71q0 44 -27.5 71.5
t-70.5 27.5t-71 -27.5t-28 -71.5q0 -43 28 -71t71 -28z" />
    <glyph glyph-name="colon" unicode=":" horiz-adv-x="306" 
d="M153 -6q-45 0 -73.5 27t-28.5 69t28.5 68.5t73.5 26.5t73.5 -26.5t28.5 -68.5t-28.5 -69t-73.5 -27zM153 331q-45 0 -73.5 27t-28.5 69t28.5 68.5t73.5 26.5t73.5 -26.5t28.5 -68.5t-28.5 -69t-73.5 -27z" />
    <glyph glyph-name="semicolon" unicode=";" horiz-adv-x="306" 
d="M-11 -169q42 72 65 159.5t24 182.5h166q-1 -98 -32.5 -190t-85.5 -152h-137zM153 331q-45 0 -73.5 27t-28.5 69t28.5 68.5t73.5 26.5t73.5 -26.5t28.5 -68.5t-28.5 -69t-73.5 -27z" />
    <glyph glyph-name="less" unicode="&#x3c;" horiz-adv-x="646" 
d="M554 77l-438 176v168l438 175v-162l-261 -96l261 -97v-164z" />
    <glyph glyph-name="equal" unicode="=" horiz-adv-x="646" 
d="M112 381v140h446v-140h-446zM112 142v140h446v-140h-446z" />
    <glyph glyph-name="greater" unicode="&#x3e;" horiz-adv-x="646" 
d="M116 77v163l261 96l-261 97v163l438 -176v-167z" />
    <glyph glyph-name="question" unicode="?" horiz-adv-x="544" 
d="M170 262q-3 12 -3 29q0 52 14.5 87.5t36 60.5t42.5 44q27 23 44 44t17 49q0 30 -22 47t-63 17q-46 0 -92.5 -23.5t-78.5 -58.5l-43 146q36 41 101.5 68t150.5 27q71 0 125.5 -25.5t85.5 -71.5t31 -109q0 -44 -13 -76t-34.5 -57t-48.5 -49q-28 -25 -52.5 -52.5
t-31.5 -68.5q-4 -12 -4 -28h-162zM251 -6q-43 0 -72.5 26t-29.5 70t29.5 69.5t72.5 25.5q44 0 73 -25.5t29 -69.5t-29 -70t-73 -26z" />
    <glyph glyph-name="at" unicode="@" horiz-adv-x="1045" 
d="M512 -230q-142 0 -246.5 52t-162 147.5t-57.5 224.5q0 107 40 198.5t112 159.5t169 106t211 38q127 0 221.5 -48t147.5 -134t53 -200q0 -92 -33.5 -163t-93 -110.5t-137.5 -39.5q-54 0 -92 18.5t-53 53.5q-22 -33 -58.5 -51.5t-78.5 -18.5q-78 0 -126 56t-48 147
q0 71 28.5 128.5t77 91.5t108.5 34q40 0 72.5 -18t50.5 -50l12 53h141l-42 -246q-3 -22 -3 -32q0 -50 39 -50q28 0 51 26t37 70t14 96q0 125 -78.5 195t-218.5 70q-85 0 -156 -27.5t-123.5 -78.5t-81 -119.5t-28.5 -151.5q0 -144 90 -224.5t251 -80.5q62 0 125 12.5
t115 35.5l12 -120q-58 -24 -125.5 -37t-135.5 -13zM503 139q40 0 65 29t25 75q0 81 -70 81q-40 0 -65 -29t-25 -76q0 -80 70 -80z" />
    <glyph glyph-name="A" unicode="A" horiz-adv-x="847" 
d="M21 0l298 760h209l298 -760h-212l-59 177h-276l-59 -177h-199zM329 328h176l-88 267z" />
    <glyph glyph-name="B" unicode="B" horiz-adv-x="724" 
d="M79 0v760h297q130 0 197.5 -50t67.5 -146q0 -53 -24.5 -95t-69.5 -64q62 -17 98 -66t36 -117q0 -109 -71 -165.5t-209 -56.5h-322zM360 622h-100v-171h99q100 0 100 88q0 83 -99 83zM384 318h-124v-180h128q101 0 101 90t-105 90z" />
    <glyph glyph-name="C" unicode="C" horiz-adv-x="759" 
d="M456 -11q-127 0 -219.5 47.5t-142.5 134.5t-50 207q0 87 30.5 159t86 124.5t132 81t168.5 28.5q65 0 130.5 -16t110.5 -43l-32 -167q-47 23 -98 36t-98 13q-102 0 -161.5 -58.5t-59.5 -156.5t59.5 -155.5t162.5 -57.5q48 0 106 16.5t106 43.5l21 -175q-46 -28 -115 -45
t-137 -17z" />
    <glyph glyph-name="D" unicode="D" horiz-adv-x="858" 
d="M79 0v760h304q209 0 320 -98.5t111 -281.5q0 -120 -51.5 -205t-149 -130t-235.5 -45h-299zM371 601h-92v-442h92q235 0 235 221t-235 221z" />
    <glyph glyph-name="E" unicode="E" horiz-adv-x="679" 
d="M79 0v760h529v-153h-344v-146h303v-153h-303v-155h358v-153h-543z" />
    <glyph glyph-name="F" unicode="F" horiz-adv-x="638" 
d="M79 0v760h518v-159h-322v-166h279v-159h-279v-276h-196z" />
    <glyph glyph-name="G" unicode="G" horiz-adv-x="827" 
d="M469 -11q-130 0 -225.5 46.5t-147.5 131.5t-52 202q0 122 55.5 212t155.5 140t235 50q68 0 138 -15.5t125 -42.5l-32 -161q-115 51 -233 51q-74 0 -129 -28t-85 -78.5t-30 -119.5q0 -106 63 -164.5t177 -58.5q25 0 50 3.5t50 10.5v123h-128v147h310v-390
q-64 -28 -141 -43.5t-156 -15.5z" />
    <glyph glyph-name="H" unicode="H" horiz-adv-x="860" 
d="M79 0v760h203v-289h296v289h203v-760h-203v308h-296v-308h-203z" />
    <glyph glyph-name="I" unicode="I" horiz-adv-x="362" 
d="M79 0v760h203v-760h-203z" />
    <glyph glyph-name="J" unicode="J" horiz-adv-x="583" 
d="M228 -16q-55 0 -108 11.5t-85 30.5l18 156q32 -17 66.5 -25.5t68.5 -8.5q62 0 89.5 31t27.5 103v478h203v-490q0 -286 -280 -286z" />
    <glyph glyph-name="K" unicode="K" horiz-adv-x="817" 
d="M79 0v760h200v-312l259 312h241l-322 -363l353 -397h-261l-270 326v-326h-200z" />
    <glyph glyph-name="L" unicode="L" horiz-adv-x="639" 
d="M79 0v760h203v-597h322v-163h-525z" />
    <glyph glyph-name="M.alt" unicode="M" horiz-adv-x="1016" 
d="M60 0l44 760h187l219 -444l215 444h187l45 -760h-187l-17 467l-167 -342h-155l-169 337l-15 -462h-187z" />
    <glyph glyph-name="N" unicode="N" horiz-adv-x="861" 
d="M79 0v760h173l346 -464v464h184v-760h-173l-346 465v-465h-184z" />
    <glyph glyph-name="O" unicode="O" horiz-adv-x="912" 
d="M456 -16q-90 0 -165.5 29t-130.5 82t-85.5 125.5t-30.5 159.5q0 84 31 156.5t87 126t131 83.5t163 30q90 0 165.5 -29t130.5 -82t85.5 -125.5t30.5 -159.5q0 -84 -31 -156.5t-87 -126t-131 -83.5t-163 -30zM456 161q59 0 105 28t72 77.5t26 112.5q0 64 -26 113.5
t-71.5 78t-105.5 28.5q-59 0 -105 -28t-72 -77t-26 -113t26 -113.5t72 -78t105 -28.5z" />
    <glyph glyph-name="P" unicode="P" horiz-adv-x="683" 
d="M79 0v760h277q92 0 158.5 -31.5t102.5 -89.5t36 -138q0 -122 -79 -191.5t-218 -69.5h-85v-240h-192zM326 613h-55v-225h55q132 0 132 113q0 112 -132 112z" />
    <glyph glyph-name="Q" unicode="Q" horiz-adv-x="912" 
d="M448 -16q-88 0 -162 29.5t-128.5 83t-84 126t-29.5 157.5q0 84 31 156.5t87 126t131 83.5t163 30q90 0 165.5 -29t130.5 -82t85.5 -125.5t30.5 -159.5q0 -84 -27.5 -151.5t-76.5 -117.5t-111 -81l184 -212h-232l-134 167q-12 -1 -23 -1zM456 161q59 0 105 28t72 77.5
t26 112.5q0 64 -26 113.5t-71.5 78t-105.5 28.5q-59 0 -105 -28t-72 -77t-26 -113t26 -113.5t72 -78t105 -28.5z" />
    <glyph glyph-name="R" unicode="R" horiz-adv-x="749" 
d="M79 0v760h277q140 0 218.5 -68.5t78.5 -190.5q0 -65 -31.5 -117.5t-80.5 -86.5l186 -297h-221l-133 244h-102v-244h-192zM329 613h-58v-222h56q131 0 131 112q0 110 -129 110z" />
    <glyph glyph-name="S" unicode="S" horiz-adv-x="667" 
d="M313 -16q-51 0 -102.5 8.5t-95 23t-71.5 33.5l18 162q48 -30 114 -48.5t128 -18.5q56 0 85.5 18.5t29.5 53.5q0 21 -11.5 35.5t-39.5 27t-79 27.5q-123 34 -177 89.5t-54 146.5q0 109 77.5 171.5t211.5 62.5q65 0 129.5 -16t107.5 -43l-25 -157q-40 26 -96.5 41
t-106.5 15q-104 0 -104 -67q0 -29 24 -46t89 -36q136 -39 195 -94.5t59 -146.5q0 -115 -80.5 -178.5t-225.5 -63.5z" />
    <glyph glyph-name="T" unicode="T" horiz-adv-x="739" 
d="M268 0v597h-233v163h669v-163h-233v-597h-203z" />
    <glyph glyph-name="U" unicode="U" horiz-adv-x="849" 
d="M424 -16q-168 0 -259 89.5t-91 255.5v431h203v-417q0 -182 147 -182t147 182v417h203v-431q0 -166 -90.5 -255.5t-259.5 -89.5z" />
    <glyph glyph-name="V" unicode="V" horiz-adv-x="798" 
d="M296 0l-284 760h224l166 -544l165 544h219l-284 -760h-206z" />
    <glyph glyph-name="W" unicode="W" horiz-adv-x="1139" 
d="M244 0l-225 760h213l112 -506l140 496h172l142 -487l110 497h212l-225 -760h-183l-144 488l-140 -488h-184z" />
    <glyph glyph-name="X" unicode="X" horiz-adv-x="796" 
d="M15 0l264 396l-246 364h237l134 -234l133 234h230l-249 -373l263 -387h-238l-153 258l-145 -258h-230z" />
    <glyph glyph-name="Y" unicode="Y" horiz-adv-x="764" 
d="M282 0v309l-274 451h223l154 -302l154 302h217l-275 -451v-309h-199z" />
    <glyph glyph-name="Z" unicode="Z" horiz-adv-x="757" 
d="M54 0v137l381 464h-357v159h610v-137l-380 -464h388v-159h-642z" />
    <glyph glyph-name="bracketleft" unicode="[" horiz-adv-x="447" 
d="M100 -133v953h304v-146h-139v-660h139v-147h-304z" />
    <glyph glyph-name="backslash" unicode="\" horiz-adv-x="578" 
d="M407 -133l-402 943h166l403 -943h-167z" />
    <glyph glyph-name="bracketright" unicode="]" horiz-adv-x="447" 
d="M44 -133v147h139v660h-139v146h303v-953h-303z" />
    <glyph glyph-name="asciicircum" unicode="^" horiz-adv-x="646" 
d="M54 301l204 410h154l204 -410h-172l-109 248l-110 -248h-171z" />
    <glyph glyph-name="underscore" unicode="_" horiz-adv-x="500" 
d="M0 -159v133h500v-133h-500z" />
    <glyph glyph-name="grave" unicode="`" horiz-adv-x="500" 
d="M249 610l-149 170h194l105 -170h-150z" />
    <glyph glyph-name="a" unicode="a" horiz-adv-x="657" 
d="M265 -16q-67 0 -118.5 34.5t-80.5 96t-29 141.5q0 79 31 141t84 98.5t119 36.5q50 0 90 -21.5t62 -60.5l2 66h171v-516h-171l-2 66q-23 -39 -64 -60.5t-94 -21.5zM321 145q45 0 74 32t29 81q0 50 -29 81.5t-74 31.5q-46 0 -75 -31.5t-29 -81.5q0 -49 29 -81t75 -32z" />
    <glyph glyph-name="b" unicode="b" horiz-adv-x="657" 
d="M386 -16q-50 0 -90 21t-63 60l-2 -65h-170v810h181v-349q50 71 150 71q67 0 118 -34.5t80.5 -96t29.5 -141.5q0 -78 -31 -140.5t-83.5 -99t-119.5 -36.5zM336 145q46 0 75 32t29 81q0 50 -29 81.5t-75 31.5t-75 -31.5t-29 -81.5q0 -49 29 -81t75 -32z" />
    <glyph glyph-name="c" unicode="c" horiz-adv-x="543" 
d="M323 -14q-87 0 -151 33.5t-99.5 94.5t-35.5 142t36 143t100.5 96.5t148.5 34.5q47 0 96.5 -11t81.5 -28l-22 -151q-34 15 -67 22t-65 7q-61 0 -95 -29t-34 -82q0 -52 35 -81t97 -29q64 0 135 29l18 -148q-35 -20 -82.5 -31.5t-96.5 -11.5z" />
    <glyph glyph-name="d" unicode="d" horiz-adv-x="657" 
d="M265 -16q-67 0 -118.5 34.5t-80.5 96t-29 141.5q0 79 31 141t84 98.5t119 36.5q93 0 144 -70v348h181v-810h-171l-2 66q-49 -82 -158 -82zM321 145q45 0 74 32t29 81q0 50 -29 81.5t-74 31.5q-46 0 -75 -31.5t-29 -81.5q0 -49 29 -81t75 -32z" />
    <glyph glyph-name="e" unicode="e" horiz-adv-x="603" 
d="M348 -16q-97 0 -166.5 33t-107 94.5t-37.5 146.5q0 81 34 143t95 96.5t141 34.5q78 0 135 -31.5t87.5 -89t30.5 -137.5q0 -14 -1 -28t-3 -29h-343q12 -52 51.5 -75.5t107.5 -23.5q42 0 86.5 9.5t78.5 25.5l16 -130q-42 -19 -95.5 -29t-109.5 -10zM304 409q-78 0 -94 -94
h182q0 11 -2 19q-7 35 -29 55t-57 20z" />
    <glyph glyph-name="f" unicode="f" horiz-adv-x="448" 
d="M114 0v371h-83v145h83v50q0 119 59 184t168 65q33 0 69.5 -6.5t57.5 -17.5l-17 -146q-14 5 -34 9t-36 4q-44 0 -65 -25t-21 -79v-38h122v-145h-122v-371h-181z" />
    <glyph glyph-name="g" unicode="g" horiz-adv-x="657" 
d="M298 -254q-37 0 -76 5.5t-72.5 15t-54.5 21.5l19 148q31 -17 76 -28.5t83 -11.5q150 0 150 140v38q-50 -81 -156 -81q-68 0 -120 34t-81 94.5t-29 138.5t31 139.5t84 97t120 35.5q49 0 88.5 -21t62.5 -61l2 66h171v-474q0 -145 -75.5 -220.5t-222.5 -75.5zM321 150
q45 0 74 31.5t29 80.5q0 50 -29 81.5t-74 31.5q-46 0 -75 -31.5t-29 -81.5q0 -49 29 -80.5t75 -31.5z" />
    <glyph glyph-name="h" unicode="h" horiz-adv-x="625" 
d="M61 0v810h181v-355q21 36 59.5 56.5t88.5 20.5q87 0 132.5 -55.5t45.5 -162.5v-314h-181v280q0 91 -69 91q-37 0 -56.5 -25.5t-19.5 -72.5v-273h-181z" />
    <glyph glyph-name="i" unicode="i" horiz-adv-x="303" 
d="M152 597q-43 0 -72.5 28t-29.5 68q0 42 29.5 69.5t72.5 27.5t72 -27.5t29 -69.5q0 -40 -29 -68t-72 -28zM61 0v516h181v-516h-181z" />
    <glyph glyph-name="j.alt" unicode="j" horiz-adv-x="303" 
d="M152 597q-43 0 -72.5 28t-29.5 68q0 42 29.5 69.5t72.5 27.5t72 -27.5t29 -69.5q0 -40 -29 -68t-72 -28zM22 -254q-39 0 -76.5 7t-58.5 19l18 147q20 -7 39 -11.5t38 -4.5q41 0 60 22.5t19 71.5v519h181v-534q0 -116 -56 -176t-164 -60z" />
    <glyph glyph-name="k" unicode="k" horiz-adv-x="643" 
d="M61 0v810h181v-483l158 189h209l-208 -231l243 -285h-223l-179 223v-223h-181z" />
    <glyph glyph-name="l" unicode="l" horiz-adv-x="303" 
d="M61 0v810h181v-810h-181z" />
    <glyph glyph-name="m" unicode="m" horiz-adv-x="936" 
d="M61 0v516h176l2 -63q21 38 59.5 58.5t88.5 20.5q107 0 151 -85q22 40 64.5 62.5t96.5 22.5q89 0 135 -55.5t46 -162.5v-314h-180v280q0 91 -67 91q-73 0 -73 -98v-273h-180v280q0 91 -67 91q-72 0 -72 -98v-273h-180z" />
    <glyph glyph-name="n" unicode="n" horiz-adv-x="625" 
d="M61 0v516h178l2 -64q20 38 59 59t90 21q87 0 132.5 -55.5t45.5 -162.5v-314h-181v280q0 91 -69 91q-37 0 -56.5 -25.5t-19.5 -72.5v-273h-181z" />
    <glyph glyph-name="o" unicode="o" horiz-adv-x="641" 
d="M321 -16q-82 0 -146 35.5t-101 97.5t-37 141t37 141t101.5 97.5t145.5 35.5q82 0 146 -35.5t101 -97t37 -141.5q0 -79 -37 -141t-101.5 -97.5t-145.5 -35.5zM321 145q45 0 74 32t29 81q0 50 -29 81.5t-74 31.5q-46 0 -75 -31.5t-29 -81.5q0 -49 29 -81t75 -32z" />
    <glyph glyph-name="p" unicode="p" horiz-adv-x="657" 
d="M61 -245v761h169l2 -68q50 84 160 84q67 0 118 -34.5t80.5 -96t29.5 -141.5q0 -78 -31 -140.5t-83.5 -99t-119.5 -36.5q-94 0 -144 68v-297h-181zM336 145q46 0 75 32t29 81q0 50 -29 81.5t-75 31.5t-75 -31.5t-29 -81.5q0 -49 29 -81t75 -32z" />
    <glyph glyph-name="q" unicode="q" horiz-adv-x="657" 
d="M415 -245v298q-51 -69 -150 -69q-67 0 -118.5 34.5t-80.5 96t-29 141.5q0 79 31 141t84 98.5t119 36.5q49 0 89 -21t63 -61l2 66h171v-761h-181zM321 145q45 0 74 32t29 81q0 50 -29 81.5t-74 31.5q-46 0 -75 -31.5t-29 -81.5q0 -49 29 -81t75 -32z" />
    <glyph glyph-name="r" unicode="r" horiz-adv-x="448" 
d="M61 0v516h176l2 -91q16 48 50 74.5t79 26.5q34 0 59 -10l-15 -171q-13 5 -32 8.5t-35 3.5q-103 0 -103 -136v-221h-181z" />
    <glyph glyph-name="s" unicode="s" horiz-adv-x="519" 
d="M247 -16q-60 0 -117 14t-91 37l20 128q39 -25 85 -38t91 -13q68 0 68 35q0 18 -15 27.5t-63 22.5q-96 26 -136.5 64.5t-40.5 105.5q0 78 59 121.5t162 43.5q52 0 103 -11t85 -30l-19 -126q-80 39 -157 39q-58 0 -58 -33q0 -16 16 -26.5t63 -23.5q96 -26 137.5 -66.5
t41.5 -106.5q0 -78 -62 -121t-172 -43z" />
    <glyph glyph-name="t.alt" unicode="t" horiz-adv-x="478" 
d="M294 -16q-193 0 -193 203v184h-87v145h87v133h180v-133h147v-145h-147v-142q0 -46 15.5 -65t51.5 -19q44 0 84 18l18 -149q-58 -30 -156 -30z" />
    <glyph glyph-name="u.alt" unicode="u" horiz-adv-x="624" 
d="M231 -16q-85 0 -130 54.5t-45 159.5v318h182v-281q0 -46 16.5 -68t52.5 -22t55.5 25.5t19.5 72.5v273h181v-516h-178l-2 64q-20 -38 -59.5 -59t-92.5 -21z" />
    <glyph glyph-name="v" unicode="v" horiz-adv-x="597" 
d="M203 0l-190 516h201l87 -342l95 342h189l-191 -516h-191z" />
    <glyph glyph-name="w" unicode="w" horiz-adv-x="888" 
d="M184 0l-166 516h190l68 -316l92 316h148l98 -317l66 317h190l-166 -516h-162l-103 298l-98 -298h-157z" />
    <glyph glyph-name="x" unicode="x" horiz-adv-x="625" 
d="M21 0l188 266l-178 250h202l84 -140l82 140h192l-177 -252l189 -264h-203l-94 156l-93 -156h-192z" />
    <glyph glyph-name="y" unicode="y" horiz-adv-x="620" 
d="M96 -245l129 273l-212 488h199l105 -303l97 303h194l-330 -761h-182z" />
    <glyph glyph-name="z" unicode="z" horiz-adv-x="555" 
d="M39 0v119l236 252h-225v145h459v-119l-236 -252h243v-145h-477z" />
    <glyph glyph-name="braceleft" unicode="{" horiz-adv-x="458" 
d="M343 -144q-219 0 -219 171q0 39 10 79.5t10 84.5q0 42 -17 58.5t-60 16.5h-24v145h24q43 0 60 16.5t17 58.5q0 44 -10 84.5t-10 79.5q0 171 219 171q17 0 40.5 -1t37.5 -2v-140q-8 1 -18.5 1h-28.5q-44 0 -64.5 -17.5t-20.5 -56.5q0 -31 10 -71t10 -82q0 -41 -21.5 -71
t-61.5 -43q83 -25 83 -113q0 -42 -10 -82t-10 -71q0 -39 20.5 -56.5t64.5 -17.5h28t19 1v-140q-14 -1 -37.5 -2t-40.5 -1z" />
    <glyph glyph-name="bar" unicode="|" horiz-adv-x="341" 
d="M89 -228v1094h162v-1094h-162z" />
    <glyph glyph-name="braceright" unicode="}" horiz-adv-x="458" 
d="M115 -144q-17 0 -40.5 1t-37.5 2v140q8 -1 18.5 -1h28.5q44 0 64.5 17.5t20.5 56.5q0 31 -10 71t-10 82q0 41 21.5 71t61.5 43q-83 25 -83 113q0 42 10 82t10 71q0 39 -20.5 56.5t-64.5 17.5h-28t-19 -1v140q14 1 37.5 2t40.5 1q219 0 219 -171q0 -39 -10 -79.5
t-10 -84.5q0 -42 17 -58.5t60 -16.5h24v-145h-24q-43 0 -60 -16.5t-17 -58.5q0 -44 10 -84.5t10 -79.5q0 -171 -219 -171z" />
    <glyph glyph-name="asciitilde" unicode="~" horiz-adv-x="646" 
d="M60 221v15q0 85 22.5 134.5t59.5 71t82 21.5q38 0 66.5 -11t53.5 -28q26 -18 43.5 -29.5t34.5 -11.5q20 0 33.5 17t14.5 63h140v-15q0 -85 -22 -135t-59.5 -71t-82.5 -21q-38 0 -66.5 10.5t-53.5 28.5q-25 17 -43 28.5t-35 11.5q-19 0 -33 -16t-15 -63h-140z" />
    <glyph glyph-name="uni00A0" unicode="&#xa0;" horiz-adv-x="214" 
 />
    <glyph glyph-name="exclamdown" unicode="&#xa1;" horiz-adv-x="381" 
d="M191 331q-46 0 -74 26.5t-28 68.5t28 69t74 27q45 0 73.5 -27t28.5 -69t-28.5 -68.5t-73.5 -26.5zM92 -274l18 528h161l18 -528h-197z" />
    <glyph glyph-name="cent" unicode="&#xa2;" horiz-adv-x="646" 
d="M340 -134v122q-73 8 -128 42t-85.5 91t-30.5 134q0 74 29.5 133t84.5 95.5t130 44.5v123h73v-122q35 -3 71 -12t68 -27l-21 -144q-28 13 -58.5 21t-59.5 9v-237q30 2 60.5 9t63.5 21l18 -140q-29 -17 -65 -28t-77 -14v-121h-73zM259 258q0 -88 81 -112v224
q-37 -12 -59 -39.5t-22 -72.5z" />
    <glyph glyph-name="sterling" unicode="&#xa3;" horiz-adv-x="646" 
d="M68 0v149h96v149h-91v140h91v27q0 142 74 218.5t211 76.5q47 0 92 -10t77 -29l-21 -144q-34 17 -66 24.5t-63 7.5q-128 0 -128 -148v-23h189v-140h-189v-149h282v-149h-554z" />
    <glyph glyph-name="currency" unicode="&#xa4;" horiz-adv-x="646" 
d="M154 128l-105 94l81 89q-24 49 -24 106t24 106l-81 89l105 94l75 -84q49 24 106 24t106 -24l75 84l105 -94l-81 -89q24 -49 24 -106t-24 -106l81 -89l-105 -94l-75 84q-49 -24 -106 -24t-106 24zM335 319q41 0 66 27.5t25 70.5q0 44 -25 71t-66 27q-40 0 -65.5 -27
t-25.5 -71q0 -43 25.5 -70.5t65.5 -27.5z" />
    <glyph glyph-name="yen" unicode="&#xa5;" horiz-adv-x="646" 
d="M52 135v98h195v76l-1 2h-194v98h141l-182 335h205l123 -286l123 286h197l-183 -335h135v-98h-188v-78h188v-98h-188v-135h-176v135h-195z" />
    <glyph glyph-name="brokenbar" unicode="&#xa6;" horiz-adv-x="341" 
d="M89 421v445h162v-445h-162zM89 -228v445h162v-445h-162z" />
    <glyph glyph-name="section" unicode="&#xa7;" horiz-adv-x="567" 
d="M271 -123q-65 0 -127 15.5t-97 40.5l19 131q96 -60 199 -60q32 0 50 11.5t18 32.5q0 20 -18 31.5t-65 24.5q-109 27 -156.5 68.5t-47.5 110.5q0 56 29.5 96.5t83.5 57.5q-92 48 -92 143q0 80 60.5 125t166.5 45q53 0 104 -10.5t89 -30.5l-18 -125q-79 38 -165 38
q-30 0 -47 -9.5t-17 -27.5t18.5 -29.5t73.5 -28.5q102 -28 147 -72t45 -115q0 -52 -25 -91t-71 -57q81 -47 81 -134q0 -86 -62.5 -133.5t-175.5 -47.5zM285 242q34 0 55.5 21.5t21.5 55.5q0 32 -21.5 52t-55.5 20t-55.5 -21.5t-21.5 -55.5q0 -32 21.5 -52t55.5 -20z" />
    <glyph glyph-name="dieresis" unicode="&#xa8;" horiz-adv-x="500" 
d="M369 598q-38 0 -61.5 22t-23.5 58q0 35 24 57.5t61 22.5q38 0 62 -22.5t24 -57.5q0 -36 -24 -58t-62 -22zM131 598q-38 0 -62 22t-24 58q0 35 24.5 57.5t61.5 22.5q38 0 61.5 -22.5t23.5 -57.5q0 -36 -23.5 -58t-61.5 -22z" />
    <glyph glyph-name="copyright" unicode="&#xa9;" horiz-adv-x="794" 
d="M397 23q-79 0 -146.5 26.5t-116.5 74.5t-76.5 113t-27.5 143t27.5 143t76.5 113t116.5 74.5t146.5 26.5q80 0 146.5 -26.5t116 -74.5t76.5 -113t27 -143t-27 -143t-76.5 -113t-116 -74.5t-146.5 -26.5zM397 113q79 0 139.5 34.5t95 94.5t34.5 138t-34.5 138.5t-95 94.5
t-139.5 34q-78 0 -139 -34t-96 -94.5t-35 -138.5t35 -138t96 -94.5t139 -34.5zM409 190q-92 0 -146.5 50.5t-54.5 138.5q0 59 26 103t72.5 68.5t108.5 24.5q32 0 65.5 -7t55.5 -20l-17 -113q-21 8 -45.5 13.5t-45.5 5.5q-37 0 -60 -20t-23 -52q0 -34 24 -52.5t67 -18.5
q20 0 43.5 5.5t45.5 15.5l15 -113q-24 -14 -58.5 -21.5t-72.5 -7.5z" />
    <glyph glyph-name="ordfeminine" unicode="&#xaa;" horiz-adv-x="479" 
d="M206 372q-48 0 -86 25.5t-59.5 70t-21.5 101.5q0 54 22 97t60 68.5t84 25.5q31 0 59 -13t45 -35l1 37h130v-365h-127l-2 43q-16 -26 -44 -40.5t-61 -14.5zM243 495q29 0 47.5 20t18.5 52t-18 52t-48 20q-29 0 -47.5 -20t-18.5 -52t18 -52t48 -20zM55 191v117h383v-117
h-383z" />
    <glyph glyph-name="guillemotleft" unicode="&#xab;" horiz-adv-x="672" 
d="M176 34l-152 223l152 223h192l-158 -223l158 -223h-192zM454 34l-152 223l152 223h192l-158 -223l158 -223h-192z" />
    <glyph glyph-name="logicalnot" unicode="&#xac;" horiz-adv-x="646" 
d="M413 153v144h-316v149h476v-293h-160z" />
    <glyph glyph-name="uni00AD" unicode="&#xad;" horiz-adv-x="419" 
d="M49 214v147h320v-147h-320z" />
    <glyph glyph-name="registered" unicode="&#xae;" horiz-adv-x="511" 
d="M255 382q-66 0 -118 29t-82 80t-30 115q0 65 30 115.5t82 79.5t118 29q67 0 118.5 -29t81.5 -79.5t30 -115.5q0 -64 -30 -115t-81.5 -80t-118.5 -29zM255 443q74 0 118.5 45t44.5 118q0 74 -44.5 118.5t-118.5 44.5q-73 0 -117.5 -44.5t-44.5 -118.5q0 -73 44.5 -118
t117.5 -45zM164 503v214h92q94 0 94 -75q0 -41 -30 -59l42 -80h-78l-23 56h-27v-56h-70zM249 662h-15v-47h15q30 0 30 23q0 24 -30 24z" />
    <glyph glyph-name="macron" unicode="&#xaf;" horiz-adv-x="500" 
d="M82 620v120h336v-120h-336z" />
    <glyph glyph-name="degree" unicode="&#xb0;" horiz-adv-x="485" 
d="M243 403q-55 0 -99 24t-69.5 66.5t-25.5 95.5q0 54 25.5 96t69.5 66.5t99 24.5t98.5 -24t69 -66.5t25.5 -96.5q0 -53 -25.5 -95t-69 -66.5t-98.5 -24.5zM243 517q30 0 49 20t19 52t-19 52.5t-49 20.5q-31 0 -50 -20.5t-19 -52.5t19 -52t50 -20z" />
    <glyph glyph-name="plusminus" unicode="&#xb1;" horiz-adv-x="646" 
d="M257 206v168h-163v146h163v167h156v-167h163v-146h-163v-168h-156zM94 0v149h482v-149h-482z" />
    <glyph glyph-name="uni00B2" unicode="&#xb2;" horiz-adv-x="398" 
d="M36 456v102q35 23 66 47t52 43q56 50 56 83q0 37 -49 37q-53 0 -103 -47l-21 101q23 23 65.5 37.5t83.5 14.5q71 0 113.5 -34t42.5 -91q0 -77 -82 -150q-21 -19 -43 -36h139v-107h-320z" />
    <glyph glyph-name="uni00B3" unicode="&#xb3;" horiz-adv-x="398" 
d="M174 446q-90 0 -137 28l10 100q26 -13 57 -20t59 -7q61 0 61 41q0 38 -58 38q-25 0 -43 -7l-27 64l96 81h-143v100h290v-92l-88 -73q47 -7 75.5 -38.5t28.5 -74.5q0 -64 -49 -102t-132 -38z" />
    <glyph glyph-name="acute" unicode="&#xb4;" horiz-adv-x="500" 
d="M118 610l106 170h193l-148 -170h-151z" />
    <glyph glyph-name="mu" unicode="&#xb5;" horiz-adv-x="625" 
d="M57 -245v761h181v-281q0 -90 69 -90q36 0 56 25.5t20 72.5v273h181v-516h-178l-2 61q-13 -34 -42.5 -55.5t-61.5 -21.5q-24 0 -42 13v-242h-181z" />
    <glyph glyph-name="paragraph" unicode="&#xb6;" horiz-adv-x="656" 
d="M211 -130v440q-93 17 -144 75t-51 147q0 106 71 167t195 61h307v-890h-147v748h-83v-748h-148z" />
    <glyph glyph-name="periodcentered" unicode="&#xb7;" horiz-adv-x="306" 
d="M153 283q-45 0 -73.5 27t-28.5 69t28.5 68.5t73.5 26.5t73.5 -26.5t28.5 -68.5t-28.5 -69t-73.5 -27z" />
    <glyph glyph-name="cedilla" unicode="&#xb8;" horiz-adv-x="500" 
d="M229 -267q-29 0 -61.5 6t-45.5 13l17 83q27 -11 65 -11q53 0 53 32q0 30 -55 30q-9 0 -17.5 -0.5t-14.5 -1.5l36 126h94l-19 -64q47 -4 75 -30t28 -68q0 -53 -42 -84t-113 -31z" />
    <glyph glyph-name="uni00B9" unicode="&#xb9;" horiz-adv-x="398" 
d="M161 456v279l-99 -45l-19 113l134 61h118v-408h-134z" />
    <glyph glyph-name="ordmasculine" unicode="&#xba;" horiz-adv-x="485" 
d="M242 374q-58 0 -104 25t-72.5 69t-26.5 99q0 56 26.5 99.5t72.5 68.5t104 25q59 0 105 -25t72.5 -68.5t26.5 -99.5q0 -55 -26.5 -99t-72.5 -69t-105 -25zM243 495q29 0 47.5 20t18.5 52t-18 52t-48 20q-29 0 -47.5 -20t-18.5 -52t18 -52t48 -20zM51 191v117h383v-117
h-383z" />
    <glyph glyph-name="guillemotright" unicode="&#xbb;" horiz-adv-x="672" 
d="M27 34l157 223l-157 223h192l151 -223l-151 -223h-192zM305 34l157 223l-157 223h192l151 -223l-151 -223h-192z" />
    <glyph glyph-name="onequarter" unicode="&#xbc;" horiz-adv-x="986" 
d="M185 0l507 744h142l-506 -744h-143zM802 0v75h-194v99l175 234h134v-238h44v-95h-44v-75h-115zM716 170h86v115zM161 336v279l-99 -45l-19 113l134 61h118v-408h-134z" />
    <glyph glyph-name="onehalf" unicode="&#xbd;" horiz-adv-x="986" 
d="M148 0l507 744h142l-506 -744h-143zM624 0v102q35 23 66 47t52 43q56 50 56 83q0 37 -49 37q-53 0 -103 -47l-21 101q23 23 65.5 37.5t83.5 14.5q71 0 113.5 -34t42.5 -91q0 -77 -82 -150q-21 -19 -43 -36h139v-107h-320zM161 336v279l-99 -45l-19 113l134 61h118v-408
h-134z" />
    <glyph glyph-name="threequarters" unicode="&#xbe;" horiz-adv-x="986" 
d="M186 0l507 744h142l-506 -744h-143zM802 0v75h-194v99l175 234h134v-238h44v-95h-44v-75h-115zM716 170h86v115zM174 326q-90 0 -137 28l10 100q26 -13 57 -20t59 -7q61 0 61 41q0 38 -58 38q-25 0 -43 -7l-27 64l96 81h-143v100h290v-92l-88 -73q47 -7 75.5 -38.5
t28.5 -74.5q0 -64 -49 -102t-132 -38z" />
    <glyph glyph-name="questiondown" unicode="&#xbf;" horiz-adv-x="544" 
d="M293 331q-43 0 -73 26t-30 69q0 44 30 70t73 26t72.5 -26t29.5 -70q0 -43 -29.5 -69t-72.5 -26zM270 -283q-71 0 -125.5 25.5t-85.5 72t-31 108.5q0 46 14 79t36 57.5t46 45.5q29 26 53 53.5t31 67.5q2 7 3 13.5t1 14.5h162q3 -12 3 -29q0 -51 -14.5 -87t-36 -61
t-43.5 -44q-24 -22 -42 -43t-18 -50q0 -30 22 -47t62 -17q47 0 93.5 23.5t78.5 58.5l42 -146q-35 -40 -100 -67.5t-151 -27.5z" />
    <glyph glyph-name="Agrave" unicode="&#xc0;" horiz-adv-x="847" 
d="M21 0l298 760h209l298 -760h-212l-59 177h-276l-59 -177h-199zM329 328h176l-88 267zM376 835l-163 154h210l117 -154h-164z" />
    <glyph glyph-name="Aacute" unicode="&#xc1;" horiz-adv-x="847" 
d="M21 0l298 760h209l298 -760h-212l-59 177h-276l-59 -177h-199zM329 328h176l-88 267zM301 835l117 154h211l-164 -154h-164z" />
    <glyph glyph-name="Acircumflex" unicode="&#xc2;" horiz-adv-x="847" 
d="M21 0l298 760h209l298 -760h-212l-59 177h-276l-59 -177h-199zM329 328h176l-88 267zM190 835l143 157h180l143 -157h-173l-60 69l-60 -69h-173z" />
    <glyph glyph-name="Atilde" unicode="&#xc3;" horiz-adv-x="847" 
d="M21 0l298 760h209l298 -760h-212l-59 177h-276l-59 -177h-199zM329 328h176l-88 267zM504 831q-36 0 -59.5 13t-41.5 26t-36 13q-29 0 -29 -50h-116q0 172 120 172q36 0 60 -13t42 -25.5t36 -12.5q28 0 28 50h116q0 -173 -120 -173z" />
    <glyph glyph-name="Adieresis" unicode="&#xc4;" horiz-adv-x="847" 
d="M21 0l298 760h209l298 -760h-212l-59 177h-276l-59 -177h-199zM329 328h176l-88 267zM543 832q-38 0 -63 23t-25 60t25 60t63 23q40 0 65 -23t25 -60t-25 -60t-65 -23zM302 832q-39 0 -64 23t-25 60t25 60t64 23t64 -23t25 -60t-25 -60t-64 -23z" />
    <glyph glyph-name="Aring" unicode="&#xc5;" horiz-adv-x="847" 
d="M21 0l298 760h209l298 -760h-212l-59 177h-276l-59 -177h-199zM329 328h176l-88 267zM423 816q-43 0 -76.5 18.5t-53 50.5t-19.5 72q0 41 19.5 72.5t53 49.5t76.5 18t76.5 -18t53 -49.5t19.5 -72.5q0 -40 -19.5 -72t-53 -50.5t-76.5 -18.5zM423 902q25 0 39.5 15t14.5 40
q0 24 -14.5 39t-39.5 15t-39.5 -15t-14.5 -39q0 -25 14.5 -40t39.5 -15z" />
    <glyph glyph-name="AE" unicode="&#xc6;" horiz-adv-x="1127" 
d="M6 0l445 760h605v-153h-343v-146h314v-153h-314v-155h358v-153h-543v177h-225l-92 -177h-205zM381 328h147v282z" />
    <glyph glyph-name="Ccedilla" unicode="&#xc7;" horiz-adv-x="759" 
d="M456 -11q-127 0 -219.5 47.5t-142.5 134.5t-50 207q0 87 30.5 159t86 124.5t132 81t168.5 28.5q65 0 130.5 -16t110.5 -43l-32 -167q-47 23 -98 36t-98 13q-102 0 -161.5 -58.5t-59.5 -156.5t59.5 -155.5t162.5 -57.5q48 0 106 16.5t106 43.5l21 -175q-46 -28 -115 -45
t-137 -17zM381 -267q-26 0 -55.5 5.5t-42.5 13.5l17 87q27 -12 63 -12q50 0 50 29q0 28 -53 28q-8 0 -17 -0.5t-14 -2.5l36 129h100l-18 -61q46 -4 75 -31t29 -67q0 -58 -43.5 -88t-126.5 -30z" />
    <glyph glyph-name="Egrave" unicode="&#xc8;" horiz-adv-x="679" 
d="M79 0v760h529v-153h-344v-146h303v-153h-303v-155h358v-153h-543zM305 835l-163 154h210l117 -154h-164z" />
    <glyph glyph-name="Eacute" unicode="&#xc9;" horiz-adv-x="679" 
d="M79 0v760h529v-153h-344v-146h303v-153h-303v-155h358v-153h-543zM230 835l117 154h211l-164 -154h-164z" />
    <glyph glyph-name="Ecircumflex" unicode="&#xca;" horiz-adv-x="679" 
d="M79 0v760h529v-153h-344v-146h303v-153h-303v-155h358v-153h-543zM119 835l143 157h180l143 -157h-173l-60 69l-60 -69h-173z" />
    <glyph glyph-name="Edieresis" unicode="&#xcb;" horiz-adv-x="679" 
d="M79 0v760h529v-153h-344v-146h303v-153h-303v-155h358v-153h-543zM472 832q-38 0 -63 23t-25 60t25 60t63 23q40 0 65 -23t25 -60t-25 -60t-65 -23zM231 832q-39 0 -64 23t-25 60t25 60t64 23t64 -23t25 -60t-25 -60t-64 -23z" />
    <glyph glyph-name="Igrave" unicode="&#xcc;" horiz-adv-x="362" 
d="M79 0v760h203v-760h-203zM134 835l-163 154h210l117 -154h-164z" />
    <glyph glyph-name="Iacute" unicode="&#xcd;" horiz-adv-x="362" 
d="M79 0v760h203v-760h-203zM59 835l117 154h211l-164 -154h-164z" />
    <glyph glyph-name="Icircumflex" unicode="&#xce;" horiz-adv-x="362" 
d="M79 0v760h203v-760h-203zM-52 835l143 157h180l143 -157h-173l-60 69l-60 -69h-173z" />
    <glyph glyph-name="Idieresis" unicode="&#xcf;" horiz-adv-x="362" 
d="M79 0v760h203v-760h-203zM301 832q-38 0 -63 23t-25 60t25 60t63 23q40 0 65 -23t25 -60t-25 -60t-65 -23zM60 832q-39 0 -64 23t-25 60t25 60t64 23t64 -23t25 -60t-25 -60t-64 -23z" />
    <glyph glyph-name="Eth" unicode="&#xd0;" horiz-adv-x="881" 
d="M103 0v320h-82v125h82v315h304q208 0 319.5 -98.5t111.5 -281.5q0 -120 -51.5 -205t-149 -130t-235.5 -45h-299zM439 320h-136v-161h91q235 0 235 221t-234 221h-92v-156h136v-125z" />
    <glyph glyph-name="Ntilde" unicode="&#xd1;" horiz-adv-x="861" 
d="M79 0v760h173l346 -464v464h184v-760h-173l-346 465v-465h-184zM502 831q-36 0 -59.5 13t-41.5 26t-36 13q-29 0 -29 -50h-116q0 172 120 172q36 0 60 -13t42 -25.5t36 -12.5q28 0 28 50h116q0 -173 -120 -173z" />
    <glyph glyph-name="Ograve" unicode="&#xd2;" horiz-adv-x="912" 
d="M456 -16q-90 0 -165.5 29t-130.5 82t-85.5 125.5t-30.5 159.5q0 84 31 156.5t87 126t131 83.5t163 30q90 0 165.5 -29t130.5 -82t85.5 -125.5t30.5 -159.5q0 -84 -31 -156.5t-87 -126t-131 -83.5t-163 -30zM456 161q59 0 105 28t72 77.5t26 112.5q0 64 -26 113.5
t-71.5 78t-105.5 28.5q-59 0 -105 -28t-72 -77t-26 -113t26 -113.5t72 -78t105 -28.5zM409 835l-163 154h210l117 -154h-164z" />
    <glyph glyph-name="Oacute" unicode="&#xd3;" horiz-adv-x="912" 
d="M456 -16q-90 0 -165.5 29t-130.5 82t-85.5 125.5t-30.5 159.5q0 84 31 156.5t87 126t131 83.5t163 30q90 0 165.5 -29t130.5 -82t85.5 -125.5t30.5 -159.5q0 -84 -31 -156.5t-87 -126t-131 -83.5t-163 -30zM456 161q59 0 105 28t72 77.5t26 112.5q0 64 -26 113.5
t-71.5 78t-105.5 28.5q-59 0 -105 -28t-72 -77t-26 -113t26 -113.5t72 -78t105 -28.5zM334 835l117 154h211l-164 -154h-164z" />
    <glyph glyph-name="Ocircumflex" unicode="&#xd4;" horiz-adv-x="912" 
d="M456 -16q-90 0 -165.5 29t-130.5 82t-85.5 125.5t-30.5 159.5q0 84 31 156.5t87 126t131 83.5t163 30q90 0 165.5 -29t130.5 -82t85.5 -125.5t30.5 -159.5q0 -84 -31 -156.5t-87 -126t-131 -83.5t-163 -30zM456 161q59 0 105 28t72 77.5t26 112.5q0 64 -26 113.5
t-71.5 78t-105.5 28.5q-59 0 -105 -28t-72 -77t-26 -113t26 -113.5t72 -78t105 -28.5zM223 835l143 157h180l143 -157h-173l-60 69l-60 -69h-173z" />
    <glyph glyph-name="Otilde" unicode="&#xd5;" horiz-adv-x="912" 
d="M456 -16q-90 0 -165.5 29t-130.5 82t-85.5 125.5t-30.5 159.5q0 84 31 156.5t87 126t131 83.5t163 30q90 0 165.5 -29t130.5 -82t85.5 -125.5t30.5 -159.5q0 -84 -31 -156.5t-87 -126t-131 -83.5t-163 -30zM456 161q59 0 105 28t72 77.5t26 112.5q0 64 -26 113.5
t-71.5 78t-105.5 28.5q-59 0 -105 -28t-72 -77t-26 -113t26 -113.5t72 -78t105 -28.5zM537 831q-36 0 -59.5 13t-41.5 26t-36 13q-29 0 -29 -50h-116q0 172 120 172q36 0 60 -13t42 -25.5t36 -12.5q28 0 28 50h116q0 -173 -120 -173z" />
    <glyph glyph-name="Odieresis" unicode="&#xd6;" horiz-adv-x="912" 
d="M456 -16q-90 0 -165.5 29t-130.5 82t-85.5 125.5t-30.5 159.5q0 84 31 156.5t87 126t131 83.5t163 30q90 0 165.5 -29t130.5 -82t85.5 -125.5t30.5 -159.5q0 -84 -31 -156.5t-87 -126t-131 -83.5t-163 -30zM456 161q59 0 105 28t72 77.5t26 112.5q0 64 -26 113.5
t-71.5 78t-105.5 28.5q-59 0 -105 -28t-72 -77t-26 -113t26 -113.5t72 -78t105 -28.5zM576 832q-38 0 -63 23t-25 60t25 60t63 23q40 0 65 -23t25 -60t-25 -60t-65 -23zM335 832q-39 0 -64 23t-25 60t25 60t64 23t64 -23t25 -60t-25 -60t-64 -23z" />
    <glyph glyph-name="multiply" unicode="&#xd7;" horiz-adv-x="646" 
d="M201 108l-100 100l132 132l-132 132l103 102l132 -131l132 131l100 -100l-132 -131l133 -132l-105 -103l-131 132z" />
    <glyph glyph-name="Oslash" unicode="&#xd8;" horiz-adv-x="912" 
d="M122 -24l-81 80l82 80q-38 49 -58.5 111t-20.5 133q0 84 31 156.5t87 126t131 83.5t163 30q72 0 135.5 -19t113.5 -54l84 81l82 -80l-82 -80q37 -49 58 -111t21 -133q0 -84 -31 -156.5t-87 -126t-131 -83.5t-163 -30q-72 0 -135.5 19t-114.5 55zM253 381q0 -54 19 -100
l294 286q-48 32 -110 32q-59 0 -105 -28t-72 -77t-26 -113zM456 161q59 0 105 28t72 77.5t26 112.5q0 54 -20 100l-294 -286q49 -32 111 -32z" />
    <glyph glyph-name="Ugrave" unicode="&#xd9;" horiz-adv-x="849" 
d="M424 -16q-168 0 -259 89.5t-91 255.5v431h203v-417q0 -182 147 -182t147 182v417h203v-431q0 -166 -90.5 -255.5t-259.5 -89.5zM377 835l-163 154h210l117 -154h-164z" />
    <glyph glyph-name="Uacute" unicode="&#xda;" horiz-adv-x="849" 
d="M424 -16q-168 0 -259 89.5t-91 255.5v431h203v-417q0 -182 147 -182t147 182v417h203v-431q0 -166 -90.5 -255.5t-259.5 -89.5zM302 835l117 154h211l-164 -154h-164z" />
    <glyph glyph-name="Ucircumflex" unicode="&#xdb;" horiz-adv-x="849" 
d="M424 -16q-168 0 -259 89.5t-91 255.5v431h203v-417q0 -182 147 -182t147 182v417h203v-431q0 -166 -90.5 -255.5t-259.5 -89.5zM191 835l143 157h180l143 -157h-173l-60 69l-60 -69h-173z" />
    <glyph glyph-name="Udieresis" unicode="&#xdc;" horiz-adv-x="849" 
d="M424 -16q-168 0 -259 89.5t-91 255.5v431h203v-417q0 -182 147 -182t147 182v417h203v-431q0 -166 -90.5 -255.5t-259.5 -89.5zM544 832q-38 0 -63 23t-25 60t25 60t63 23q40 0 65 -23t25 -60t-25 -60t-65 -23zM303 832q-39 0 -64 23t-25 60t25 60t64 23t64 -23t25 -60
t-25 -60t-64 -23z" />
    <glyph glyph-name="Yacute" unicode="&#xdd;" horiz-adv-x="764" 
d="M282 0v309l-274 451h223l154 -302l154 302h217l-275 -451v-309h-199zM260 835l117 154h211l-164 -154h-164z" />
    <glyph glyph-name="Thorn" unicode="&#xde;" horiz-adv-x="683" 
d="M79 0v760h186v-110h91q92 0 158.5 -31.5t102.5 -89.5t36 -138q0 -122 -79 -191.5t-218 -69.5h-91v-130h-186zM326 503h-61v-226h61q132 0 132 113t-132 113z" />
    <glyph glyph-name="germandbls" unicode="&#xdf;" horiz-adv-x="693" 
d="M411 -16q-82 0 -131 27l16 144q15 -8 40 -14t46 -6q47 0 74.5 27t27.5 72q0 47 -32 73t-91 26h-47v142h20q50 0 77 25.5t27 71.5q0 43 -25.5 67t-69.5 24q-108 0 -108 -141v-522h-174v525q0 139 74 214.5t209 75.5q82 0 141.5 -27t92 -75.5t32.5 -115.5q0 -55 -26.5 -101
t-71.5 -65q67 -20 106 -75.5t39 -132.5q0 -111 -65.5 -175t-180.5 -64z" />
    <glyph glyph-name="agrave" unicode="&#xe0;" horiz-adv-x="657" 
d="M265 -16q-67 0 -118.5 34.5t-80.5 96t-29 141.5q0 79 31 141t84 98.5t119 36.5q50 0 90 -21.5t62 -60.5l2 66h171v-516h-171l-2 66q-23 -39 -64 -60.5t-94 -21.5zM321 145q45 0 74 32t29 81q0 50 -29 81.5t-74 31.5q-46 0 -75 -31.5t-29 -81.5q0 -49 29 -81t75 -32z
M298 610l-149 170h194l105 -170h-150z" />
    <glyph glyph-name="aacute" unicode="&#xe1;" horiz-adv-x="657" 
d="M265 -16q-67 0 -118.5 34.5t-80.5 96t-29 141.5q0 79 31 141t84 98.5t119 36.5q50 0 90 -21.5t62 -60.5l2 66h171v-516h-171l-2 66q-23 -39 -64 -60.5t-94 -21.5zM321 145q45 0 74 32t29 81q0 50 -29 81.5t-74 31.5q-46 0 -75 -31.5t-29 -81.5q0 -49 29 -81t75 -32z
M232 610l106 170h193l-148 -170h-151z" />
    <glyph glyph-name="acircumflex" unicode="&#xe2;" horiz-adv-x="657" 
d="M265 -16q-67 0 -118.5 34.5t-80.5 96t-29 141.5q0 79 31 141t84 98.5t119 36.5q50 0 90 -21.5t62 -60.5l2 66h171v-516h-171l-2 66q-23 -39 -64 -60.5t-94 -21.5zM321 145q45 0 74 32t29 81q0 50 -29 81.5t-74 31.5q-46 0 -75 -31.5t-29 -81.5q0 -49 29 -81t75 -32z
M124 610l137 170h158l137 -170h-154l-62 77l-62 -77h-154z" />
    <glyph glyph-name="atilde" unicode="&#xe3;" horiz-adv-x="657" 
d="M265 -16q-67 0 -118.5 34.5t-80.5 96t-29 141.5q0 79 31 141t84 98.5t119 36.5q50 0 90 -21.5t62 -60.5l2 66h171v-516h-171l-2 66q-23 -39 -64 -60.5t-94 -21.5zM321 145q45 0 74 32t29 81q0 50 -29 81.5t-74 31.5q-46 0 -75 -31.5t-29 -81.5q0 -49 29 -81t75 -32z
M426 607q-38 0 -62.5 13.5t-42.5 27t-38 13.5q-29 0 -29 -52h-113q0 168 114 168q38 0 62.5 -13.5t42.5 -27t37 -13.5q29 0 29 52h113q0 -168 -113 -168z" />
    <glyph glyph-name="adieresis" unicode="&#xe4;" horiz-adv-x="657" 
d="M265 -16q-67 0 -118.5 34.5t-80.5 96t-29 141.5q0 79 31 141t84 98.5t119 36.5q50 0 90 -21.5t62 -60.5l2 66h171v-516h-171l-2 66q-23 -39 -64 -60.5t-94 -21.5zM321 145q45 0 74 32t29 81q0 50 -29 81.5t-74 31.5q-46 0 -75 -31.5t-29 -81.5q0 -49 29 -81t75 -32z
M459 598q-38 0 -61.5 22t-23.5 58q0 35 24 57.5t61 22.5q38 0 62 -22.5t24 -57.5q0 -36 -24 -58t-62 -22zM221 598q-38 0 -62 22t-24 58q0 35 24.5 57.5t61.5 22.5q38 0 61.5 -22.5t23.5 -57.5q0 -36 -23.5 -58t-61.5 -22z" />
    <glyph glyph-name="aring" unicode="&#xe5;" horiz-adv-x="657" 
d="M265 -16q-67 0 -118.5 34.5t-80.5 96t-29 141.5q0 79 31 141t84 98.5t119 36.5q50 0 90 -21.5t62 -60.5l2 66h171v-516h-171l-2 66q-23 -39 -64 -60.5t-94 -21.5zM321 145q45 0 74 32t29 81q0 50 -29 81.5t-74 31.5q-46 0 -75 -31.5t-29 -81.5q0 -49 29 -81t75 -32z
M340 571q-43 0 -76.5 18.5t-53 50.5t-19.5 72q0 41 19.5 72.5t53 50t76.5 18.5t76.5 -18.5t53 -50t19.5 -72.5q0 -40 -19.5 -72t-53 -50.5t-76.5 -18.5zM340 658q25 0 39.5 15t14.5 39q0 25 -14.5 39.5t-39.5 14.5t-39.5 -14.5t-14.5 -39.5q0 -24 14.5 -39t39.5 -15z" />
    <glyph glyph-name="ae" unicode="&#xe6;" horiz-adv-x="988" 
d="M264 -16q-67 0 -118 34.5t-80 96t-29 141.5q0 79 31 141.5t84 98.5t120 36q46 0 85 -21t62 -58l2 63h144l1 -50q24 32 63.5 49t86.5 17q69 0 120.5 -32t80 -89.5t28.5 -134.5q0 -16 -0.5 -30t-2.5 -29h-344q13 -52 51.5 -75.5t105.5 -23.5q44 0 87.5 9.5t80.5 25.5
l16 -130q-32 -17 -82.5 -28t-95.5 -11q-67 0 -118 18t-76 51l-2 -53h-144l-2 64q-23 -39 -63 -59.5t-92 -20.5zM689 409q-77 0 -93 -94h182q-1 10 -3 19q-7 35 -28.5 55t-57.5 20zM321 145q45 0 74 32t29 81q0 50 -29 81.5t-74 31.5q-46 0 -75 -31.5t-29 -81.5q0 -49 29 -81
t75 -32z" />
    <glyph glyph-name="ccedilla" unicode="&#xe7;" horiz-adv-x="543" 
d="M323 -14q-87 0 -151 33.5t-99.5 94.5t-35.5 142t36 143t100.5 96.5t148.5 34.5q47 0 96.5 -11t81.5 -28l-22 -151q-34 15 -67 22t-65 7q-61 0 -95 -29t-34 -82q0 -52 35 -81t97 -29q64 0 135 29l18 -148q-35 -20 -82.5 -31.5t-96.5 -11.5zM274 -267q-29 0 -61.5 6
t-45.5 13l17 83q27 -11 65 -11q53 0 53 32q0 30 -55 30q-9 0 -17.5 -0.5t-14.5 -1.5l36 126h94l-19 -64q47 -4 75 -30t28 -68q0 -53 -42 -84t-113 -31z" />
    <glyph glyph-name="egrave" unicode="&#xe8;" horiz-adv-x="603" 
d="M348 -16q-97 0 -166.5 33t-107 94.5t-37.5 146.5q0 81 34 143t95 96.5t141 34.5q78 0 135 -31.5t87.5 -89t30.5 -137.5q0 -14 -1 -28t-3 -29h-343q12 -52 51.5 -75.5t107.5 -23.5q42 0 86.5 9.5t78.5 25.5l16 -130q-42 -19 -95.5 -29t-109.5 -10zM304 409q-78 0 -94 -94
h182q0 11 -2 19q-7 35 -29 55t-57 20zM261 610l-149 170h194l105 -170h-150z" />
    <glyph glyph-name="eacute" unicode="&#xe9;" horiz-adv-x="603" 
d="M348 -16q-97 0 -166.5 33t-107 94.5t-37.5 146.5q0 81 34 143t95 96.5t141 34.5q78 0 135 -31.5t87.5 -89t30.5 -137.5q0 -14 -1 -28t-3 -29h-343q12 -52 51.5 -75.5t107.5 -23.5q42 0 86.5 9.5t78.5 25.5l16 -130q-42 -19 -95.5 -29t-109.5 -10zM304 409q-78 0 -94 -94
h182q0 11 -2 19q-7 35 -29 55t-57 20zM195 610l106 170h193l-148 -170h-151z" />
    <glyph glyph-name="ecircumflex" unicode="&#xea;" horiz-adv-x="603" 
d="M348 -16q-97 0 -166.5 33t-107 94.5t-37.5 146.5q0 81 34 143t95 96.5t141 34.5q78 0 135 -31.5t87.5 -89t30.5 -137.5q0 -14 -1 -28t-3 -29h-343q12 -52 51.5 -75.5t107.5 -23.5q42 0 86.5 9.5t78.5 25.5l16 -130q-42 -19 -95.5 -29t-109.5 -10zM304 409q-78 0 -94 -94
h182q0 11 -2 19q-7 35 -29 55t-57 20zM87 610l137 170h158l137 -170h-154l-62 77l-62 -77h-154z" />
    <glyph glyph-name="edieresis" unicode="&#xeb;" horiz-adv-x="603" 
d="M348 -16q-97 0 -166.5 33t-107 94.5t-37.5 146.5q0 81 34 143t95 96.5t141 34.5q78 0 135 -31.5t87.5 -89t30.5 -137.5q0 -14 -1 -28t-3 -29h-343q12 -52 51.5 -75.5t107.5 -23.5q42 0 86.5 9.5t78.5 25.5l16 -130q-42 -19 -95.5 -29t-109.5 -10zM304 409q-78 0 -94 -94
h182q0 11 -2 19q-7 35 -29 55t-57 20zM422 598q-38 0 -61.5 22t-23.5 58q0 35 24 57.5t61 22.5q38 0 62 -22.5t24 -57.5q0 -36 -24 -58t-62 -22zM184 598q-38 0 -62 22t-24 58q0 35 24.5 57.5t61.5 22.5q38 0 61.5 -22.5t23.5 -57.5q0 -36 -23.5 -58t-61.5 -22z" />
    <glyph glyph-name="igrave" unicode="&#xec;" horiz-adv-x="303" 
d="M61 0v516h181v-516h-181zM109 610l-149 170h194l105 -170h-150z" />
    <glyph glyph-name="iacute" unicode="&#xed;" horiz-adv-x="303" 
d="M61 0v516h181v-516h-181zM43 610l106 170h193l-148 -170h-151z" />
    <glyph glyph-name="icircumflex" unicode="&#xee;" horiz-adv-x="303" 
d="M61 0v516h181v-516h-181zM-65 610l137 170h158l137 -170h-154l-62 77l-62 -77h-154z" />
    <glyph glyph-name="idieresis" unicode="&#xef;" horiz-adv-x="303" 
d="M61 0v516h181v-516h-181zM270 598q-38 0 -61.5 22t-23.5 58q0 35 24 57.5t61 22.5q38 0 62 -22.5t24 -57.5q0 -36 -24 -58t-62 -22zM32 598q-38 0 -62 22t-24 58q0 35 24.5 57.5t61.5 22.5q38 0 61.5 -22.5t23.5 -57.5q0 -36 -23.5 -58t-61.5 -22z" />
    <glyph glyph-name="eth" unicode="&#xf0;" horiz-adv-x="641" 
d="M314 -16q-81 0 -143.5 34t-98 94.5t-35.5 139.5q0 74 32 133.5t86.5 95t121.5 35.5q65 0 109 -35q-14 33 -34 66.5t-44 66.5l-159 -62l-33 86l129 51q-57 60 -122 109l213 14q35 -30 65 -62l120 47l33 -86l-90 -35q66 -86 102.5 -182t36.5 -198q0 -149 -75.5 -230.5
t-213.5 -81.5zM321 142q47 0 76 31t29 79q0 49 -29 79.5t-76 30.5t-76 -30.5t-29 -79.5q0 -48 29 -79t76 -31z" />
    <glyph glyph-name="ntilde" unicode="&#xf1;" horiz-adv-x="625" 
d="M61 0v516h178l2 -64q20 38 59 59t90 21q87 0 132.5 -55.5t45.5 -162.5v-314h-181v280q0 91 -69 91q-37 0 -56.5 -25.5t-19.5 -72.5v-273h-181zM402 607q-38 0 -62.5 13.5t-42.5 27t-38 13.5q-29 0 -29 -52h-113q0 168 114 168q38 0 62.5 -13.5t42.5 -27t37 -13.5
q29 0 29 52h113q0 -168 -113 -168z" />
    <glyph glyph-name="ograve" unicode="&#xf2;" horiz-adv-x="641" 
d="M321 -16q-82 0 -146 35.5t-101 97.5t-37 141t37 141t101.5 97.5t145.5 35.5q82 0 146 -35.5t101 -97t37 -141.5q0 -79 -37 -141t-101.5 -97.5t-145.5 -35.5zM321 145q45 0 74 32t29 81q0 50 -29 81.5t-74 31.5q-46 0 -75 -31.5t-29 -81.5q0 -49 29 -81t75 -32zM279 610
l-149 170h194l105 -170h-150z" />
    <glyph glyph-name="oacute" unicode="&#xf3;" horiz-adv-x="641" 
d="M321 -16q-82 0 -146 35.5t-101 97.5t-37 141t37 141t101.5 97.5t145.5 35.5q82 0 146 -35.5t101 -97t37 -141.5q0 -79 -37 -141t-101.5 -97.5t-145.5 -35.5zM321 145q45 0 74 32t29 81q0 50 -29 81.5t-74 31.5q-46 0 -75 -31.5t-29 -81.5q0 -49 29 -81t75 -32zM213 610
l106 170h193l-148 -170h-151z" />
    <glyph glyph-name="ocircumflex" unicode="&#xf4;" horiz-adv-x="641" 
d="M321 -16q-82 0 -146 35.5t-101 97.5t-37 141t37 141t101.5 97.5t145.5 35.5q82 0 146 -35.5t101 -97t37 -141.5q0 -79 -37 -141t-101.5 -97.5t-145.5 -35.5zM321 145q45 0 74 32t29 81q0 50 -29 81.5t-74 31.5q-46 0 -75 -31.5t-29 -81.5q0 -49 29 -81t75 -32zM105 610
l137 170h158l137 -170h-154l-62 77l-62 -77h-154z" />
    <glyph glyph-name="otilde" unicode="&#xf5;" horiz-adv-x="641" 
d="M321 -16q-82 0 -146 35.5t-101 97.5t-37 141t37 141t101.5 97.5t145.5 35.5q82 0 146 -35.5t101 -97t37 -141.5q0 -79 -37 -141t-101.5 -97.5t-145.5 -35.5zM321 145q45 0 74 32t29 81q0 50 -29 81.5t-74 31.5q-46 0 -75 -31.5t-29 -81.5q0 -49 29 -81t75 -32zM407 607
q-38 0 -62.5 13.5t-42.5 27t-38 13.5q-29 0 -29 -52h-113q0 168 114 168q38 0 62.5 -13.5t42.5 -27t37 -13.5q29 0 29 52h113q0 -168 -113 -168z" />
    <glyph glyph-name="odieresis" unicode="&#xf6;" horiz-adv-x="641" 
d="M321 -16q-82 0 -146 35.5t-101 97.5t-37 141t37 141t101.5 97.5t145.5 35.5q82 0 146 -35.5t101 -97t37 -141.5q0 -79 -37 -141t-101.5 -97.5t-145.5 -35.5zM321 145q45 0 74 32t29 81q0 50 -29 81.5t-74 31.5q-46 0 -75 -31.5t-29 -81.5q0 -49 29 -81t75 -32zM440 598
q-38 0 -61.5 22t-23.5 58q0 35 24 57.5t61 22.5q38 0 62 -22.5t24 -57.5q0 -36 -24 -58t-62 -22zM202 598q-38 0 -62 22t-24 58q0 35 24.5 57.5t61.5 22.5q38 0 61.5 -22.5t23.5 -57.5q0 -36 -23.5 -58t-61.5 -22z" />
    <glyph glyph-name="divide" unicode="&#xf7;" horiz-adv-x="646" 
d="M335 462q-37 0 -60.5 21t-23.5 55t23.5 55t60.5 21q38 0 61 -21t23 -55t-23 -55t-61 -21zM94 267v138h482v-138h-482zM335 57q-37 0 -60.5 21.5t-23.5 54.5q0 35 23.5 56t60.5 21q38 0 61 -21t23 -56q0 -33 -23 -54.5t-61 -21.5z" />
    <glyph glyph-name="oslash" unicode="&#xf8;" horiz-adv-x="641" 
d="M95 -22l-61 60l56 55q-25 33 -39 75t-14 90q0 79 37 141t101.5 97.5t145.5 35.5q48 0 91 -13t77 -36l57 55l60 -60l-55 -54q26 -34 40 -76t14 -90q0 -79 -37 -141t-101.5 -97.5t-145.5 -35.5q-49 0 -91.5 13t-77.5 37zM192 258q0 -31 9 -57l185 181q-29 16 -65 16
q-57 0 -93 -39t-36 -101zM321 118q57 0 93 39t36 101q0 31 -10 58l-185 -181q29 -17 66 -17z" />
    <glyph glyph-name="ugrave.alt" unicode="&#xf9;" horiz-adv-x="624" 
d="M231 -16q-85 0 -130 54.5t-45 159.5v318h182v-281q0 -46 16.5 -68t52.5 -22t55.5 25.5t19.5 72.5v273h181v-516h-178l-2 64q-20 -38 -59.5 -59t-92.5 -21zM264 610l-149 170h194l105 -170h-150z" />
    <glyph glyph-name="uacute.alt" unicode="&#xfa;" horiz-adv-x="624" 
d="M231 -16q-85 0 -130 54.5t-45 159.5v318h182v-281q0 -46 16.5 -68t52.5 -22t55.5 25.5t19.5 72.5v273h181v-516h-178l-2 64q-20 -38 -59.5 -59t-92.5 -21zM198 610l106 170h193l-148 -170h-151z" />
    <glyph glyph-name="ucircumflex.alt" unicode="&#xfb;" horiz-adv-x="624" 
d="M231 -16q-85 0 -130 54.5t-45 159.5v318h182v-281q0 -46 16.5 -68t52.5 -22t55.5 25.5t19.5 72.5v273h181v-516h-178l-2 64q-20 -38 -59.5 -59t-92.5 -21zM90 610l137 170h158l137 -170h-154l-62 77l-62 -77h-154z" />
    <glyph glyph-name="udieresis.alt" unicode="&#xfc;" horiz-adv-x="624" 
d="M231 -16q-85 0 -130 54.5t-45 159.5v318h182v-281q0 -46 16.5 -68t52.5 -22t55.5 25.5t19.5 72.5v273h181v-516h-178l-2 64q-20 -38 -59.5 -59t-92.5 -21zM425 598q-38 0 -61.5 22t-23.5 58q0 35 24 57.5t61 22.5q38 0 62 -22.5t24 -57.5q0 -36 -24 -58t-62 -22zM187 598
q-38 0 -62 22t-24 58q0 35 24.5 57.5t61.5 22.5q38 0 61.5 -22.5t23.5 -57.5q0 -36 -23.5 -58t-61.5 -22z" />
    <glyph glyph-name="yacute" unicode="&#xfd;" horiz-adv-x="620" 
d="M96 -245l129 273l-212 488h199l105 -303l97 303h194l-330 -761h-182zM204 610l106 170h193l-148 -170h-151z" />
    <glyph glyph-name="thorn" unicode="&#xfe;" horiz-adv-x="657" 
d="M61 -245v1055h181v-349q50 71 150 71q67 0 118 -34.5t80.5 -96t29.5 -141.5q0 -78 -31 -140.5t-83.5 -99t-119.5 -36.5q-94 0 -144 68v-297h-181zM336 145q46 0 75 32t29 81q0 50 -29 81.5t-75 31.5t-75 -31.5t-29 -81.5q0 -49 29 -81t75 -32z" />
    <glyph glyph-name="ydieresis" unicode="&#xff;" horiz-adv-x="620" 
d="M96 -245l129 273l-212 488h199l105 -303l97 303h194l-330 -761h-182zM431 598q-38 0 -61.5 22t-23.5 58q0 35 24 57.5t61 22.5q38 0 62 -22.5t24 -57.5q0 -36 -24 -58t-62 -22zM193 598q-38 0 -62 22t-24 58q0 35 24.5 57.5t61.5 22.5q38 0 61.5 -22.5t23.5 -57.5
q0 -36 -23.5 -58t-61.5 -22z" />
    <glyph glyph-name="Amacron" unicode="&#x100;" horiz-adv-x="847" 
d="M21 0l298 760h209l298 -760h-212l-59 177h-276l-59 -177h-199zM329 328h176l-88 267zM252 840v123h343v-123h-343z" />
    <glyph glyph-name="amacron" unicode="&#x101;" horiz-adv-x="657" 
d="M265 -16q-67 0 -118.5 34.5t-80.5 96t-29 141.5q0 79 31 141t84 98.5t119 36.5q50 0 90 -21.5t62 -60.5l2 66h171v-516h-171l-2 66q-23 -39 -64 -60.5t-94 -21.5zM321 145q45 0 74 32t29 81q0 50 -29 81.5t-74 31.5q-46 0 -75 -31.5t-29 -81.5q0 -49 29 -81t75 -32z
M172 620v120h336v-120h-336z" />
    <glyph glyph-name="Abreve" unicode="&#x102;" horiz-adv-x="847" 
d="M21 0l298 760h209l298 -760h-212l-59 177h-276l-59 -177h-199zM329 328h176l-88 267zM423 816q-90 0 -142 43.5t-52 117.5q0 9 1 13h125v-8q2 -28 20 -44t48 -16t48.5 15.5t19.5 43.5v9h125q1 -4 1 -13q0 -74 -52 -117.5t-142 -43.5z" />
    <glyph glyph-name="abreve" unicode="&#x103;" horiz-adv-x="657" 
d="M265 -16q-67 0 -118.5 34.5t-80.5 96t-29 141.5q0 79 31 141t84 98.5t119 36.5q50 0 90 -21.5t62 -60.5l2 66h171v-516h-171l-2 66q-23 -39 -64 -60.5t-94 -21.5zM321 145q45 0 74 32t29 81q0 50 -29 81.5t-74 31.5q-46 0 -75 -31.5t-29 -81.5q0 -49 29 -81t75 -32z
M340 587q-88 0 -139 44t-51 120q0 10 1 14h118q0 -9 1 -12q5 -63 70 -63t70 62q1 4 1 13h118q1 -4 1 -14q0 -76 -50.5 -120t-139.5 -44z" />
    <glyph glyph-name="Aogonek" unicode="&#x104;" horiz-adv-x="847" 
d="M21 0l298 760h209l298 -760h-212l-59 177h-276l-59 -177h-199zM329 328h176l-88 267zM743 -264q-66 0 -102.5 30t-36.5 84q0 53 44 104t124 90l54 -44q-80 -59 -80 -105q0 -32 38 -32q20 0 38 10l11 -117q-13 -9 -38.5 -14.5t-51.5 -5.5z" />
    <glyph glyph-name="aogonek" unicode="&#x105;" horiz-adv-x="657" 
d="M265 -16q-67 0 -118.5 34.5t-80.5 96t-29 141.5q0 79 31 141t84 98.5t119 36.5q50 0 90 -21.5t62 -60.5l2 66h171v-516h-171l-2 66q-23 -39 -64 -60.5t-94 -21.5zM321 145q45 0 74 32t29 81q0 50 -29 81.5t-74 31.5q-46 0 -75 -31.5t-29 -81.5q0 -49 29 -81t75 -32z
M514 -264q-66 0 -102.5 30t-36.5 84q0 53 44 104t123 90l54 -44q-45 -32 -64.5 -57t-19.5 -49q0 -35 41 -35q11 0 21.5 2.5t19.5 6.5l9 -112q-13 -9 -38 -14.5t-51 -5.5z" />
    <glyph glyph-name="Cacute" unicode="&#x106;" horiz-adv-x="759" 
d="M456 -11q-127 0 -219.5 47.5t-142.5 134.5t-50 207q0 87 30.5 159t86 124.5t132 81t168.5 28.5q65 0 130.5 -16t110.5 -43l-32 -167q-47 23 -98 36t-98 13q-102 0 -161.5 -58.5t-59.5 -156.5t59.5 -155.5t162.5 -57.5q48 0 106 16.5t106 43.5l21 -175q-46 -28 -115 -45
t-137 -17zM296 835l117 154h211l-164 -154h-164z" />
    <glyph glyph-name="cacute" unicode="&#x107;" horiz-adv-x="543" 
d="M323 -14q-87 0 -151 33.5t-99.5 94.5t-35.5 142t36 143t100.5 96.5t148.5 34.5q47 0 96.5 -11t81.5 -28l-22 -151q-34 15 -67 22t-65 7q-61 0 -95 -29t-34 -82q0 -52 35 -81t97 -29q64 0 135 29l18 -148q-35 -20 -82.5 -31.5t-96.5 -11.5zM188 610l106 170h193l-148 -170
h-151z" />
    <glyph glyph-name="Cdotaccent" unicode="&#x10a;" horiz-adv-x="759" 
d="M456 -11q-127 0 -219.5 47.5t-142.5 134.5t-50 207q0 87 30.5 159t86 124.5t132 81t168.5 28.5q65 0 130.5 -16t110.5 -43l-32 -167q-47 23 -98 36t-98 13q-102 0 -161.5 -58.5t-59.5 -156.5t59.5 -155.5t162.5 -57.5q48 0 106 16.5t106 43.5l21 -175q-46 -28 -115 -45
t-137 -17zM418 829q-45 0 -72.5 26t-27.5 68q0 41 27.5 67.5t72.5 26.5t73 -26t28 -68q0 -41 -28 -67.5t-73 -26.5z" />
    <glyph glyph-name="cdotaccent" unicode="&#x10b;" horiz-adv-x="543" 
d="M323 -14q-87 0 -151 33.5t-99.5 94.5t-35.5 142t36 143t100.5 96.5t148.5 34.5q47 0 96.5 -11t81.5 -28l-22 -151q-34 15 -67 22t-65 7q-61 0 -95 -29t-34 -82q0 -52 35 -81t97 -29q64 0 135 29l18 -148q-35 -20 -82.5 -31.5t-96.5 -11.5zM296 596q-43 0 -68.5 24.5
t-25.5 64.5t25.5 64.5t68.5 24.5t69 -24t26 -65q0 -40 -26 -64.5t-69 -24.5z" />
    <glyph glyph-name="Ccaron" unicode="&#x10c;" horiz-adv-x="759" 
d="M456 -11q-127 0 -219.5 47.5t-142.5 134.5t-50 207q0 87 30.5 159t86 124.5t132 81t168.5 28.5q65 0 130.5 -16t110.5 -43l-32 -167q-47 23 -98 36t-98 13q-102 0 -161.5 -58.5t-59.5 -156.5t59.5 -155.5t162.5 -57.5q48 0 106 16.5t106 43.5l21 -175q-46 -28 -115 -45
t-137 -17zM328 835l-143 157h173l60 -69l60 69h173l-143 -157h-180z" />
    <glyph glyph-name="ccaron" unicode="&#x10d;" horiz-adv-x="543" 
d="M323 -14q-87 0 -151 33.5t-99.5 94.5t-35.5 142t36 143t100.5 96.5t148.5 34.5q47 0 96.5 -11t81.5 -28l-22 -151q-34 15 -67 22t-65 7q-61 0 -95 -29t-34 -82q0 -52 35 -81t97 -29q64 0 135 29l18 -148q-35 -20 -82.5 -31.5t-96.5 -11.5zM217 610l-137 170h154l62 -77
l62 77h154l-137 -170h-158z" />
    <glyph glyph-name="Dcaron" unicode="&#x10e;" horiz-adv-x="858" 
d="M79 0v760h304q209 0 320 -98.5t111 -281.5q0 -120 -51.5 -205t-149 -130t-235.5 -45h-299zM371 601h-92v-442h92q235 0 235 221t-235 221zM303 835l-143 157h173l60 -69l60 69h173l-143 -157h-180z" />
    <glyph glyph-name="dcaron" unicode="&#x10f;" horiz-adv-x="657" 
d="M265 -16q-67 0 -118.5 34.5t-80.5 96t-29 141.5q0 79 31 141t84 98.5t119 36.5q93 0 144 -70v348h181v-810h-171l-2 66q-49 -82 -158 -82zM321 145q45 0 74 32t29 81q0 50 -29 81.5t-74 31.5q-46 0 -75 -31.5t-29 -81.5q0 -49 29 -81t75 -32zM659 565l12 245h166
l-62 -245h-116z" />
    <glyph glyph-name="Dcroat" unicode="&#x110;" horiz-adv-x="881" 
d="M103 0v320h-82v125h82v315h304q208 0 319.5 -98.5t111.5 -281.5q0 -120 -51.5 -205t-149 -130t-235.5 -45h-299zM439 320h-136v-161h91q235 0 235 221t-234 221h-92v-156h136v-125z" />
    <glyph glyph-name="dcroat" unicode="&#x111;" horiz-adv-x="657" 
d="M265 -16q-67 0 -118.5 34.5t-80.5 96t-29 141.5q0 79 31 141t84 98.5t119 36.5q93 0 144 -70v145h-138v101h138v102h181v-102h73v-101h-73v-607h-171l-2 66q-49 -82 -158 -82zM321 145q45 0 74 32t29 81q0 50 -29 81.5t-74 31.5q-46 0 -75 -31.5t-29 -81.5q0 -49 29 -81
t75 -32z" />
    <glyph glyph-name="Emacron" unicode="&#x112;" horiz-adv-x="679" 
d="M79 0v760h529v-153h-344v-146h303v-153h-303v-155h358v-153h-543zM181 840v123h343v-123h-343z" />
    <glyph glyph-name="emacron" unicode="&#x113;" horiz-adv-x="603" 
d="M348 -16q-97 0 -166.5 33t-107 94.5t-37.5 146.5q0 81 34 143t95 96.5t141 34.5q78 0 135 -31.5t87.5 -89t30.5 -137.5q0 -14 -1 -28t-3 -29h-343q12 -52 51.5 -75.5t107.5 -23.5q42 0 86.5 9.5t78.5 25.5l16 -130q-42 -19 -95.5 -29t-109.5 -10zM304 409q-78 0 -94 -94
h182q0 11 -2 19q-7 35 -29 55t-57 20zM135 620v120h336v-120h-336z" />
    <glyph glyph-name="Edotaccent" unicode="&#x116;" horiz-adv-x="679" 
d="M79 0v760h529v-153h-344v-146h303v-153h-303v-155h358v-153h-543zM352 829q-45 0 -72.5 26t-27.5 68q0 41 27.5 67.5t72.5 26.5t73 -26t28 -68q0 -41 -28 -67.5t-73 -26.5z" />
    <glyph glyph-name="edotaccent" unicode="&#x117;" horiz-adv-x="603" 
d="M348 -16q-97 0 -166.5 33t-107 94.5t-37.5 146.5q0 81 34 143t95 96.5t141 34.5q78 0 135 -31.5t87.5 -89t30.5 -137.5q0 -14 -1 -28t-3 -29h-343q12 -52 51.5 -75.5t107.5 -23.5q42 0 86.5 9.5t78.5 25.5l16 -130q-42 -19 -95.5 -29t-109.5 -10zM304 409q-78 0 -94 -94
h182q0 11 -2 19q-7 35 -29 55t-57 20zM303 596q-43 0 -68.5 24.5t-25.5 64.5t25.5 64.5t68.5 24.5t69 -24t26 -65q0 -40 -26 -64.5t-69 -24.5z" />
    <glyph glyph-name="Eogonek" unicode="&#x118;" horiz-adv-x="679" 
d="M79 0v760h529v-153h-344v-146h303v-153h-303v-155h358v-153h-543zM540 -264q-66 0 -102.5 30t-36.5 84q0 53 44 104t124 90l54 -44q-80 -59 -80 -105q0 -32 38 -32q20 0 38 10l11 -117q-13 -9 -38.5 -14.5t-51.5 -5.5z" />
    <glyph glyph-name="eogonek" unicode="&#x119;" horiz-adv-x="603" 
d="M348 -16q-97 0 -166.5 33t-107 94.5t-37.5 146.5q0 81 34 143t95 96.5t141 34.5q78 0 135 -31.5t87.5 -89t30.5 -137.5q0 -14 -1 -28t-3 -29h-343q12 -52 51.5 -75.5t107.5 -23.5q42 0 86.5 9.5t78.5 25.5l16 -130q-42 -19 -95.5 -29t-109.5 -10zM304 409q-78 0 -94 -94
h182q0 11 -2 19q-7 35 -29 55t-57 20zM458 -264q-67 0 -104 29.5t-37 81.5q0 59 45 108.5t132 85.5l59 -18q-48 -32 -74 -65t-26 -62q0 -37 41 -37q25 0 43 10l10 -113q-13 -9 -38 -14.5t-51 -5.5z" />
    <glyph glyph-name="Ecaron" unicode="&#x11a;" horiz-adv-x="679" 
d="M79 0v760h529v-153h-344v-146h303v-153h-303v-155h358v-153h-543zM262 835l-143 157h173l60 -69l60 69h173l-143 -157h-180z" />
    <glyph glyph-name="ecaron" unicode="&#x11b;" horiz-adv-x="603" 
d="M348 -16q-97 0 -166.5 33t-107 94.5t-37.5 146.5q0 81 34 143t95 96.5t141 34.5q78 0 135 -31.5t87.5 -89t30.5 -137.5q0 -14 -1 -28t-3 -29h-343q12 -52 51.5 -75.5t107.5 -23.5q42 0 86.5 9.5t78.5 25.5l16 -130q-42 -19 -95.5 -29t-109.5 -10zM304 409q-78 0 -94 -94
h182q0 11 -2 19q-7 35 -29 55t-57 20zM224 610l-137 170h154l62 -77l62 77h154l-137 -170h-158z" />
    <glyph glyph-name="Gbreve" unicode="&#x11e;" horiz-adv-x="827" 
d="M469 -11q-130 0 -225.5 46.5t-147.5 131.5t-52 202q0 122 55.5 212t155.5 140t235 50q68 0 138 -15.5t125 -42.5l-32 -161q-115 51 -233 51q-74 0 -129 -28t-85 -78.5t-30 -119.5q0 -106 63 -164.5t177 -58.5q25 0 50 3.5t50 10.5v123h-128v147h310v-390
q-64 -28 -141 -43.5t-156 -15.5zM437 816q-90 0 -142 43.5t-52 117.5q0 9 1 13h125v-8q2 -28 20 -44t48 -16t48.5 15.5t19.5 43.5v9h125q1 -4 1 -13q0 -74 -52 -117.5t-142 -43.5z" />
    <glyph glyph-name="gbreve" unicode="&#x11f;" horiz-adv-x="657" 
d="M298 -254q-37 0 -76 5.5t-72.5 15t-54.5 21.5l19 148q31 -17 76 -28.5t83 -11.5q150 0 150 140v38q-50 -81 -156 -81q-68 0 -120 34t-81 94.5t-29 138.5t31 139.5t84 97t120 35.5q49 0 88.5 -21t62.5 -61l2 66h171v-474q0 -145 -75.5 -220.5t-222.5 -75.5zM321 150
q45 0 74 31.5t29 80.5q0 50 -29 81.5t-74 31.5q-46 0 -75 -31.5t-29 -81.5q0 -49 29 -80.5t75 -31.5zM340 587q-88 0 -139 44t-51 120q0 10 1 14h118q0 -9 1 -12q5 -63 70 -63t70 62q1 4 1 13h118q1 -4 1 -14q0 -76 -50.5 -120t-139.5 -44z" />
    <glyph glyph-name="Gdotaccent" unicode="&#x120;" horiz-adv-x="827" 
d="M469 -11q-130 0 -225.5 46.5t-147.5 131.5t-52 202q0 122 55.5 212t155.5 140t235 50q68 0 138 -15.5t125 -42.5l-32 -161q-115 51 -233 51q-74 0 -129 -28t-85 -78.5t-30 -119.5q0 -106 63 -164.5t177 -58.5q25 0 50 3.5t50 10.5v123h-128v147h310v-390
q-64 -28 -141 -43.5t-156 -15.5zM437 829q-45 0 -72.5 26t-27.5 68q0 41 27.5 67.5t72.5 26.5t73 -26t28 -68q0 -41 -28 -67.5t-73 -26.5z" />
    <glyph glyph-name="gdotaccent" unicode="&#x121;" horiz-adv-x="657" 
d="M298 -254q-37 0 -76 5.5t-72.5 15t-54.5 21.5l19 148q31 -17 76 -28.5t83 -11.5q150 0 150 140v38q-50 -81 -156 -81q-68 0 -120 34t-81 94.5t-29 138.5t31 139.5t84 97t120 35.5q49 0 88.5 -21t62.5 -61l2 66h171v-474q0 -145 -75.5 -220.5t-222.5 -75.5zM321 150
q45 0 74 31.5t29 80.5q0 50 -29 81.5t-74 31.5q-46 0 -75 -31.5t-29 -81.5q0 -49 29 -80.5t75 -31.5zM340 596q-43 0 -68.5 24.5t-25.5 64.5t25.5 64.5t68.5 24.5t69 -24t26 -65q0 -40 -26 -64.5t-69 -24.5z" />
    <glyph glyph-name="uni0122" unicode="&#x122;" horiz-adv-x="827" 
d="M469 -11q-130 0 -225.5 46.5t-147.5 131.5t-52 202q0 122 55.5 212t155.5 140t235 50q68 0 138 -15.5t125 -42.5l-32 -161q-115 51 -233 51q-74 0 -129 -28t-85 -78.5t-30 -119.5q0 -106 63 -164.5t177 -58.5q25 0 50 3.5t50 10.5v123h-128v147h310v-390
q-64 -28 -141 -43.5t-156 -15.5zM319 -249q19 39 30.5 91t11.5 96h163q0 -31 -10 -67t-25 -67.5t-34 -52.5h-136z" />
    <glyph glyph-name="uni0123" unicode="&#x123;" horiz-adv-x="657" 
d="M298 -254q-37 0 -76 5.5t-72.5 15t-54.5 21.5l19 148q31 -17 76 -28.5t83 -11.5q150 0 150 140v38q-50 -81 -156 -81q-68 0 -120 34t-81 94.5t-29 138.5t31 139.5t84 97t120 35.5q49 0 88.5 -21t62.5 -61l2 66h171v-474q0 -145 -75.5 -220.5t-222.5 -75.5zM321 150
q45 0 74 31.5t29 80.5q0 50 -29 81.5t-74 31.5q-46 0 -75 -31.5t-29 -81.5q0 -49 29 -80.5t75 -31.5zM246 610q1 47 20 98.5t48 83.5h126q-18 -39 -28.5 -87.5t-11.5 -94.5h-154z" />
    <glyph glyph-name="Hbar" unicode="&#x126;" horiz-adv-x="903" 
d="M101 0v540h-80v117h80v103h203v-103h295v103h203v-103h80v-117h-80v-540h-203v273h-295v-273h-203zM304 436h295v104h-295v-104z" />
    <glyph glyph-name="hbar" unicode="&#x127;" horiz-adv-x="625" 
d="M61 0v607h-76v101h76v102h181v-102h133v-101h-133v-152q21 36 59.5 56.5t88.5 20.5q87 0 132.5 -55.5t45.5 -162.5v-314h-181v280q0 91 -69 91q-37 0 -56.5 -25.5t-19.5 -72.5v-273h-181z" />
    <glyph glyph-name="Itilde" unicode="&#x128;" horiz-adv-x="362" 
d="M79 0v760h203v-760h-203zM262 831q-36 0 -59.5 13t-41.5 26t-36 13q-29 0 -29 -50h-116q0 172 120 172q36 0 60 -13t42 -25.5t36 -12.5q28 0 28 50h116q0 -173 -120 -173z" />
    <glyph glyph-name="itilde" unicode="&#x129;" horiz-adv-x="303" 
d="M61 0v516h181v-516h-181zM237 607q-38 0 -62.5 13.5t-42.5 27t-38 13.5q-29 0 -29 -52h-113q0 168 114 168q38 0 62.5 -13.5t42.5 -27t37 -13.5q29 0 29 52h113q0 -168 -113 -168z" />
    <glyph glyph-name="Imacron" unicode="&#x12a;" horiz-adv-x="362" 
d="M79 0v760h203v-760h-203zM10 840v123h343v-123h-343z" />
    <glyph glyph-name="imacron" unicode="&#x12b;" horiz-adv-x="303" 
d="M61 0v516h181v-516h-181zM-17 620v120h336v-120h-336z" />
    <glyph glyph-name="Iogonek" unicode="&#x12e;" horiz-adv-x="362" 
d="M79 0v760h203v-760h-203zM200 -264q-66 0 -102.5 30t-36.5 84q0 53 44 104t124 90l54 -44q-80 -59 -80 -105q0 -32 38 -32q20 0 38 10l11 -117q-13 -9 -38.5 -14.5t-51.5 -5.5z" />
    <glyph glyph-name="iogonek" unicode="&#x12f;" horiz-adv-x="303" 
d="M152 597q-43 0 -72.5 28t-29.5 68q0 42 29.5 69.5t72.5 27.5t72 -27.5t29 -69.5q0 -40 -29 -68t-72 -28zM61 0v516h181v-516h-181zM160 -264q-66 0 -102.5 30t-36.5 84q0 53 44 104t123 90l54 -44q-45 -32 -64.5 -57t-19.5 -49q0 -35 41 -35q11 0 21.5 2.5t19.5 6.5
l9 -112q-13 -9 -38 -14.5t-51 -5.5z" />
    <glyph glyph-name="Idotaccent" unicode="&#x130;" horiz-adv-x="362" 
d="M79 0v760h203v-760h-203zM181 829q-45 0 -72.5 26t-27.5 68q0 41 27.5 67.5t72.5 26.5t73 -26t28 -68q0 -41 -28 -67.5t-73 -26.5z" />
    <glyph glyph-name="dotlessi" unicode="&#x131;" horiz-adv-x="303" 
d="M61 0v516h181v-516h-181z" />
    <glyph glyph-name="IJ" unicode="&#x132;" horiz-adv-x="945" 
d="M79 0v760h203v-760h-203zM590 -16q-55 0 -108 11.5t-85 30.5l18 156q32 -17 66.5 -25.5t68.5 -8.5q62 0 89.5 31t27.5 103v478h203v-490q0 -286 -280 -286z" />
    <glyph glyph-name="ij.alt" unicode="&#x133;" horiz-adv-x="606" 
d="M152 597q-43 0 -72.5 28t-29.5 68q0 42 29.5 69.5t72.5 27.5t72 -27.5t29 -69.5q0 -40 -29 -68t-72 -28zM61 0v516h181v-516h-181zM455 597q-43 0 -72.5 28t-29.5 68q0 42 29.5 69.5t72.5 27.5t72 -27.5t29 -69.5q0 -40 -29 -68t-72 -28zM325 -254q-39 0 -76.5 7
t-58.5 19l18 147q20 -7 39 -11.5t38 -4.5q41 0 60 22.5t19 71.5v519h181v-534q0 -116 -56 -176t-164 -60z" />
    <glyph glyph-name="uni0136" unicode="&#x136;" horiz-adv-x="817" 
d="M79 0v760h200v-312l259 312h241l-322 -363l353 -397h-261l-270 326v-326h-200zM308 -249q19 39 30.5 91t11.5 96h163q0 -31 -10 -67t-25 -67.5t-34 -52.5h-136z" />
    <glyph glyph-name="uni0137" unicode="&#x137;" horiz-adv-x="643" 
d="M61 0v810h181v-483l158 189h209l-208 -231l243 -285h-223l-179 223v-223h-181zM191 -249q18 39 29.5 91t11.5 96h159q0 -31 -9.5 -67t-25 -67.5t-34.5 -52.5h-131z" />
    <glyph glyph-name="kgreenlandic" unicode="&#x138;" horiz-adv-x="644" 
d="M61 0v516h181v-196l158 196h209l-212 -237l247 -279h-231l-171 207v-207h-181z" />
    <glyph glyph-name="Lacute" unicode="&#x139;" horiz-adv-x="639" 
d="M79 0v760h203v-597h322v-163h-525zM59 835l117 154h211l-164 -154h-164z" />
    <glyph glyph-name="lacute" unicode="&#x13a;" horiz-adv-x="303" 
d="M61 0v810h181v-810h-181zM29 850l117 154h211l-164 -154h-164z" />
    <glyph glyph-name="uni013B" unicode="&#x13b;" horiz-adv-x="639" 
d="M79 0v760h203v-597h322v-163h-525zM224 -249q19 39 30.5 91t11.5 96h163q0 -31 -10 -67t-25 -67.5t-34 -52.5h-136z" />
    <glyph glyph-name="uni013C" unicode="&#x13c;" horiz-adv-x="303" 
d="M61 0v810h181v-810h-181zM38 -249q18 39 29.5 91t11.5 96h159q0 -31 -9.5 -67t-25 -67.5t-34.5 -52.5h-131z" />
    <glyph glyph-name="Lcaron" unicode="&#x13d;" horiz-adv-x="639" 
d="M79 0v760h203v-597h322v-163h-525zM360 565l12 245h166l-62 -245h-116z" />
    <glyph glyph-name="lcaron" unicode="&#x13e;" horiz-adv-x="303" 
d="M61 0v810h181v-810h-181zM305 565l12 245h166l-62 -245h-116z" />
    <glyph glyph-name="Lslash" unicode="&#x141;" horiz-adv-x="676" 
d="M116 0v222l-92 -52l-1 156l93 53v381h203v-269l180 105l2 -156l-182 -105v-172h322v-163h-525z" />
    <glyph glyph-name="lslash" unicode="&#x142;" horiz-adv-x="379" 
d="M99 0v281l-86 -39l-2 129l88 39v400h181v-319l86 39l2 -129l-88 -39v-362h-181z" />
    <glyph glyph-name="Nacute" unicode="&#x143;" horiz-adv-x="861" 
d="M79 0v760h173l346 -464v464h184v-760h-173l-346 465v-465h-184zM299 835l117 154h211l-164 -154h-164z" />
    <glyph glyph-name="nacute" unicode="&#x144;" horiz-adv-x="625" 
d="M61 0v516h178l2 -64q20 38 59 59t90 21q87 0 132.5 -55.5t45.5 -162.5v-314h-181v280q0 91 -69 91q-37 0 -56.5 -25.5t-19.5 -72.5v-273h-181zM208 610l106 170h193l-148 -170h-151z" />
    <glyph glyph-name="uni0145" unicode="&#x145;" horiz-adv-x="861" 
d="M79 0v760h173l346 -464v464h184v-760h-173l-346 465v-465h-184zM318 -249q19 39 30.5 91t11.5 96h163q0 -31 -10 -67t-25 -67.5t-34 -52.5h-136z" />
    <glyph glyph-name="uni0146" unicode="&#x146;" horiz-adv-x="625" 
d="M61 0v516h178l2 -64q20 38 59 59t90 21q87 0 132.5 -55.5t45.5 -162.5v-314h-181v280q0 91 -69 91q-37 0 -56.5 -25.5t-19.5 -72.5v-273h-181zM188 -249q18 39 29.5 91t11.5 96h159q0 -31 -9.5 -67t-25 -67.5t-34.5 -52.5h-131z" />
    <glyph glyph-name="Ncaron" unicode="&#x147;" horiz-adv-x="861" 
d="M79 0v760h173l346 -464v464h184v-760h-173l-346 465v-465h-184zM331 835l-143 157h173l60 -69l60 69h173l-143 -157h-180z" />
    <glyph glyph-name="ncaron" unicode="&#x148;" horiz-adv-x="625" 
d="M61 0v516h178l2 -64q20 38 59 59t90 21q87 0 132.5 -55.5t45.5 -162.5v-314h-181v280q0 91 -69 91q-37 0 -56.5 -25.5t-19.5 -72.5v-273h-181zM237 610l-137 170h154l62 -77l62 77h154l-137 -170h-158z" />
    <glyph glyph-name="Eng" unicode="&#x14a;" horiz-adv-x="861" 
d="M79 0v760h173l346 -464v464h184v-746q0 -268 -256 -268q-53 0 -101.5 10.5t-80.5 28.5l19 156q62 -31 125 -31q54 0 79.5 25.5t28.5 82.5l-333 447v-465h-184z" />
    <glyph glyph-name="eng" unicode="&#x14b;" horiz-adv-x="625" 
d="M213 -228l17 139q41 -15 79 -15q41 0 59.5 22t18.5 71v291q0 91 -69 91q-37 0 -56.5 -25.5t-19.5 -72.5v-273h-181v516h178l2 -64q20 38 59 59t90 21q87 0 132.5 -55.5t45.5 -162.5v-332q0 -116 -56 -176t-164 -60q-39 0 -76.5 7t-58.5 19z" />
    <glyph glyph-name="Omacron" unicode="&#x14c;" horiz-adv-x="912" 
d="M456 -16q-90 0 -165.5 29t-130.5 82t-85.5 125.5t-30.5 159.5q0 84 31 156.5t87 126t131 83.5t163 30q90 0 165.5 -29t130.5 -82t85.5 -125.5t30.5 -159.5q0 -84 -31 -156.5t-87 -126t-131 -83.5t-163 -30zM456 161q59 0 105 28t72 77.5t26 112.5q0 64 -26 113.5
t-71.5 78t-105.5 28.5q-59 0 -105 -28t-72 -77t-26 -113t26 -113.5t72 -78t105 -28.5zM285 840v123h343v-123h-343z" />
    <glyph glyph-name="omacron" unicode="&#x14d;" horiz-adv-x="641" 
d="M321 -16q-82 0 -146 35.5t-101 97.5t-37 141t37 141t101.5 97.5t145.5 35.5q82 0 146 -35.5t101 -97t37 -141.5q0 -79 -37 -141t-101.5 -97.5t-145.5 -35.5zM321 145q45 0 74 32t29 81q0 50 -29 81.5t-74 31.5q-46 0 -75 -31.5t-29 -81.5q0 -49 29 -81t75 -32zM153 620
v120h336v-120h-336z" />
    <glyph glyph-name="Ohungarumlaut" unicode="&#x150;" horiz-adv-x="912" 
d="M456 -16q-90 0 -165.5 29t-130.5 82t-85.5 125.5t-30.5 159.5q0 84 31 156.5t87 126t131 83.5t163 30q90 0 165.5 -29t130.5 -82t85.5 -125.5t30.5 -159.5q0 -84 -31 -156.5t-87 -126t-131 -83.5t-163 -30zM456 161q59 0 105 28t72 77.5t26 112.5q0 64 -26 113.5
t-71.5 78t-105.5 28.5q-59 0 -105 -28t-72 -77t-26 -113t26 -113.5t72 -78t105 -28.5zM481 835l87 152h195l-118 -152h-164zM239 835l88 152h194l-118 -152h-164z" />
    <glyph glyph-name="ohungarumlaut" unicode="&#x151;" horiz-adv-x="641" 
d="M321 -16q-82 0 -146 35.5t-101 97.5t-37 141t37 141t101.5 97.5t145.5 35.5q82 0 146 -35.5t101 -97t37 -141.5q0 -79 -37 -141t-101.5 -97.5t-145.5 -35.5zM321 145q45 0 74 32t29 81q0 50 -29 81.5t-74 31.5q-46 0 -75 -31.5t-29 -81.5q0 -49 29 -81t75 -32zM340 610
l83 170h170l-114 -170h-139zM133 610l83 170h169l-113 -170h-139z" />
    <glyph glyph-name="OE" unicode="&#x152;" horiz-adv-x="1242" 
d="M426 -16q-82 0 -151.5 29.5t-121.5 83t-80.5 126t-28.5 157.5t29 157t80.5 125.5t121.5 83.5t152 30q143 0 216 -90v74h528v-153h-344v-146h303v-153h-303v-155h358v-153h-542v78q-73 -94 -217 -94zM456 161q59 0 105 28t72 77.5t26 112.5q0 64 -26 113.5t-71.5 78
t-105.5 28.5q-59 0 -105 -28t-72 -77t-26 -113t26 -113.5t72 -78t105 -28.5z" />
    <glyph glyph-name="oe" unicode="&#x153;" horiz-adv-x="989" 
d="M310 -16q-78 0 -139.5 36t-97.5 98t-36 140q0 79 36.5 140.5t100 97.5t143.5 36q59 0 111 -24t83 -65q28 42 78 65.5t109 23.5q76 0 131.5 -31.5t86 -89.5t30.5 -137q0 -27 -3 -57h-344q13 -52 52.5 -75.5t107.5 -23.5q41 0 86 9.5t79 25.5l16 -130q-47 -20 -92.5 -29.5
t-101.5 -9.5q-73 0 -134.5 24t-94.5 68q-37 -44 -90.5 -68t-116.5 -24zM690 409q-77 0 -93 -94h182q-1 10 -3 19q-7 35 -28.5 55t-57.5 20zM321 145q45 0 74 32t29 81q0 50 -29 81.5t-74 31.5q-46 0 -75 -31.5t-29 -81.5q0 -49 29 -81t75 -32z" />
    <glyph glyph-name="Racute" unicode="&#x154;" horiz-adv-x="749" 
d="M79 0v760h277q140 0 218.5 -68.5t78.5 -190.5q0 -65 -31.5 -117.5t-80.5 -86.5l186 -297h-221l-133 244h-102v-244h-192zM329 613h-58v-222h56q131 0 131 112q0 110 -129 110zM227 835l117 154h211l-164 -154h-164z" />
    <glyph glyph-name="racute" unicode="&#x155;" horiz-adv-x="448" 
d="M61 0v516h176l2 -91q16 48 50 74.5t79 26.5q34 0 59 -10l-15 -171q-13 5 -32 8.5t-35 3.5q-103 0 -103 -136v-221h-181zM131 610l106 170h193l-148 -170h-151z" />
    <glyph glyph-name="Rcaron" unicode="&#x158;" horiz-adv-x="749" 
d="M79 0v760h277q140 0 218.5 -68.5t78.5 -190.5q0 -65 -31.5 -117.5t-80.5 -86.5l186 -297h-221l-133 244h-102v-244h-192zM329 613h-58v-222h56q131 0 131 112q0 110 -129 110zM259 835l-143 157h173l60 -69l60 69h173l-143 -157h-180z" />
    <glyph glyph-name="rcaron" unicode="&#x159;" horiz-adv-x="448" 
d="M61 0v516h176l2 -91q16 48 50 74.5t79 26.5q34 0 59 -10l-15 -171q-13 5 -32 8.5t-35 3.5q-103 0 -103 -136v-221h-181zM160 610l-137 170h154l62 -77l62 77h154l-137 -170h-158z" />
    <glyph glyph-name="Sacute" unicode="&#x15a;" horiz-adv-x="667" 
d="M313 -16q-51 0 -102.5 8.5t-95 23t-71.5 33.5l18 162q48 -30 114 -48.5t128 -18.5q56 0 85.5 18.5t29.5 53.5q0 21 -11.5 35.5t-39.5 27t-79 27.5q-123 34 -177 89.5t-54 146.5q0 109 77.5 171.5t211.5 62.5q65 0 129.5 -16t107.5 -43l-25 -157q-40 26 -96.5 41
t-106.5 15q-104 0 -104 -67q0 -29 24 -46t89 -36q136 -39 195 -94.5t59 -146.5q0 -115 -80.5 -178.5t-225.5 -63.5zM210 835l117 154h211l-164 -154h-164z" />
    <glyph glyph-name="sacute" unicode="&#x15b;" horiz-adv-x="519" 
d="M247 -16q-60 0 -117 14t-91 37l20 128q39 -25 85 -38t91 -13q68 0 68 35q0 18 -15 27.5t-63 22.5q-96 26 -136.5 64.5t-40.5 105.5q0 78 59 121.5t162 43.5q52 0 103 -11t85 -30l-19 -126q-80 39 -157 39q-58 0 -58 -33q0 -16 16 -26.5t63 -23.5q96 -26 137.5 -66.5
t41.5 -106.5q0 -78 -62 -121t-172 -43zM161 610l106 170h193l-148 -170h-151z" />
    <glyph glyph-name="Scedilla" unicode="&#x15e;" horiz-adv-x="667" 
d="M313 -16q-51 0 -102.5 8.5t-95 23t-71.5 33.5l18 162q48 -30 114 -48.5t128 -18.5q56 0 85.5 18.5t29.5 53.5q0 21 -11.5 35.5t-39.5 27t-79 27.5q-123 34 -177 89.5t-54 146.5q0 109 77.5 171.5t211.5 62.5q65 0 129.5 -16t107.5 -43l-25 -157q-40 26 -96.5 41
t-106.5 15q-104 0 -104 -67q0 -29 24 -46t89 -36q136 -39 195 -94.5t59 -146.5q0 -115 -80.5 -178.5t-225.5 -63.5zM294 -267q-26 0 -55.5 5.5t-42.5 13.5l17 87q27 -12 63 -12q50 0 50 29q0 28 -53 28q-8 0 -17 -0.5t-14 -2.5l36 129h100l-18 -61q46 -4 75 -31t29 -67
q0 -58 -43.5 -88t-126.5 -30z" />
    <glyph glyph-name="scedilla" unicode="&#x15f;" horiz-adv-x="519" 
d="M247 -16q-60 0 -117 14t-91 37l20 128q39 -25 85 -38t91 -13q68 0 68 35q0 18 -15 27.5t-63 22.5q-96 26 -136.5 64.5t-40.5 105.5q0 78 59 121.5t162 43.5q52 0 103 -11t85 -30l-19 -126q-80 39 -157 39q-58 0 -58 -33q0 -16 16 -26.5t63 -23.5q96 -26 137.5 -66.5
t41.5 -106.5q0 -78 -62 -121t-172 -43zM230 -267q-29 0 -61.5 6t-45.5 13l17 83q27 -11 65 -11q53 0 53 32q0 30 -55 30q-9 0 -17.5 -0.5t-14.5 -1.5l36 126h94l-19 -64q47 -4 75 -30t28 -68q0 -53 -42 -84t-113 -31z" />
    <glyph glyph-name="Scaron" unicode="&#x160;" horiz-adv-x="667" 
d="M313 -16q-51 0 -102.5 8.5t-95 23t-71.5 33.5l18 162q48 -30 114 -48.5t128 -18.5q56 0 85.5 18.5t29.5 53.5q0 21 -11.5 35.5t-39.5 27t-79 27.5q-123 34 -177 89.5t-54 146.5q0 109 77.5 171.5t211.5 62.5q65 0 129.5 -16t107.5 -43l-25 -157q-40 26 -96.5 41
t-106.5 15q-104 0 -104 -67q0 -29 24 -46t89 -36q136 -39 195 -94.5t59 -146.5q0 -115 -80.5 -178.5t-225.5 -63.5zM242 835l-143 157h173l60 -69l60 69h173l-143 -157h-180z" />
    <glyph glyph-name="scaron" unicode="&#x161;" horiz-adv-x="519" 
d="M247 -16q-60 0 -117 14t-91 37l20 128q39 -25 85 -38t91 -13q68 0 68 35q0 18 -15 27.5t-63 22.5q-96 26 -136.5 64.5t-40.5 105.5q0 78 59 121.5t162 43.5q52 0 103 -11t85 -30l-19 -126q-80 39 -157 39q-58 0 -58 -33q0 -16 16 -26.5t63 -23.5q96 -26 137.5 -66.5
t41.5 -106.5q0 -78 -62 -121t-172 -43zM190 610l-137 170h154l62 -77l62 77h154l-137 -170h-158z" />
    <glyph glyph-name="uni0162" unicode="&#x162;" horiz-adv-x="739" 
d="M268 0v597h-233v163h669v-163h-233v-597h-203zM334 -267q-26 0 -55.5 5.5t-42.5 13.5l17 87q27 -12 63 -12q50 0 50 29q0 28 -53 28q-8 0 -17 -0.5t-14 -2.5l36 129h100l-18 -61q46 -4 75 -31t29 -67q0 -58 -43.5 -88t-126.5 -30z" />
    <glyph glyph-name="uni0163.alt" unicode="&#x163;" horiz-adv-x="478" 
d="M294 -16q-193 0 -193 203v184h-87v145h87v133h180v-133h147v-145h-147v-142q0 -46 15.5 -65t51.5 -19q44 0 84 18l18 -149q-58 -30 -156 -30zM233 -267q-29 0 -61.5 6t-45.5 13l17 83q27 -11 65 -11q53 0 53 32q0 30 -55 30q-9 0 -17.5 -0.5t-14.5 -1.5l36 126h94
l-19 -64q47 -4 75 -30t28 -68q0 -53 -42 -84t-113 -31z" />
    <glyph glyph-name="Tcaron" unicode="&#x164;" horiz-adv-x="739" 
d="M268 0v597h-233v163h669v-163h-233v-597h-203zM279 835l-143 157h173l60 -69l60 69h173l-143 -157h-180z" />
    <glyph glyph-name="tcaron.alt" unicode="&#x165;" horiz-adv-x="478" 
d="M294 -16q-193 0 -193 203v184h-87v145h87v133h180v-133h147v-145h-147v-142q0 -46 15.5 -65t51.5 -19q44 0 84 18l18 -149q-58 -30 -156 -30zM341 587l12 223h158l-58 -223h-112z" />
    <glyph glyph-name="Tbar" unicode="&#x166;" horiz-adv-x="739" 
d="M268 0v276h-124v125h124v196h-233v163h669v-163h-233v-196h124v-125h-124v-276h-203z" />
    <glyph glyph-name="tbar.alt" unicode="&#x167;" horiz-adv-x="478" 
d="M30 213v103h71v69h-87v131h87v133h180v-133h147v-131h-147v-69h113v-103h-113q2 -41 17.5 -58.5t49.5 -17.5q42 0 85 19l17 -142q-58 -30 -156 -30q-193 0 -193 203v26h-71z" />
    <glyph glyph-name="Utilde" unicode="&#x168;" horiz-adv-x="849" 
d="M424 -16q-168 0 -259 89.5t-91 255.5v431h203v-417q0 -182 147 -182t147 182v417h203v-431q0 -166 -90.5 -255.5t-259.5 -89.5zM505 831q-36 0 -59.5 13t-41.5 26t-36 13q-29 0 -29 -50h-116q0 172 120 172q36 0 60 -13t42 -25.5t36 -12.5q28 0 28 50h116
q0 -173 -120 -173z" />
    <glyph glyph-name="utilde.alt" unicode="&#x169;" horiz-adv-x="624" 
d="M231 -16q-85 0 -130 54.5t-45 159.5v318h182v-281q0 -46 16.5 -68t52.5 -22t55.5 25.5t19.5 72.5v273h181v-516h-178l-2 64q-20 -38 -59.5 -59t-92.5 -21zM392 607q-38 0 -62.5 13.5t-42.5 27t-38 13.5q-29 0 -29 -52h-113q0 168 114 168q38 0 62.5 -13.5t42.5 -27
t37 -13.5q29 0 29 52h113q0 -168 -113 -168z" />
    <glyph glyph-name="Umacron" unicode="&#x16a;" horiz-adv-x="849" 
d="M424 -16q-168 0 -259 89.5t-91 255.5v431h203v-417q0 -182 147 -182t147 182v417h203v-431q0 -166 -90.5 -255.5t-259.5 -89.5zM253 840v123h343v-123h-343z" />
    <glyph glyph-name="umacron.alt" unicode="&#x16b;" horiz-adv-x="624" 
d="M231 -16q-85 0 -130 54.5t-45 159.5v318h182v-281q0 -46 16.5 -68t52.5 -22t55.5 25.5t19.5 72.5v273h181v-516h-178l-2 64q-20 -38 -59.5 -59t-92.5 -21zM138 620v120h336v-120h-336z" />
    <glyph glyph-name="Uring" unicode="&#x16e;" horiz-adv-x="849" 
d="M424 -16q-168 0 -259 89.5t-91 255.5v431h203v-417q0 -182 147 -182t147 182v417h203v-431q0 -166 -90.5 -255.5t-259.5 -89.5zM424 816q-43 0 -76.5 18.5t-53 50.5t-19.5 72q0 41 19.5 72.5t53 49.5t76.5 18t76.5 -18t53 -49.5t19.5 -72.5q0 -40 -19.5 -72t-53 -50.5
t-76.5 -18.5zM424 902q25 0 39.5 15t14.5 40q0 24 -14.5 39t-39.5 15t-39.5 -15t-14.5 -39q0 -25 14.5 -40t39.5 -15z" />
    <glyph glyph-name="uring.alt" unicode="&#x16f;" horiz-adv-x="624" 
d="M231 -16q-85 0 -130 54.5t-45 159.5v318h182v-281q0 -46 16.5 -68t52.5 -22t55.5 25.5t19.5 72.5v273h181v-516h-178l-2 64q-20 -38 -59.5 -59t-92.5 -21zM306 571q-43 0 -76.5 18.5t-53 50.5t-19.5 72q0 41 19.5 72.5t53 50t76.5 18.5t76.5 -18.5t53 -50t19.5 -72.5
q0 -40 -19.5 -72t-53 -50.5t-76.5 -18.5zM306 658q25 0 39.5 15t14.5 39q0 25 -14.5 39.5t-39.5 14.5t-39.5 -14.5t-14.5 -39.5q0 -24 14.5 -39t39.5 -15z" />
    <glyph glyph-name="Uhungarumlaut" unicode="&#x170;" horiz-adv-x="849" 
d="M424 -16q-168 0 -259 89.5t-91 255.5v431h203v-417q0 -182 147 -182t147 182v417h203v-431q0 -166 -90.5 -255.5t-259.5 -89.5zM449 835l87 152h195l-118 -152h-164zM207 835l88 152h194l-118 -152h-164z" />
    <glyph glyph-name="uhungarumlaut.alt" unicode="&#x171;" horiz-adv-x="624" 
d="M231 -16q-85 0 -130 54.5t-45 159.5v318h182v-281q0 -46 16.5 -68t52.5 -22t55.5 25.5t19.5 72.5v273h181v-516h-178l-2 64q-20 -38 -59.5 -59t-92.5 -21zM325 610l83 170h170l-114 -170h-139zM118 610l83 170h169l-113 -170h-139z" />
    <glyph glyph-name="Uogonek" unicode="&#x172;" horiz-adv-x="849" 
d="M424 -16q-168 0 -259 89.5t-91 255.5v431h203v-417q0 -182 147 -182t147 182v417h203v-431q0 -166 -90.5 -255.5t-259.5 -89.5zM541 -264q-66 0 -104 29.5t-38 80.5q0 62 49.5 119.5t130.5 91.5l59 -19q-44 -31 -71 -67.5t-27 -68.5q0 -39 46 -39q25 0 47 12l10 -118
q-13 -8 -44 -14.5t-58 -6.5z" />
    <glyph glyph-name="uogonek.alt" unicode="&#x173;" horiz-adv-x="624" 
d="M231 -16q-85 0 -130 54.5t-45 159.5v318h182v-281q0 -46 16.5 -68t52.5 -22t55.5 25.5t19.5 72.5v273h181v-516h-178l-2 64q-20 -38 -59.5 -59t-92.5 -21zM481 -264q-66 0 -102.5 30t-36.5 84q0 53 44 104t123 90l54 -44q-45 -32 -64.5 -57t-19.5 -49q0 -35 41 -35
q11 0 21.5 2.5t19.5 6.5l9 -112q-13 -9 -38 -14.5t-51 -5.5z" />
    <glyph glyph-name="Wcircumflex" unicode="&#x174;" horiz-adv-x="1139" 
d="M244 0l-225 760h213l112 -506l140 496h172l142 -487l110 497h212l-225 -760h-183l-144 488l-140 -488h-184zM337 835l143 157h180l143 -157h-173l-60 69l-60 -69h-173z" />
    <glyph glyph-name="wcircumflex" unicode="&#x175;" horiz-adv-x="888" 
d="M184 0l-166 516h190l68 -316l92 316h148l98 -317l66 317h190l-166 -516h-162l-103 298l-98 -298h-157zM227 610l137 170h158l137 -170h-154l-62 77l-62 -77h-154z" />
    <glyph glyph-name="Ycircumflex" unicode="&#x176;" horiz-adv-x="764" 
d="M282 0v309l-274 451h223l154 -302l154 302h217l-275 -451v-309h-199zM149 835l143 157h180l143 -157h-173l-60 69l-60 -69h-173z" />
    <glyph glyph-name="ycircumflex" unicode="&#x177;" horiz-adv-x="620" 
d="M96 -245l129 273l-212 488h199l105 -303l97 303h194l-330 -761h-182zM96 610l137 170h158l137 -170h-154l-62 77l-62 -77h-154z" />
    <glyph glyph-name="Ydieresis" unicode="&#x178;" horiz-adv-x="764" 
d="M282 0v309l-274 451h223l154 -302l154 302h217l-275 -451v-309h-199zM502 832q-38 0 -63 23t-25 60t25 60t63 23q40 0 65 -23t25 -60t-25 -60t-65 -23zM261 832q-39 0 -64 23t-25 60t25 60t64 23t64 -23t25 -60t-25 -60t-64 -23z" />
    <glyph glyph-name="Zacute" unicode="&#x179;" horiz-adv-x="757" 
d="M54 0v137l381 464h-357v159h610v-137l-380 -464h388v-159h-642zM252 835l117 154h211l-164 -154h-164z" />
    <glyph glyph-name="zacute" unicode="&#x17a;" horiz-adv-x="555" 
d="M39 0v119l236 252h-225v145h459v-119l-236 -252h243v-145h-477zM169 610l106 170h193l-148 -170h-151z" />
    <glyph glyph-name="Zdotaccent" unicode="&#x17b;" horiz-adv-x="757" 
d="M54 0v137l381 464h-357v159h610v-137l-380 -464h388v-159h-642zM374 829q-45 0 -72.5 26t-27.5 68q0 41 27.5 67.5t72.5 26.5t73 -26t28 -68q0 -41 -28 -67.5t-73 -26.5z" />
    <glyph glyph-name="zdotaccent" unicode="&#x17c;" horiz-adv-x="555" 
d="M39 0v119l236 252h-225v145h459v-119l-236 -252h243v-145h-477zM277 596q-43 0 -68.5 24.5t-25.5 64.5t25.5 64.5t68.5 24.5t69 -24t26 -65q0 -40 -26 -64.5t-69 -24.5z" />
    <glyph glyph-name="Zcaron" unicode="&#x17d;" horiz-adv-x="757" 
d="M54 0v137l381 464h-357v159h610v-137l-380 -464h388v-159h-642zM284 835l-143 157h173l60 -69l60 69h173l-143 -157h-180z" />
    <glyph glyph-name="zcaron" unicode="&#x17e;" horiz-adv-x="555" 
d="M39 0v119l236 252h-225v145h459v-119l-236 -252h243v-145h-477zM198 610l-137 170h154l62 -77l62 77h154l-137 -170h-158z" />
    <glyph glyph-name="florin" unicode="&#x192;" horiz-adv-x="448" 
d="M75 -254q-39 0 -76.5 7t-58.5 19l18 147q20 -7 39.5 -11.5t38.5 -4.5q41 0 59.5 22.5t18.5 71.5v374h-83v145h83v50q0 119 59 184t168 65q33 0 69.5 -6.5t57.5 -17.5l-17 -146q-14 5 -34 9t-36 4q-44 0 -65 -25t-21 -79v-38h122v-145h-122v-389q0 -116 -56 -176t-164 -60
z" />
    <glyph glyph-name="uni0218" unicode="&#x218;" horiz-adv-x="667" 
d="M313 -16q-51 0 -102.5 8.5t-95 23t-71.5 33.5l18 162q48 -30 114 -48.5t128 -18.5q56 0 85.5 18.5t29.5 53.5q0 21 -11.5 35.5t-39.5 27t-79 27.5q-123 34 -177 89.5t-54 146.5q0 109 77.5 171.5t211.5 62.5q65 0 129.5 -16t107.5 -43l-25 -157q-40 26 -96.5 41
t-106.5 15q-104 0 -104 -67q0 -29 24 -46t89 -36q136 -39 195 -94.5t59 -146.5q0 -115 -80.5 -178.5t-225.5 -63.5zM205 -249q19 39 30.5 91t11.5 96h163q0 -31 -10 -67t-25 -67.5t-34 -52.5h-136z" />
    <glyph glyph-name="uni0219" unicode="&#x219;" horiz-adv-x="519" 
d="M247 -16q-60 0 -117 14t-91 37l20 128q39 -25 85 -38t91 -13q68 0 68 35q0 18 -15 27.5t-63 22.5q-96 26 -136.5 64.5t-40.5 105.5q0 78 59 121.5t162 43.5q52 0 103 -11t85 -30l-19 -126q-80 39 -157 39q-58 0 -58 -33q0 -16 16 -26.5t63 -23.5q96 -26 137.5 -66.5
t41.5 -106.5q0 -78 -62 -121t-172 -43zM146 -249q18 39 29.5 91t11.5 96h159q0 -31 -9.5 -67t-25 -67.5t-34.5 -52.5h-131z" />
    <glyph glyph-name="uni021A" unicode="&#x21a;" horiz-adv-x="739" 
d="M268 0v597h-233v163h669v-163h-233v-597h-203zM247 -249q19 39 30.5 91t11.5 96h163q0 -31 -10 -67t-25 -67.5t-34 -52.5h-136z" />
    <glyph glyph-name="uni021B.alt" unicode="&#x21b;" horiz-adv-x="478" 
d="M294 -16q-193 0 -193 203v184h-87v145h87v133h180v-133h147v-145h-147v-142q0 -46 15.5 -65t51.5 -19q44 0 84 18l18 -149q-58 -30 -156 -30zM142 -249q18 39 29.5 91t11.5 96h159q0 -31 -9.5 -67t-25 -67.5t-34.5 -52.5h-131z" />
    <glyph glyph-name="uni0237.alt" unicode="&#x237;" horiz-adv-x="303" 
d="M22 -254q-39 0 -76.5 7t-58.5 19l18 147q20 -7 39 -11.5t38 -4.5q41 0 60 22.5t19 71.5v519h181v-534q0 -116 -56 -176t-164 -60z" />
    <glyph glyph-name="circumflex" unicode="&#x2c6;" horiz-adv-x="500" 
d="M34 610l137 170h158l137 -170h-154l-62 77l-62 -77h-154z" />
    <glyph glyph-name="caron" unicode="&#x2c7;" horiz-adv-x="500" 
d="M171 610l-137 170h154l62 -77l62 77h154l-137 -170h-158z" />
    <glyph glyph-name="uni02C9" unicode="&#x2c9;" horiz-adv-x="500" 
d="M82 620v120h336v-120h-336z" />
    <glyph glyph-name="uni02CB" unicode="&#x2cb;" horiz-adv-x="500" 
d="M249 610l-149 170h194l105 -170h-150z" />
    <glyph glyph-name="breve" unicode="&#x2d8;" horiz-adv-x="500" 
d="M250 587q-88 0 -139 44t-51 120q0 10 1 14h118q0 -9 1 -12q5 -63 70 -63t70 62q1 4 1 13h118q1 -4 1 -14q0 -76 -50.5 -120t-139.5 -44z" />
    <glyph glyph-name="dotaccent" unicode="&#x2d9;" horiz-adv-x="500" 
d="M250 596q-43 0 -68.5 24.5t-25.5 64.5t25.5 64.5t68.5 24.5t69 -24t26 -65q0 -40 -26 -64.5t-69 -24.5z" />
    <glyph glyph-name="ring" unicode="&#x2da;" horiz-adv-x="500" 
d="M250 571q-43 0 -76.5 18.5t-53 50.5t-19.5 72q0 41 19.5 72.5t53 50t76.5 18.5t76.5 -18.5t53 -50t19.5 -72.5q0 -40 -19.5 -72t-53 -50.5t-76.5 -18.5zM250 658q25 0 39.5 15t14.5 39q0 25 -14.5 39.5t-39.5 14.5t-39.5 -14.5t-14.5 -39.5q0 -24 14.5 -39t39.5 -15z" />
    <glyph glyph-name="ogonek" unicode="&#x2db;" horiz-adv-x="500" 
d="M306 -264q-66 0 -102.5 30t-36.5 84q0 53 44 104t123 90l54 -44q-45 -32 -64.5 -57t-19.5 -49q0 -35 41 -35q11 0 21.5 2.5t19.5 6.5l9 -112q-13 -9 -38 -14.5t-51 -5.5z" />
    <glyph glyph-name="tilde" unicode="&#x2dc;" horiz-adv-x="500" 
d="M336 607q-38 0 -62.5 13.5t-42.5 27t-38 13.5q-29 0 -29 -52h-113q0 168 114 168q38 0 62.5 -13.5t42.5 -27t37 -13.5q29 0 29 52h113q0 -168 -113 -168z" />
    <glyph glyph-name="hungarumlaut" unicode="&#x2dd;" horiz-adv-x="500" 
d="M240 610l83 170h170l-114 -170h-139zM33 610l83 170h169l-113 -170h-139z" />
    <glyph glyph-name="gravecomb" unicode="&#x300;" 
d="M-42 610l-149 170h194l105 -170h-150z" />
    <glyph glyph-name="acutecomb" unicode="&#x301;" 
d="M-108 610l106 170h193l-148 -170h-151z" />
    <glyph glyph-name="uni0302" unicode="&#x302;" 
d="M-216 610l137 170h158l137 -170h-154l-62 77l-62 -77h-154z" />
    <glyph glyph-name="tildecomb" unicode="&#x303;" 
d="M86 607q-38 0 -62.5 13.5t-42.5 27t-38 13.5q-29 0 -29 -52h-113q0 168 114 168q38 0 62.5 -13.5t42.5 -27t37 -13.5q29 0 29 52h113q0 -168 -113 -168z" />
    <glyph glyph-name="uni0304" unicode="&#x304;" 
d="M-168 620v120h336v-120h-336z" />
    <glyph glyph-name="uni0306" unicode="&#x306;" 
d="M0 587q-88 0 -139 44t-51 120q0 10 1 14h118q0 -9 1 -12q5 -63 70 -63t70 62q1 4 1 13h118q1 -4 1 -14q0 -76 -50.5 -120t-139.5 -44z" />
    <glyph glyph-name="uni0307" unicode="&#x307;" 
d="M0 596q-43 0 -68.5 24.5t-25.5 64.5t25.5 64.5t68.5 24.5t69 -24t26 -65q0 -40 -26 -64.5t-69 -24.5z" />
    <glyph glyph-name="uni0308" unicode="&#x308;" 
d="M119 598q-38 0 -61.5 22t-23.5 58q0 35 24 57.5t61 22.5q38 0 62 -22.5t24 -57.5q0 -36 -24 -58t-62 -22zM-119 598q-38 0 -62 22t-24 58q0 35 24.5 57.5t61.5 22.5q38 0 61.5 -22.5t23.5 -57.5q0 -36 -23.5 -58t-61.5 -22z" />
    <glyph glyph-name="uni030A" unicode="&#x30a;" 
d="M0 571q-43 0 -76.5 18.5t-53 50.5t-19.5 72q0 41 19.5 72.5t53 50t76.5 18.5t76.5 -18.5t53 -50t19.5 -72.5q0 -40 -19.5 -72t-53 -50.5t-76.5 -18.5zM0 658q25 0 39.5 15t14.5 39q0 25 -14.5 39.5t-39.5 14.5t-39.5 -14.5t-14.5 -39.5q0 -24 14.5 -39t39.5 -15z" />
    <glyph glyph-name="uni030B" unicode="&#x30b;" 
d="M19 610l83 170h170l-114 -170h-139zM-188 610l83 170h169l-113 -170h-139z" />
    <glyph glyph-name="uni030C" unicode="&#x30c;" 
d="M-79 610l-137 170h154l62 -77l62 77h154l-137 -170h-158z" />
    <glyph glyph-name="uni0312" unicode="&#x312;" 
d="M-94 610q1 47 20 98.5t48 83.5h126q-18 -39 -28.5 -87.5t-11.5 -94.5h-154z" />
    <glyph glyph-name="uni0315" unicode="&#x315;" 
d="M-78 565l12 245h166l-62 -245h-116z" />
    <glyph glyph-name="dotbelowcomb" unicode="&#x323;" 
d="M0 -228q-43 0 -68.5 24.5t-25.5 64.5t25.5 64.5t68.5 24.5t69 -24.5t26 -64.5t-26 -64.5t-69 -24.5z" />
    <glyph glyph-name="uni0326" unicode="&#x326;" 
d="M-113 -249q18 39 29.5 91t11.5 96h159q0 -31 -9.5 -67t-25 -67.5t-34.5 -52.5h-131z" />
    <glyph glyph-name="uni0327" unicode="&#x327;" 
d="M-31 -267q-29 0 -61.5 6t-45.5 13l17 83q27 -11 65 -11q53 0 53 32q0 30 -55 30q-9 0 -17.5 -0.5t-14.5 -1.5l36 126h94l-19 -64q47 -4 75 -30t28 -68q0 -53 -42 -84t-113 -31z" />
    <glyph glyph-name="uni0328" unicode="&#x328;" 
d="M9 -264q-66 0 -102.5 30t-36.5 84q0 53 44 104t123 90l54 -44q-45 -32 -64.5 -57t-19.5 -49q0 -35 41 -35q11 0 21.5 2.5t19.5 6.5l9 -112q-13 -9 -38 -14.5t-51 -5.5z" />
    <glyph glyph-name="uni0344" unicode="&#x344;" 
d="M-86 606l51 175h144l-88 -175h-107zM-174 601q-34 0 -56 21.5t-22 55.5q0 35 21 56t55 21q35 0 57 -21.5t22 -55.5t-21 -55.5t-56 -21.5zM175 601q-34 0 -56 21.5t-22 55.5q0 35 21 56t55 21q35 0 57 -21.5t22 -55.5t-21 -55.5t-56 -21.5z" />
    <glyph glyph-name="uni0374" unicode="&#x374;" horiz-adv-x="262" 
d="M40 462l30 282h169l-72 -282h-127z" />
    <glyph glyph-name="uni0375" unicode="&#x375;" horiz-adv-x="262" 
d="M16 -156l30 282h169l-72 -282h-127z" />
    <glyph glyph-name="uni037E" unicode="&#x37e;" horiz-adv-x="306" 
d="M-11 -169q42 72 65 159.5t24 182.5h166q-1 -98 -32.5 -190t-85.5 -152h-137zM153 331q-45 0 -73.5 27t-28.5 69t28.5 68.5t73.5 26.5t73.5 -26.5t28.5 -68.5t-28.5 -69t-73.5 -27z" />
    <glyph glyph-name="tonos" unicode="&#x384;" horiz-adv-x="500" 
d="M179 606l60 175h180l-97 -175h-143z" />
    <glyph glyph-name="dieresistonos" unicode="&#x385;" horiz-adv-x="500" 
d="M164 606l51 175h144l-88 -175h-107zM76 601q-34 0 -56 21.5t-22 55.5q0 35 21 56t55 21q35 0 57 -21.5t22 -55.5t-21 -55.5t-56 -21.5zM425 601q-34 0 -56 21.5t-22 55.5q0 35 21 56t55 21q35 0 57 -21.5t22 -55.5t-21 -55.5t-56 -21.5z" />
    <glyph glyph-name="Alphatonos" unicode="&#x386;" horiz-adv-x="892" 
d="M66 0l298 760h209l298 -760h-212l-59 177h-276l-59 -177h-199zM374 328h176l-88 267zM23 547l59 213h180l-97 -213h-142z" />
    <glyph glyph-name="anoteleia" unicode="&#x387;" horiz-adv-x="306" 
d="M153 331q-45 0 -73.5 27t-28.5 69t28.5 68.5t73.5 26.5t73.5 -26.5t28.5 -68.5t-28.5 -69t-73.5 -27z" />
    <glyph glyph-name="Epsilontonos" unicode="&#x388;" horiz-adv-x="909" 
d="M309 0v760h529v-153h-344v-146h303v-153h-303v-155h358v-153h-543zM22 547l59 213h180l-97 -213h-142z" />
    <glyph glyph-name="Etatonos" unicode="&#x389;" horiz-adv-x="1090" 
d="M309 0v760h203v-289h296v289h203v-760h-203v308h-296v-308h-203zM22 547l59 213h180l-97 -213h-142z" />
    <glyph glyph-name="Iotatonos" unicode="&#x38a;" horiz-adv-x="592" 
d="M309 0v760h203v-760h-203zM22 547l59 213h180l-97 -213h-142z" />
    <glyph glyph-name="Omicrontonos" unicode="&#x38c;" horiz-adv-x="1085" 
d="M629 -16q-90 0 -165.5 29t-130.5 82t-85.5 125.5t-30.5 159.5q0 84 31 156.5t87 126t131 83.5t163 30q90 0 165.5 -29t130.5 -82t85.5 -125.5t30.5 -159.5q0 -84 -31 -156.5t-87 -126t-131 -83.5t-163 -30zM629 161q59 0 105 28t72 77.5t26 112.5q0 64 -26 113.5
t-71.5 78t-105.5 28.5q-59 0 -105 -28t-72 -77t-26 -113t26 -113.5t72 -78t105 -28.5zM22 547l59 213h180l-97 -213h-142z" />
    <glyph glyph-name="Upsilontonos" unicode="&#x38e;" horiz-adv-x="1055" 
d="M573 0v309l-274 451h223l154 -302l154 302h217l-275 -451v-309h-199zM22 547l59 213h180l-97 -213h-142z" />
    <glyph glyph-name="Omegatonos" unicode="&#x38f;" horiz-adv-x="1089" 
d="M232 0v160h123q-61 46 -93 113.5t-32 148.5q0 77 29.5 141.5t83 112.5t126 74t159.5 26q118 0 207.5 -45t140 -124.5t50.5 -184.5q0 -168 -126 -262h124v-160h-346v156q68 39 103.5 100.5t35.5 139.5q0 60 -24 105.5t-66.5 71t-98.5 25.5t-98.5 -25.5t-66.5 -71
t-24 -105.5q0 -78 35.5 -139.5t102.5 -100.5v-156h-345zM22 547l59 213h180l-97 -213h-142z" />
    <glyph glyph-name="iotadieresistonos" unicode="&#x390;" horiz-adv-x="363" 
d="M225 -16q-89 0 -129 46t-40 150v336h182v-303q0 -38 9 -53t32 -15q11 0 24 4t23 8l19 -149q-42 -24 -120 -24zM81 606l51 175h144l-88 -175h-107zM-7 601q-34 0 -56 21.5t-22 55.5q0 35 21 56t55 21q35 0 57 -21.5t22 -55.5t-21 -55.5t-56 -21.5zM342 601q-34 0 -56 21.5
t-22 55.5q0 35 21 56t55 21q35 0 57 -21.5t22 -55.5t-21 -55.5t-56 -21.5z" />
    <glyph glyph-name="Alpha" unicode="&#x391;" horiz-adv-x="847" 
d="M21 0l298 760h209l298 -760h-212l-59 177h-276l-59 -177h-199zM329 328h176l-88 267z" />
    <glyph glyph-name="Beta" unicode="&#x392;" horiz-adv-x="724" 
d="M79 0v760h297q130 0 197.5 -50t67.5 -146q0 -53 -24.5 -95t-69.5 -64q62 -17 98 -66t36 -117q0 -109 -71 -165.5t-209 -56.5h-322zM360 622h-100v-171h99q100 0 100 88q0 83 -99 83zM384 318h-124v-180h128q101 0 101 90t-105 90z" />
    <glyph glyph-name="Gamma" unicode="&#x393;" horiz-adv-x="640" 
d="M79 0v760h526v-163h-323v-597h-203z" />
    <glyph glyph-name="uni0394" unicode="&#x394;" horiz-adv-x="841" 
d="M47 0v138l271 622h205l271 -622v-138h-747zM247 159h334l-167 428z" />
    <glyph glyph-name="Epsilon" unicode="&#x395;" horiz-adv-x="679" 
d="M79 0v760h529v-153h-344v-146h303v-153h-303v-155h358v-153h-543z" />
    <glyph glyph-name="Zeta" unicode="&#x396;" horiz-adv-x="757" 
d="M54 0v137l381 464h-357v159h610v-137l-380 -464h388v-159h-642z" />
    <glyph glyph-name="Eta" unicode="&#x397;" horiz-adv-x="860" 
d="M79 0v760h203v-289h296v289h203v-760h-203v308h-296v-308h-203z" />
    <glyph glyph-name="Theta" unicode="&#x398;" horiz-adv-x="912" 
d="M456 -16q-90 0 -165.5 29t-130.5 82t-85.5 125.5t-30.5 159.5q0 84 31 156.5t87 126t131 83.5t163 30q90 0 165.5 -29t130.5 -82t85.5 -125.5t30.5 -159.5q0 -84 -31 -156.5t-87 -126t-131 -83.5t-163 -30zM456 147q63 0 113 29.5t78.5 82t28.5 120.5q0 69 -28.5 121.5
t-78 82.5t-113.5 30q-63 0 -113 -29.5t-78.5 -82t-28.5 -120.5t28.5 -121t78.5 -83t113 -30zM327 303v152h258v-152h-258z" />
    <glyph glyph-name="Iota" unicode="&#x399;" horiz-adv-x="362" 
d="M79 0v760h203v-760h-203z" />
    <glyph glyph-name="Kappa" unicode="&#x39a;" horiz-adv-x="817" 
d="M79 0v760h200v-312l259 312h241l-322 -363l353 -397h-261l-270 326v-326h-200z" />
    <glyph glyph-name="Lambda" unicode="&#x39b;" horiz-adv-x="817" 
d="M21 0l282 760h211l282 -760h-214l-176 523l-176 -523h-209z" />
    <glyph glyph-name="Mu.alt" unicode="&#x39c;" horiz-adv-x="1016" 
d="M60 0l44 760h187l219 -444l215 444h187l45 -760h-187l-17 467l-167 -342h-155l-169 337l-15 -462h-187z" />
    <glyph glyph-name="Nu" unicode="&#x39d;" horiz-adv-x="861" 
d="M79 0v760h173l346 -464v464h184v-760h-173l-346 465v-465h-184z" />
    <glyph glyph-name="Xi" unicode="&#x39e;" horiz-adv-x="693" 
d="M71 600v160h551v-160h-551zM157 304v160h379v-160h-379zM56 0v160h581v-160h-581z" />
    <glyph glyph-name="Omicron" unicode="&#x39f;" horiz-adv-x="912" 
d="M456 -16q-90 0 -165.5 29t-130.5 82t-85.5 125.5t-30.5 159.5q0 84 31 156.5t87 126t131 83.5t163 30q90 0 165.5 -29t130.5 -82t85.5 -125.5t30.5 -159.5q0 -84 -31 -156.5t-87 -126t-131 -83.5t-163 -30zM456 161q59 0 105 28t72 77.5t26 112.5q0 64 -26 113.5
t-71.5 78t-105.5 28.5q-59 0 -105 -28t-72 -77t-26 -113t26 -113.5t72 -78t105 -28.5z" />
    <glyph glyph-name="Pi" unicode="&#x3a0;" horiz-adv-x="850" 
d="M79 0v760h692v-760h-203v597h-286v-597h-203z" />
    <glyph glyph-name="Rho" unicode="&#x3a1;" horiz-adv-x="683" 
d="M79 0v760h277q92 0 158.5 -31.5t102.5 -89.5t36 -138q0 -122 -79 -191.5t-218 -69.5h-85v-240h-192zM326 613h-55v-225h55q132 0 132 113q0 112 -132 112z" />
    <glyph glyph-name="Sigma" unicode="&#x3a3;" horiz-adv-x="720" 
d="M54 0v135l251 243l-249 247v135h593v-153h-329l176 -174v-100l-189 -180h356v-153h-609z" />
    <glyph glyph-name="Tau" unicode="&#x3a4;" horiz-adv-x="739" 
d="M268 0v597h-233v163h669v-163h-233v-597h-203z" />
    <glyph glyph-name="Upsilon" unicode="&#x3a5;" horiz-adv-x="764" 
d="M282 0v309l-274 451h223l154 -302l154 302h217l-275 -451v-309h-199z" />
    <glyph glyph-name="Phi" unicode="&#x3a6;" horiz-adv-x="1022" 
d="M412 -21v75q-112 7 -194.5 48t-128 111.5t-45.5 166.5q0 95 45.5 166t128.5 112t194 48v75h197v-75q112 -7 195 -48t128.5 -111.5t45.5 -166.5q0 -95 -45.5 -166t-128.5 -112t-195 -48v-75h-197zM783 380q0 74 -47.5 118t-129.5 53v-342q82 9 129.5 53t47.5 118zM239 380
q0 -74 47.5 -118t129.5 -53v342q-82 -9 -129.5 -53t-47.5 -118z" />
    <glyph glyph-name="Chi" unicode="&#x3a7;" horiz-adv-x="796" 
d="M15 0l264 396l-246 364h237l134 -234l133 234h230l-249 -373l263 -387h-238l-153 258l-145 -258h-230z" />
    <glyph glyph-name="Psi" unicode="&#x3a8;" horiz-adv-x="995" 
d="M405 0v206q-157 10 -244 99.5t-87 243.5v211h185v-196q0 -99 34 -145t112 -53v394h185v-394q77 7 111.5 53t34.5 145v196h185v-211q0 -154 -86.5 -243.5t-244.5 -99.5v-206h-185z" />
    <glyph glyph-name="uni03A9" unicode="&#x3a9;" horiz-adv-x="922" 
d="M65 0v160h123q-61 46 -93 113.5t-32 148.5q0 77 29.5 141.5t83 112.5t126 74t159.5 26q118 0 207.5 -45t140 -124.5t50.5 -184.5q0 -168 -126 -262h124v-160h-346v156q68 39 103.5 100.5t35.5 139.5q0 60 -24 105.5t-66.5 71t-98.5 25.5t-98.5 -25.5t-66.5 -71
t-24 -105.5q0 -78 35.5 -139.5t102.5 -100.5v-156h-345z" />
    <glyph glyph-name="Iotadieresis" unicode="&#x3aa;" horiz-adv-x="362" 
d="M79 0v760h203v-760h-203zM301 832q-38 0 -63 23t-25 60t25 60t63 23q40 0 65 -23t25 -60t-25 -60t-65 -23zM60 832q-39 0 -64 23t-25 60t25 60t64 23t64 -23t25 -60t-25 -60t-64 -23z" />
    <glyph glyph-name="Upsilondieresis" unicode="&#x3ab;" horiz-adv-x="764" 
d="M282 0v309l-274 451h223l154 -302l154 302h217l-275 -451v-309h-199zM502 832q-38 0 -63 23t-25 60t25 60t63 23q40 0 65 -23t25 -60t-25 -60t-65 -23zM261 832q-39 0 -64 23t-25 60t25 60t64 23t64 -23t25 -60t-25 -60t-64 -23z" />
    <glyph glyph-name="alphatonos" unicode="&#x3ac;" horiz-adv-x="664" 
d="M262 -16q-66 0 -117 35t-79.5 96.5t-28.5 140.5q0 80 29.5 142t81 98t115.5 36q51 0 89.5 -23.5t58.5 -61.5l2 69h170v-313q0 -25 6.5 -38t23.5 -13q8 0 14.5 1.5t13.5 3.5l9 -145q-17 -10 -46 -15.5t-59 -5.5q-56 0 -87.5 22t-40.5 64q-24 -49 -66 -71t-89 -22zM314 145
q44 0 70.5 32t26.5 81q0 50 -26.5 81.5t-70.5 31.5q-42 0 -69.5 -31.5t-27.5 -81.5q0 -49 27.5 -81t69.5 -32zM231 606l60 175h180l-97 -175h-143z" />
    <glyph glyph-name="epsilontonos" unicode="&#x3ad;" horiz-adv-x="544" 
d="M285 -16q-122 0 -185 40t-63 116q0 46 26 77.5t74 44.5q-39 12 -62 42t-23 72q0 72 63.5 114t172.5 42q59 0 113.5 -11t90.5 -26l-17 -131q-44 15 -86 23t-82 8q-80 0 -80 -42q0 -24 21 -32.5t67 -8.5h90v-103h-79q-52 0 -75.5 -9t-23.5 -34q0 -22 21.5 -32.5t61.5 -10.5
q44 0 89.5 9.5t87.5 25.5l16 -137q-34 -15 -92.5 -26t-125.5 -11zM203 606l60 175h180l-97 -175h-143z" />
    <glyph glyph-name="etatonos" unicode="&#x3ae;" horiz-adv-x="645" 
d="M408 -247v527q0 91 -69 91q-38 0 -57 -26t-19 -73v-272h-182v320q0 26 -8 35t-22 9q-15 0 -28 -5l-8 143q16 11 41.5 17t59.5 6q57 0 89.5 -22t42.5 -60q19 41 61.5 65t94.5 24q91 0 138 -55.5t47 -162.5v-561h-181zM248 606l60 175h180l-97 -175h-143z" />
    <glyph glyph-name="iotatonos" unicode="&#x3af;" horiz-adv-x="363" 
d="M225 -16q-89 0 -129 46t-40 150v336h182v-303q0 -38 9 -53t32 -15q11 0 24 4t23 8l19 -149q-42 -24 -120 -24zM59 606l60 175h180l-97 -175h-143z" />
    <glyph glyph-name="upsilondieresistonos.alt" unicode="&#x3b0;" horiz-adv-x="604" 
d="M304 -16q-248 0 -248 263v269h182v-263q0 -56 17 -82t52 -26q43 0 63 35t20 99q0 59 -12.5 115t-38.5 115l179 13q24 -54 36.5 -114.5t12.5 -128.5q0 -145 -65.5 -220t-197.5 -75zM215 606l51 175h144l-88 -175h-107zM127 601q-34 0 -56 21.5t-22 55.5q0 35 21 56t55 21
q35 0 57 -21.5t22 -55.5t-21 -55.5t-56 -21.5zM476 601q-34 0 -56 21.5t-22 55.5q0 35 21 56t55 21q35 0 57 -21.5t22 -55.5t-21 -55.5t-56 -21.5z" />
    <glyph glyph-name="alpha" unicode="&#x3b1;" horiz-adv-x="664" 
d="M262 -16q-66 0 -117 35t-79.5 96.5t-28.5 140.5q0 80 29.5 142t81 98t115.5 36q51 0 89.5 -23.5t58.5 -61.5l2 69h170v-313q0 -25 6.5 -38t23.5 -13q8 0 14.5 1.5t13.5 3.5l9 -145q-17 -10 -46 -15.5t-59 -5.5q-56 0 -87.5 22t-40.5 64q-24 -49 -66 -71t-89 -22zM314 145
q44 0 70.5 32t26.5 81q0 50 -26.5 81.5t-70.5 31.5q-42 0 -69.5 -31.5t-27.5 -81.5q0 -49 27.5 -81t69.5 -32z" />
    <glyph glyph-name="beta" unicode="&#x3b2;" horiz-adv-x="660" 
d="M60 -245v777q0 87 33 150.5t94.5 98t145.5 34.5q73 0 127 -26t84 -73.5t30 -113.5q0 -62 -31.5 -107.5t-82.5 -64.5q77 -15 120 -70.5t43 -139.5q0 -71 -28.5 -124t-78.5 -82.5t-115 -29.5q-56 0 -96 20.5t-64 57.5v-307h-181zM350 142q42 0 69 26t27 71q0 53 -33.5 79.5
t-89.5 26.5h-19v140h16q37 0 60.5 24.5t23.5 71.5q0 39 -21.5 61t-53.5 22q-40 0 -64 -31.5t-24 -92.5v-249q0 -79 32 -114t77 -35z" />
    <glyph glyph-name="gamma" unicode="&#x3b3;" horiz-adv-x="597" 
d="M209 -245v227l-196 534h201l87 -375l95 375h189l-195 -532v-229h-181z" />
    <glyph glyph-name="delta" unicode="&#x3b4;" horiz-adv-x="637" 
d="M320 -16q-84 0 -147.5 33t-99.5 92.5t-36 138.5q0 83 43.5 141.5t117.5 81.5q-51 28 -78.5 69t-27.5 91q0 86 66 135t174 49q60 0 115 -13.5t93 -33.5l-20 -151q-40 19 -83.5 29.5t-81.5 10.5q-37 0 -61 -11t-24 -37q0 -25 23.5 -42t59.5 -32q37 -15 80 -35t81 -51
t62.5 -79t24.5 -118q0 -80 -35.5 -140.5t-98.5 -94t-147 -33.5zM319 145q45 0 73.5 31.5t28.5 80.5t-28.5 80t-73.5 31t-73.5 -31.5t-28.5 -79.5q0 -49 28.5 -80.5t73.5 -31.5z" />
    <glyph glyph-name="epsilon" unicode="&#x3b5;" horiz-adv-x="544" 
d="M285 -16q-122 0 -185 40t-63 116q0 46 26 77.5t74 44.5q-39 12 -62 42t-23 72q0 72 63.5 114t172.5 42q59 0 113.5 -11t90.5 -26l-17 -131q-44 15 -86 23t-82 8q-80 0 -80 -42q0 -24 21 -32.5t67 -8.5h90v-103h-79q-52 0 -75.5 -9t-23.5 -34q0 -22 21.5 -32.5t61.5 -10.5
q44 0 89.5 9.5t87.5 25.5l16 -137q-34 -15 -92.5 -26t-125.5 -11z" />
    <glyph glyph-name="zeta" unicode="&#x3b6;" horiz-adv-x="525" 
d="M458 -201l-165 13q14 17 27.5 42.5t13.5 49.5q0 27 -18 41t-52 21l-4 1q-69 17 -112.5 45t-67.5 63.5t-33.5 73.5t-9.5 74q0 103 63 212.5t185 229.5h-223v145h436v-122l-26 -24q-126 -116 -190.5 -224t-64.5 -187q0 -104 115 -131l4 -1q47 -11 86.5 -31t63 -55.5
t23.5 -91.5q0 -44 -15 -81t-36 -63z" />
    <glyph glyph-name="eta" unicode="&#x3b7;" horiz-adv-x="645" 
d="M408 -247v527q0 91 -69 91q-38 0 -57 -26t-19 -73v-272h-182v320q0 26 -8 35t-22 9q-15 0 -28 -5l-8 143q16 11 41.5 17t59.5 6q57 0 89.5 -22t42.5 -60q19 41 61.5 65t94.5 24q91 0 138 -55.5t47 -162.5v-561h-181z" />
    <glyph glyph-name="theta" unicode="&#x3b8;" horiz-adv-x="656" 
d="M328 -16q-93 0 -158 50t-99 143t-34 223q0 103 21 184q30 111 98.5 171t171.5 60q94 0 158.5 -50t98.5 -143t34 -223q0 -103 -21 -184q-30 -111 -98.5 -171t-171.5 -60zM221 544q-8 -34 -11 -76h236q-7 97 -37.5 144.5t-80.5 47.5q-78 0 -107 -116zM328 139q79 0 106 116
q9 33 12 76h-236q7 -97 37.5 -144.5t80.5 -47.5z" />
    <glyph glyph-name="iota" unicode="&#x3b9;" horiz-adv-x="363" 
d="M225 -16q-89 0 -129 46t-40 150v336h182v-303q0 -38 9 -53t32 -15q11 0 24 4t23 8l19 -149q-42 -24 -120 -24z" />
    <glyph glyph-name="kappa" unicode="&#x3ba;" horiz-adv-x="643" 
d="M61 0v516h181v-204l158 204h209l-208 -246l243 -270h-223l-179 206v-206h-181z" />
    <glyph glyph-name="lambda" unicode="&#x3bb;" horiz-adv-x="630" 
d="M13 0l212 520l-126 290h181l337 -810h-196l-107 330l-106 -330h-195z" />
    <glyph glyph-name="uni03BC" unicode="&#x3bc;" horiz-adv-x="645" 
d="M57 -245v761h181v-281q0 -90 69 -90q36 0 56 26t20 72v273h181v-313q0 -25 6.5 -38t23.5 -13q8 0 14.5 1.5t13.5 3.5l8 -145q-15 -10 -40.5 -15.5t-53.5 -5.5q-90 0 -113 71q-17 -42 -44.5 -60t-64.5 -18q-27 0 -45.5 7.5t-30.5 21.5v-258h-181z" />
    <glyph glyph-name="nu" unicode="&#x3bd;" horiz-adv-x="597" 
d="M203 0l-190 516h201l87 -342l95 342h189l-191 -516h-191z" />
    <glyph glyph-name="xi" unicode="&#x3be;" horiz-adv-x="566" 
d="M497 -201l-165 13q14 17 27.5 41.5t13.5 49.5q0 29 -21.5 41.5t-62.5 21.5l-4 1q-75 18 -130.5 48t-86.5 78t-31 118q0 72 36.5 128.5t112.5 74.5q-64 23 -94.5 68t-30.5 106q0 68 34 119t96.5 79.5t147.5 28.5q45 0 96 -9.5t92 -30.5l-21 -146q-25 13 -65 21.5t-76 8.5
q-61 0 -95.5 -25.5t-34.5 -67.5q0 -38 31 -63.5t94 -25.5h91v-140h-80q-73 0 -113.5 -26.5t-40.5 -78.5q0 -46 36 -70t103 -40l5 -1q50 -12 92.5 -31t68 -54t25.5 -95q0 -46 -15 -82t-35 -60z" />
    <glyph glyph-name="omicron" unicode="&#x3bf;" horiz-adv-x="634" 
d="M317 -16q-81 0 -144 35.5t-99.5 97.5t-36.5 141t36.5 141t99.5 97.5t144 35.5q82 0 145 -35t99 -97t36 -142q0 -79 -36 -141t-99.5 -97.5t-144.5 -35.5zM317 145q44 0 72 32t28 81q0 50 -28 81.5t-72 31.5t-72 -31.5t-28 -81.5q0 -49 28 -81t72 -32z" />
    <glyph glyph-name="pi.alt" unicode="&#x3c0;" horiz-adv-x="701" 
d="M564 -14q-87 0 -123.5 40.5t-36.5 125.5v219h-122v-371h-178v371h-83v145h652v-145h-91v-176q0 -28 9.5 -39.5t34.5 -11.5q20 0 36 6l9 -142q-14 -9 -44 -15.5t-63 -6.5z" />
    <glyph glyph-name="rho" unicode="&#x3c1;" horiz-adv-x="653" 
d="M56 -245v470q0 94 34.5 162.5t97.5 106.5t148 38q83 0 146 -35t98.5 -96t35.5 -141q0 -79 -31.5 -141.5t-85 -98.5t-120.5 -36q-91 0 -141 58v-287h-182zM336 145q44 0 71.5 32t27.5 81q0 50 -27.5 81.5t-71.5 31.5t-72 -31.5t-28 -81.5q0 -49 28.5 -81t71.5 -32z" />
    <glyph glyph-name="sigma1" unicode="&#x3c2;" horiz-adv-x="547" 
d="M457 -201l-165 13q14 17 27.5 42.5t13.5 49.5q0 27 -18.5 41t-51.5 21l-4 1q-67 16 -110.5 45.5t-67.5 67.5t-34 80t-10 83q0 86 36 150.5t100.5 100.5t148.5 36q47 0 96.5 -11t81.5 -28l-22 -151q-34 15 -66.5 22t-62.5 7q-65 0 -98.5 -33.5t-33.5 -89.5q0 -46 23.5 -77
t90.5 -47l4 -1q50 -11 88.5 -31.5t61 -57t22.5 -96.5q0 -37 -15 -75t-35 -62z" />
    <glyph glyph-name="sigma" unicode="&#x3c3;" horiz-adv-x="661" 
d="M319 -16q-81 0 -145 34.5t-100.5 95t-36.5 138.5q0 81 38.5 140.5t110.5 91.5t172 32h282v-145h-127q40 -23 62 -61t22 -88q0 -69 -36.5 -123t-99.5 -84.5t-142 -30.5zM318 145q45 0 72 30t27 77t-27 77t-72 30q-44 0 -72.5 -30t-28.5 -77t28 -77t73 -30z" />
    <glyph glyph-name="tau.alt" unicode="&#x3c4;" horiz-adv-x="507" 
d="M315 -16q-92 0 -132.5 45.5t-40.5 151.5v190h-128v145h465v-145h-156v-163q0 -35 10.5 -49t37.5 -14q11 0 24.5 3.5t22.5 9.5l18 -149q-19 -10 -52.5 -17.5t-68.5 -7.5z" />
    <glyph glyph-name="upsilon.alt" unicode="&#x3c5;" horiz-adv-x="604" 
d="M304 -16q-248 0 -248 263v269h182v-263q0 -56 17 -82t52 -26q43 0 63 35t20 99q0 59 -12.5 115t-38.5 115l179 13q24 -54 36.5 -114.5t12.5 -128.5q0 -145 -65.5 -220t-197.5 -75z" />
    <glyph glyph-name="phi" unicode="&#x3c6;" horiz-adv-x="841" 
d="M337 -245v230q-141 11 -220.5 82.5t-79.5 189.5t80 190t220 82v116h166v-116q141 -10 221 -82t80 -190t-79.5 -189.5t-221.5 -82.5v-230h-166zM207 257q0 -112 138 -128v255q-138 -13 -138 -127zM634 257q0 114 -138 127v-255q138 16 138 128z" />
    <glyph glyph-name="chi" unicode="&#x3c7;" horiz-adv-x="652" 
d="M11 -245l215 392l-202 369h195l106 -239l111 239h190l-201 -368l216 -393h-196l-119 267l-125 -267h-190z" />
    <glyph glyph-name="psi.alt" unicode="&#x3c8;" horiz-adv-x="858" 
d="M354 -245v231q-158 13 -228 86.5t-70 211.5v232h178v-214q0 -73 26 -109.5t94 -46.5v499h166v-499q72 11 98 51.5t26 118.5q0 47 -8 93t-25 100l175 12q16 -47 25.5 -97t9.5 -108q0 -165 -74 -241.5t-227 -88.5v-231h-166z" />
    <glyph glyph-name="omega" unicode="&#x3c9;" horiz-adv-x="857" 
d="M257 -17q-67 0 -116.5 33.5t-76.5 95t-27 143.5q0 47 9.5 97t26 95t37.5 76l184 -14q-34 -49 -56.5 -114.5t-22.5 -128.5q0 -54 15.5 -83.5t49.5 -29.5q23 0 38 14.5t22.5 53t7.5 109.5v96h162v-96q0 -71 7.5 -109.5t22.5 -53t37 -14.5q35 0 50.5 29.5t15.5 83.5
q0 63 -22.5 128.5t-57.5 114.5l184 14q21 -31 38 -76t26.5 -95t9.5 -97q0 -83 -27 -144t-76.5 -94.5t-117.5 -33.5q-56 0 -99.5 25t-72.5 76q-28 -51 -71.5 -76t-99.5 -25z" />
    <glyph glyph-name="iotadieresis" unicode="&#x3ca;" horiz-adv-x="363" 
d="M225 -16q-89 0 -129 46t-40 150v336h182v-303q0 -38 9 -53t32 -15q11 0 24 4t23 8l19 -149q-42 -24 -120 -24zM265 598q-38 0 -61.5 22t-23.5 58q0 35 24 57.5t61 22.5q38 0 62 -22.5t24 -57.5q0 -36 -24 -58t-62 -22zM27 598q-38 0 -62 22t-24 58q0 35 24.5 57.5
t61.5 22.5q38 0 61.5 -22.5t23.5 -57.5q0 -36 -23.5 -58t-61.5 -22z" />
    <glyph glyph-name="upsilondieresis.alt" unicode="&#x3cb;" horiz-adv-x="604" 
d="M304 -16q-248 0 -248 263v269h182v-263q0 -56 17 -82t52 -26q43 0 63 35t20 99q0 59 -12.5 115t-38.5 115l179 13q24 -54 36.5 -114.5t12.5 -128.5q0 -145 -65.5 -220t-197.5 -75zM420 598q-38 0 -61.5 22t-23.5 58q0 35 24 57.5t61 22.5q38 0 62 -22.5t24 -57.5
q0 -36 -24 -58t-62 -22zM182 598q-38 0 -62 22t-24 58q0 35 24.5 57.5t61.5 22.5q38 0 61.5 -22.5t23.5 -57.5q0 -36 -23.5 -58t-61.5 -22z" />
    <glyph glyph-name="omicrontonos" unicode="&#x3cc;" horiz-adv-x="634" 
d="M317 -16q-81 0 -144 35.5t-99.5 97.5t-36.5 141t36.5 141t99.5 97.5t144 35.5q82 0 145 -35t99 -97t36 -142q0 -79 -36 -141t-99.5 -97.5t-144.5 -35.5zM317 145q44 0 72 32t28 81q0 50 -28 81.5t-72 31.5t-72 -31.5t-28 -81.5q0 -49 28 -81t72 -32zM230 606l60 175h180
l-97 -175h-143z" />
    <glyph glyph-name="upsilontonos.alt" unicode="&#x3cd;" horiz-adv-x="604" 
d="M304 -16q-248 0 -248 263v269h182v-263q0 -56 17 -82t52 -26q43 0 63 35t20 99q0 59 -12.5 115t-38.5 115l179 13q24 -54 36.5 -114.5t12.5 -128.5q0 -145 -65.5 -220t-197.5 -75zM214 606l60 175h180l-97 -175h-143z" />
    <glyph glyph-name="omegatonos" unicode="&#x3ce;" horiz-adv-x="857" 
d="M257 -17q-67 0 -116.5 33.5t-76.5 95t-27 143.5q0 47 9.5 97t26 95t37.5 76l184 -14q-34 -49 -56.5 -114.5t-22.5 -128.5q0 -54 15.5 -83.5t49.5 -29.5q23 0 38 14.5t22.5 53t7.5 109.5v96h162v-96q0 -71 7.5 -109.5t22.5 -53t37 -14.5q35 0 50.5 29.5t15.5 83.5
q0 63 -22.5 128.5t-57.5 114.5l184 14q21 -31 38 -76t26.5 -95t9.5 -97q0 -83 -27 -144t-76.5 -94.5t-117.5 -33.5q-56 0 -99.5 25t-72.5 76q-28 -51 -71.5 -76t-99.5 -25zM341 606l60 175h180l-97 -175h-143z" />
    <glyph glyph-name="uni03CF" unicode="&#x3cf;" horiz-adv-x="847" 
d="M79 0v760h200v-308l262 308h240l-298 -330q100 -4 171.5 -44t110 -108t38.5 -158q0 -91 -39.5 -159t-110 -106t-162.5 -38q-40 0 -75 7t-57 17l20 154q32 -17 74 -17q63 0 104 39t41 104q0 80 -57 129t-174 49q-48 0 -88 -8v-291h-200z" />
    <glyph glyph-name="uni03D7" unicode="&#x3d7;" horiz-adv-x="648" 
d="M61 0v516h181v-214l163 214h206l-191 -232q59 -40 107 -86t76.5 -101t28.5 -121q0 -67 -30.5 -116.5t-85.5 -76.5t-127 -27q-40 0 -74 7t-61 20l19 132q17 -8 39.5 -15t48.5 -7q38 0 65 23t27 65q0 56 -42.5 106t-115.5 98l-53 -66v-119h-181z" />
    <glyph glyph-name="uni0400" unicode="&#x400;" horiz-adv-x="679" 
d="M79 0v760h529v-153h-344v-146h303v-153h-303v-155h358v-153h-543zM305 835l-163 154h210l117 -154h-164z" />
    <glyph glyph-name="uni0401" unicode="&#x401;" horiz-adv-x="679" 
d="M79 0v760h529v-153h-344v-146h303v-153h-303v-155h358v-153h-543zM472 832q-38 0 -63 23t-25 60t25 60t63 23q40 0 65 -23t25 -60t-25 -60t-65 -23zM231 832q-39 0 -64 23t-25 60t25 60t64 23t64 -23t25 -60t-25 -60t-64 -23z" />
    <glyph glyph-name="uni0402" unicode="&#x402;" horiz-adv-x="936" 
d="M231 0v597h-196v163h648v-163h-249v-147q52 10 86.5 13.5t75.5 3.5q94 0 162 -29t105 -82.5t37 -126.5q0 -112 -71.5 -175t-196.5 -63q-27 0 -57.5 2.5t-49.5 6.5l11 155q22 -1 35.5 -2t26.5 -1q101 0 101 76q0 84 -130 84q-77 0 -135 -16v-296h-203z" />
    <glyph glyph-name="uni0403" unicode="&#x403;" horiz-adv-x="640" 
d="M79 0v760h526v-163h-323v-597h-203zM213 835l117 154h211l-164 -154h-164z" />
    <glyph glyph-name="uni0404" unicode="&#x404;" horiz-adv-x="759" 
d="M688 215l20 -164q-46 -28 -115 -45t-137 -17q-127 0 -219.5 47.5t-142.5 134.5t-50 207q0 87 30.5 159t86 124.5t132 81t168.5 28.5q65 0 130.5 -16t110.5 -43l-30 -157q-47 23 -99 36t-99 13q-85 0 -143 -37t-80 -104h313v-150h-318q18 -74 78 -115.5t151 -41.5
q48 0 106.5 16t106.5 43z" />
    <glyph glyph-name="uni0405" unicode="&#x405;" horiz-adv-x="667" 
d="M313 -16q-51 0 -102.5 8.5t-95 23t-71.5 33.5l18 162q48 -30 114 -48.5t128 -18.5q56 0 85.5 18.5t29.5 53.5q0 21 -11.5 35.5t-39.5 27t-79 27.5q-123 34 -177 89.5t-54 146.5q0 109 77.5 171.5t211.5 62.5q65 0 129.5 -16t107.5 -43l-25 -157q-40 26 -96.5 41
t-106.5 15q-104 0 -104 -67q0 -29 24 -46t89 -36q136 -39 195 -94.5t59 -146.5q0 -115 -80.5 -178.5t-225.5 -63.5z" />
    <glyph glyph-name="uni0406" unicode="&#x406;" horiz-adv-x="362" 
d="M79 0v760h203v-760h-203z" />
    <glyph glyph-name="uni0407" unicode="&#x407;" horiz-adv-x="362" 
d="M79 0v760h203v-760h-203zM301 832q-38 0 -63 23t-25 60t25 60t63 23q40 0 65 -23t25 -60t-25 -60t-65 -23zM60 832q-39 0 -64 23t-25 60t25 60t64 23t64 -23t25 -60t-25 -60t-64 -23z" />
    <glyph glyph-name="uni0408" unicode="&#x408;" horiz-adv-x="583" 
d="M228 -16q-55 0 -108 11.5t-85 30.5l18 156q32 -17 66.5 -25.5t68.5 -8.5q62 0 89.5 31t27.5 103v478h203v-490q0 -286 -280 -286z" />
    <glyph glyph-name="uni0409.alt" unicode="&#x409;" horiz-adv-x="1202" 
d="M17 1l9 156q7 -1 17 -1.5t17 -0.5q32 0 52.5 12.5t33 43t19 85t10.5 138.5l13 326h587v-240h100q92 0 158.5 -31.5t102.5 -90t36 -138.5q0 -81 -36 -139.5t-102.5 -89.5t-158.5 -31h-292v597h-213l-9 -212q-4 -112 -19 -187.5t-44.5 -120.5t-76 -64.5t-115.5 -19.5
q-24 0 -48.5 2t-40.5 6zM844 372h-69v-225h69q133 0 133 113q0 112 -133 112z" />
    <glyph glyph-name="uni040A" unicode="&#x40a;" horiz-adv-x="1170" 
d="M79 0v760h203v-286h270v286h192v-248h100q92 0 158 -31t102 -88t36 -136q0 -80 -36 -137.5t-102 -88.5t-158 -31h-292v311h-270v-311h-203zM813 365h-69v-218h69q133 0 133 110q0 108 -133 108z" />
    <glyph glyph-name="uni040B" unicode="&#x40b;" horiz-adv-x="946" 
d="M231 0v597h-196v163h648v-163h-249v-147q37 7 62.5 10.5t47.5 5t49 1.5q137 0 214.5 -63.5t77.5 -179.5v-224h-203v183q0 126 -142 126q-25 0 -49 -3t-57 -11v-295h-203z" />
    <glyph glyph-name="uni040C" unicode="&#x40c;" horiz-adv-x="817" 
d="M79 0v760h200v-312l259 312h241l-322 -363l353 -397h-261l-270 326v-326h-200zM276 835l117 154h211l-164 -154h-164z" />
    <glyph glyph-name="uni040D" unicode="&#x40d;" horiz-adv-x="861" 
d="M79 0v760h184v-467l349 467h169v-760h-183v469l-350 -469h-169zM383 835l-163 154h210l117 -154h-164z" />
    <glyph glyph-name="uni040E" unicode="&#x40e;" horiz-adv-x="798" 
d="M198 0l120 219l-306 541h221l182 -357l155 357h216l-377 -760h-211zM401 806q-97 0 -155 46.5t-58 124.5q0 8 1 13h136v-7q2 -32 22 -51t54 -19q35 0 55 19t21 52v6h136q1 -5 1 -13q0 -78 -57.5 -124.5t-155.5 -46.5z" />
    <glyph glyph-name="uni040F" unicode="&#x40f;" horiz-adv-x="847" 
d="M327 -179v179h-248v760h203v-597h283v597h203v-760h-247v-179h-194z" />
    <glyph glyph-name="uni0410" unicode="&#x410;" horiz-adv-x="847" 
d="M21 0l298 760h209l298 -760h-212l-59 177h-276l-59 -177h-199zM329 328h176l-88 267z" />
    <glyph glyph-name="uni0411" unicode="&#x411;" horiz-adv-x="711" 
d="M79 0v760h526v-156h-345v-139h120q140 0 214 -62t74 -170q0 -107 -74 -170t-214 -63h-301zM365 326h-105v-187h105q54 0 82.5 25.5t28.5 67.5q0 44 -29 69t-82 25z" />
    <glyph glyph-name="uni0412" unicode="&#x412;" horiz-adv-x="724" 
d="M79 0v760h297q130 0 197.5 -50t67.5 -146q0 -53 -24.5 -95t-69.5 -64q62 -17 98 -66t36 -117q0 -109 -71 -165.5t-209 -56.5h-322zM360 622h-100v-171h99q100 0 100 88q0 83 -99 83zM384 318h-124v-180h128q101 0 101 90t-105 90z" />
    <glyph glyph-name="uni0413" unicode="&#x413;" horiz-adv-x="640" 
d="M79 0v760h526v-163h-323v-597h-203z" />
    <glyph glyph-name="uni0414.alt" unicode="&#x414;" horiz-adv-x="917" 
d="M18 -179v342h81q26 32 42.5 76t26 109.5t13.5 161.5l10 250h593v-597h107v-342h-195v179h-484v-179h-194zM367 460q-4 -105 -18.5 -178t-39.5 -119h276v434h-213z" />
    <glyph glyph-name="uni0415" unicode="&#x415;" horiz-adv-x="679" 
d="M79 0v760h529v-153h-344v-146h303v-153h-303v-155h358v-153h-543z" />
    <glyph glyph-name="uni0416" unicode="&#x416;" horiz-adv-x="1198" 
d="M14 0l317 392l-290 368h229l230 -315v315h197v-317l231 317h227l-289 -364l318 -396h-247l-240 331v-331h-197v330l-242 -330h-244z" />
    <glyph glyph-name="uni0417" unicode="&#x417;" horiz-adv-x="680" 
d="M48 47l33 155q47 -27 110.5 -43.5t124.5 -16.5q60 0 92 23t32 66q0 39 -27 59.5t-77 20.5h-155v147h138q101 0 101 77q0 41 -33 62t-95 21q-46 0 -95.5 -14t-94.5 -40l-41 150q46 28 113 45t135 17q139 0 216 -55t77 -154q0 -58 -27 -99.5t-78 -63.5q62 -18 98.5 -68
t36.5 -119q0 -111 -81.5 -172t-228.5 -61q-49 0 -100 8t-96 22t-78 33z" />
    <glyph glyph-name="uni0418" unicode="&#x418;" horiz-adv-x="861" 
d="M79 0v760h184v-467l349 467h169v-760h-183v469l-350 -469h-169z" />
    <glyph glyph-name="uni0419" unicode="&#x419;" horiz-adv-x="861" 
d="M79 0v760h184v-467l349 467h169v-760h-183v469l-350 -469h-169zM430 806q-97 0 -155 46.5t-58 124.5q0 8 1 13h136v-7q2 -32 22 -51t54 -19q35 0 55 19t21 52v6h136q1 -5 1 -13q0 -78 -57.5 -124.5t-155.5 -46.5z" />
    <glyph glyph-name="uni041A" unicode="&#x41a;" horiz-adv-x="817" 
d="M79 0v760h200v-312l259 312h241l-322 -363l353 -397h-261l-270 326v-326h-200z" />
    <glyph glyph-name="uni041B.alt" unicode="&#x41b;" horiz-adv-x="867" 
d="M17 1l9 156q7 -1 17 -1.5t17 -0.5q32 0 52.5 12.5t33 43t19 85t10.5 138.5l13 326h599v-760h-198v597h-219l-9 -212q-4 -112 -19 -187.5t-44.5 -120.5t-76 -64.5t-115.5 -19.5q-24 0 -48.5 2t-40.5 6z" />
    <glyph glyph-name="uni041C.alt" unicode="&#x41c;" horiz-adv-x="1016" 
d="M60 0l44 760h187l219 -444l215 444h187l45 -760h-187l-17 467l-167 -342h-155l-169 337l-15 -462h-187z" />
    <glyph glyph-name="uni041D" unicode="&#x41d;" horiz-adv-x="860" 
d="M79 0v760h203v-289h296v289h203v-760h-203v308h-296v-308h-203z" />
    <glyph glyph-name="uni041E" unicode="&#x41e;" horiz-adv-x="912" 
d="M456 -16q-90 0 -165.5 29t-130.5 82t-85.5 125.5t-30.5 159.5q0 84 31 156.5t87 126t131 83.5t163 30q90 0 165.5 -29t130.5 -82t85.5 -125.5t30.5 -159.5q0 -84 -31 -156.5t-87 -126t-131 -83.5t-163 -30zM456 161q59 0 105 28t72 77.5t26 112.5q0 64 -26 113.5
t-71.5 78t-105.5 28.5q-59 0 -105 -28t-72 -77t-26 -113t26 -113.5t72 -78t105 -28.5z" />
    <glyph glyph-name="uni041F" unicode="&#x41f;" horiz-adv-x="850" 
d="M79 0v760h692v-760h-203v597h-286v-597h-203z" />
    <glyph glyph-name="uni0420" unicode="&#x420;" horiz-adv-x="683" 
d="M79 0v760h277q92 0 158.5 -31.5t102.5 -89.5t36 -138q0 -122 -79 -191.5t-218 -69.5h-85v-240h-192zM326 613h-55v-225h55q132 0 132 113q0 112 -132 112z" />
    <glyph glyph-name="uni0421" unicode="&#x421;" horiz-adv-x="759" 
d="M456 -11q-127 0 -219.5 47.5t-142.5 134.5t-50 207q0 87 30.5 159t86 124.5t132 81t168.5 28.5q65 0 130.5 -16t110.5 -43l-32 -167q-47 23 -98 36t-98 13q-102 0 -161.5 -58.5t-59.5 -156.5t59.5 -155.5t162.5 -57.5q48 0 106 16.5t106 43.5l21 -175q-46 -28 -115 -45
t-137 -17z" />
    <glyph glyph-name="uni0422" unicode="&#x422;" horiz-adv-x="739" 
d="M268 0v597h-233v163h669v-163h-233v-597h-203z" />
    <glyph glyph-name="uni0423" unicode="&#x423;" horiz-adv-x="798" 
d="M198 0l120 219l-306 541h221l182 -357l155 357h216l-377 -760h-211z" />
    <glyph glyph-name="uni0424" unicode="&#x424;" horiz-adv-x="1022" 
d="M412 -21v75q-112 7 -194.5 48t-128 111.5t-45.5 166.5q0 95 45.5 166t128.5 112t194 48v75h197v-75q112 -7 195 -48t128.5 -111.5t45.5 -166.5q0 -95 -45.5 -166t-128.5 -112t-195 -48v-75h-197zM783 380q0 74 -47.5 118t-129.5 53v-342q82 9 129.5 53t47.5 118zM239 380
q0 -74 47.5 -118t129.5 -53v342q-82 -9 -129.5 -53t-47.5 -118z" />
    <glyph glyph-name="uni0425" unicode="&#x425;" horiz-adv-x="796" 
d="M15 0l264 396l-246 364h237l134 -234l133 234h230l-249 -373l263 -387h-238l-153 258l-145 -258h-230z" />
    <glyph glyph-name="uni0426" unicode="&#x426;" horiz-adv-x="894" 
d="M79 0v760h203v-597h276v597h202v-597h108v-342h-195v179h-594z" />
    <glyph glyph-name="uni0427" unicode="&#x427;" horiz-adv-x="789" 
d="M517 0v269q-79 -22 -160 -22q-148 0 -224 64t-76 186v263h191v-228q0 -63 35.5 -92.5t111.5 -29.5q65 0 122 22v328h193v-760h-193z" />
    <glyph glyph-name="uni0428" unicode="&#x428;" horiz-adv-x="1208" 
d="M79 0v760h196v-597h231v597h196v-597h231v597h195v-760h-1049z" />
    <glyph glyph-name="uni0429" unicode="&#x429;" horiz-adv-x="1252" 
d="M79 0v760h196v-597h226v597h196v-597h226v597h195v-597h108v-342h-195v179h-952z" />
    <glyph glyph-name="uni042A" unicode="&#x42a;" horiz-adv-x="858" 
d="M243 0v597h-208v163h400v-240h96q92 0 158.5 -31.5t102.5 -90t36 -138.5q0 -81 -36 -139.5t-102.5 -89.5t-158.5 -31h-288zM500 372h-65v-225h65q133 0 133 113q0 112 -133 112z" />
    <glyph glyph-name="uni042B" unicode="&#x42b;" horiz-adv-x="1029" 
d="M79 0v760h192v-240h100q92 0 158.5 -31.5t102.5 -90t36 -138.5q0 -81 -36 -139.5t-102.5 -89.5t-158.5 -31h-292zM746 0v760h203v-760h-203zM341 372h-70v-225h70q132 0 132 113q0 112 -132 112z" />
    <glyph glyph-name="uni042C" unicode="&#x42c;" horiz-adv-x="700" 
d="M79 0v760h192v-240h102q92 0 158 -31.5t102 -90t36 -138.5q0 -81 -36 -139.5t-102 -89.5t-158 -31h-294zM342 372h-71v-225h71q132 0 132 113q0 112 -132 112z" />
    <glyph glyph-name="uni042D" unicode="&#x42d;" horiz-adv-x="759" 
d="M50 51l21 164q48 -27 106.5 -43t106.5 -16q91 0 150.5 41t78.5 116h-318v150h313q-23 66 -81 103.5t-142 37.5q-46 0 -99 -13t-100 -36l-30 157q46 27 111.5 43t129.5 16q128 0 221.5 -49.5t145 -138t51.5 -205.5q0 -114 -50 -201.5t-142 -137.5t-220 -50
q-69 0 -137.5 17t-115.5 45z" />
    <glyph glyph-name="uni042E" unicode="&#x42e;" horiz-adv-x="1222" 
d="M79 0v760h203v-289h99q20 90 76 158.5t138 107.5t180 39q87 0 160.5 -29t128 -82t84.5 -125.5t30 -159.5q0 -85 -31 -157t-86 -125.5t-128 -83.5t-158 -30q-104 0 -188.5 40.5t-139 113.5t-70.5 170h-95v-308h-203zM775 162q56 0 100 27.5t69 76.5t25 114t-25 114
t-69 76.5t-100 27.5t-100 -27.5t-69 -76.5t-25 -114q0 -64 25 -113.5t69 -77t100 -27.5z" />
    <glyph glyph-name="uni042F" unicode="&#x42f;" horiz-adv-x="749" 
d="M22 0l189 285q-57 32 -91 87.5t-34 130.5q0 80 39.5 137.5t104 88.5t140.5 31h299v-760h-192v244h-92l-143 -244h-220zM410 391h67v222h-65q-132 0 -132 -111t130 -111z" />
    <glyph glyph-name="uni0430" unicode="&#x430;" horiz-adv-x="657" 
d="M265 -16q-67 0 -118.5 34.5t-80.5 96t-29 141.5q0 79 31 141t84 98.5t119 36.5q50 0 90 -21.5t62 -60.5l2 66h171v-516h-171l-2 66q-23 -39 -64 -60.5t-94 -21.5zM321 145q45 0 74 32t29 81q0 50 -29 81.5t-74 31.5q-46 0 -75 -31.5t-29 -81.5q0 -49 29 -81t75 -32z" />
    <glyph glyph-name="uni0431" unicode="&#x431;" horiz-adv-x="660" 
d="M347 -16q-122 0 -197.5 66.5t-98.5 190.5q-9 51 -9 110q0 132 33 217.5t104 131.5t185 58q38 4 63 10.5t45 14.5q31 11 52 36l67 -131q-10 -13 -30.5 -27.5t-38.5 -22.5q-25 -10 -53 -16.5t-87 -13.5q-94 -11 -136.5 -58.5t-46.5 -143.5q26 50 73.5 76.5t111.5 26.5
q68 0 122 -34t85.5 -92t31.5 -131q0 -78 -35.5 -138.5t-97.5 -95t-143 -34.5zM339 142q47 0 76 31t29 79q0 49 -29 79.5t-76 30.5q-46 0 -75.5 -30.5t-29.5 -79.5q0 -48 29.5 -79t75.5 -31z" />
    <glyph glyph-name="uni0432" unicode="&#x432;" horiz-adv-x="600" 
d="M61 0v516h270q104 0 156 -35.5t52 -99.5q0 -33 -18.5 -62.5t-59.5 -44.5q51 -12 76.5 -45.5t25.5 -77.5q0 -70 -53.5 -110.5t-160.5 -40.5h-288zM296 403h-65v-95h66q69 0 69 47q0 48 -70 48zM311 212h-80v-99h82q71 0 71 49q0 50 -73 50z" />
    <glyph glyph-name="uni0433" unicode="&#x433;" horiz-adv-x="481" 
d="M61 0v516h399v-145h-218v-371h-181z" />
    <glyph glyph-name="uni0434.alt" unicode="&#x434;" horiz-adv-x="723" 
d="M13 -155v300h70q18 23 29 50t17 66.5t8 98.5l7 156h466v-371h93v-300h-173v155h-345v-155h-172zM304 312q-3 -57 -13.5 -98.5t-25.5 -68.5h165v227h-124z" />
    <glyph glyph-name="uni0435" unicode="&#x435;" horiz-adv-x="603" 
d="M348 -16q-97 0 -166.5 33t-107 94.5t-37.5 146.5q0 81 34 143t95 96.5t141 34.5q78 0 135 -31.5t87.5 -89t30.5 -137.5q0 -14 -1 -28t-3 -29h-343q12 -52 51.5 -75.5t107.5 -23.5q42 0 86.5 9.5t78.5 25.5l16 -130q-42 -19 -95.5 -29t-109.5 -10zM304 409q-78 0 -94 -94
h182q0 11 -2 19q-7 35 -29 55t-57 20z" />
    <glyph glyph-name="uni0436" unicode="&#x436;" horiz-adv-x="903" 
d="M-1 0l212 270l-176 246h187l140 -212v212h178v-212l140 212h189l-179 -245l214 -271h-203l-161 225v-225h-178v225l-162 -225h-201z" />
    <glyph glyph-name="uni0437" unicode="&#x437;" horiz-adv-x="544" 
d="M259 -16q-67 0 -125.5 11t-93.5 26l17 137q41 -16 87 -25.5t90 -9.5q40 0 61.5 10.5t21.5 32.5q0 25 -23.5 34t-75.5 9h-79v103h90q46 0 67 8.5t21 32.5q0 42 -80 42q-40 0 -82 -8t-86 -23l-17 131q36 15 90.5 26t112.5 11q110 0 173.5 -42t63.5 -114q0 -42 -23 -72
t-62 -42q48 -13 74 -44.5t26 -77.5q0 -76 -63 -116t-185 -40z" />
    <glyph glyph-name="uni0438" unicode="&#x438;" horiz-adv-x="652" 
d="M61 0v516h177v-272l204 272h149v-516h-178v271l-203 -271h-149z" />
    <glyph glyph-name="uni0439" unicode="&#x439;" horiz-adv-x="652" 
d="M61 0v516h177v-272l204 272h149v-516h-178v271l-203 -271h-149zM322 572q-94 0 -148.5 46t-54.5 126q1 6 1 9.5v5.5h130v-14q2 -34 21.5 -51.5t50.5 -17.5q32 0 51.5 17.5t20.5 53.5v12h130q1 -3 1 -15q0 -80 -54.5 -126t-148.5 -46z" />
    <glyph glyph-name="uni043A" unicode="&#x43a;" horiz-adv-x="643" 
d="M61 0v516h181v-207l163 207h204l-207 -244l242 -272h-220l-182 220v-220h-181z" />
    <glyph glyph-name="uni043B.alt" unicode="&#x43b;" horiz-adv-x="669" 
d="M11 2l8 144q17 -3 29 -3q28 0 44.5 15t24.5 52.5t11 103.5l10 202h470v-516h-181v371h-126l-5 -99q-5 -103 -26.5 -164t-65.5 -87.5t-115 -26.5q-21 0 -40.5 2t-37.5 6z" />
    <glyph glyph-name="uni043C.alt" unicode="&#x43c;" horiz-adv-x="782" 
d="M48 0l30 516h186l129 -253l126 253h185l30 -516h-166l-11 304l-114 -227h-103l-116 225l-10 -302h-166z" />
    <glyph glyph-name="uni043D" unicode="&#x43d;" horiz-adv-x="640" 
d="M61 0v516h181v-186h155v186h182v-516h-181v187h-156v-187h-181z" />
    <glyph glyph-name="uni043E" unicode="&#x43e;" horiz-adv-x="641" 
d="M321 -16q-82 0 -146 35.5t-101 97.5t-37 141t37 141t101.5 97.5t145.5 35.5q82 0 146 -35.5t101 -97t37 -141.5q0 -79 -37 -141t-101.5 -97.5t-145.5 -35.5zM321 145q45 0 74 32t29 81q0 50 -29 81.5t-74 31.5q-46 0 -75 -31.5t-29 -81.5q0 -49 29 -81t75 -32z" />
    <glyph glyph-name="uni043F" unicode="&#x43f;" horiz-adv-x="638" 
d="M61 0v516h516v-516h-181v371h-154v-371h-181z" />
    <glyph glyph-name="uni0440" unicode="&#x440;" horiz-adv-x="657" 
d="M61 -245v761h169l2 -68q50 84 160 84q67 0 118 -34.5t80.5 -96t29.5 -141.5q0 -78 -31 -140.5t-83.5 -99t-119.5 -36.5q-94 0 -144 68v-297h-181zM336 145q46 0 75 32t29 81q0 50 -29 81.5t-75 31.5t-75 -31.5t-29 -81.5q0 -49 29 -81t75 -32z" />
    <glyph glyph-name="uni0441" unicode="&#x441;" horiz-adv-x="543" 
d="M323 -14q-87 0 -151 33.5t-99.5 94.5t-35.5 142t36 143t100.5 96.5t148.5 34.5q47 0 96.5 -11t81.5 -28l-22 -151q-34 15 -67 22t-65 7q-61 0 -95 -29t-34 -82q0 -52 35 -81t97 -29q64 0 135 29l18 -148q-35 -20 -82.5 -31.5t-96.5 -11.5z" />
    <glyph glyph-name="uni0442" unicode="&#x442;" horiz-adv-x="552" 
d="M185 0v371h-164v145h510v-145h-164v-371h-182z" />
    <glyph glyph-name="uni0443" unicode="&#x443;" horiz-adv-x="620" 
d="M96 -245l129 273l-212 488h199l105 -303l97 303h194l-330 -761h-182z" />
    <glyph glyph-name="uni0444" unicode="&#x444;" horiz-adv-x="841" 
d="M337 -245v230q-141 11 -220.5 82.5t-79.5 189.5t80 190t220 82v281h166v-281q141 -10 221 -82t80 -190t-79.5 -189.5t-221.5 -82.5v-230h-166zM207 257q0 -112 138 -128v255q-138 -13 -138 -127zM634 257q0 114 -138 127v-255q138 16 138 128z" />
    <glyph glyph-name="uni0445" unicode="&#x445;" horiz-adv-x="625" 
d="M21 0l188 266l-178 250h202l84 -140l82 140h192l-177 -252l189 -264h-203l-94 156l-93 -156h-192z" />
    <glyph glyph-name="uni0446" unicode="&#x446;" horiz-adv-x="684" 
d="M61 0v516h181v-371h148v371h181v-371h93v-300h-173v155h-430z" />
    <glyph glyph-name="uni0447" unicode="&#x447;" horiz-adv-x="594" 
d="M359 0v172q-27 -11 -53 -16t-54 -5q-106 0 -162 51t-56 149v165h174v-129q0 -49 20.5 -71t63.5 -22q20 0 35 3t32 12v207h174v-516h-174z" />
    <glyph glyph-name="uni0448" unicode="&#x448;" horiz-adv-x="921" 
d="M61 0v516h177v-371h134v371h176v-371h134v371h178v-516h-799z" />
    <glyph glyph-name="uni0449" unicode="&#x449;" horiz-adv-x="968" 
d="M61 0v516h177v-371h132v371h176v-371h132v371h177v-371h93v-300h-173v155h-714z" />
    <glyph glyph-name="uni044A" unicode="&#x44a;" horiz-adv-x="674" 
d="M167 0v371h-147v145h321v-151h83q108 0 165.5 -48t57.5 -134t-59 -134.5t-164 -48.5h-257zM400 244h-59v-124h59q36 0 56 16.5t20 46.5q0 29 -20 45t-56 16z" />
    <glyph glyph-name="uni044B" unicode="&#x44b;" horiz-adv-x="842" 
d="M61 0v516h174v-151h83q107 0 164.5 -48t57.5 -134t-58.5 -134.5t-163.5 -48.5h-257zM599 0v516h182v-516h-182zM294 244h-59v-124h59q36 0 55.5 16.5t19.5 46.5q0 29 -19.5 45t-55.5 16z" />
    <glyph glyph-name="uni044C" unicode="&#x44c;" horiz-adv-x="573" 
d="M61 0v516h174v-151h88q107 0 164.5 -48t57.5 -134t-58.5 -134.5t-163.5 -48.5h-262zM299 244h-64v-124h64q36 0 55.5 16.5t19.5 46.5q0 29 -19.5 45t-55.5 16z" />
    <glyph glyph-name="uni044D" unicode="&#x44d;" horiz-adv-x="543" 
d="M221 -14q-51 0 -98.5 11t-82.5 29l17 130q29 -13 67.5 -22.5t73.5 -9.5q65 0 102 23t49 64h-210v103h207q-13 38 -49 59t-96 21q-34 0 -70 -7.5t-69 -23.5l-18 130q30 16 80 26.5t97 10.5q87 0 151 -33t99.5 -93.5t35.5 -144.5q0 -81 -35 -142.5t-99.5 -96t-151.5 -34.5z
" />
    <glyph glyph-name="uni044E" unicode="&#x44e;" horiz-adv-x="905" 
d="M61 0v516h181v-185h79q15 59 53.5 104.5t93.5 71t122 25.5q80 0 143 -35.5t99 -97.5t36 -141q0 -78 -36.5 -140t-99 -98t-142.5 -36q-67 0 -123 25.5t-94 71.5t-53 106h-78v-187h-181zM590 145q44 0 71 30.5t27 82.5q0 51 -27 82t-71 31q-43 0 -70.5 -31t-27.5 -82
q0 -52 27.5 -82.5t70.5 -30.5z" />
    <glyph glyph-name="uni044F" unicode="&#x44f;" horiz-adv-x="606" 
d="M29 0l122 194q-45 21 -70 58t-25 90q0 80 59 127t165 47h265v-516h-174v170h-64l-94 -170h-184zM306 283h65v120h-65q-40 0 -59.5 -16t-19.5 -45q0 -26 19.5 -42.5t59.5 -16.5z" />
    <glyph glyph-name="uni0450" unicode="&#x450;" horiz-adv-x="603" 
d="M348 -16q-97 0 -166.5 33t-107 94.5t-37.5 146.5q0 81 34 143t95 96.5t141 34.5q78 0 135 -31.5t87.5 -89t30.5 -137.5q0 -14 -1 -28t-3 -29h-343q12 -52 51.5 -75.5t107.5 -23.5q42 0 86.5 9.5t78.5 25.5l16 -130q-42 -19 -95.5 -29t-109.5 -10zM304 409q-78 0 -94 -94
h182q0 11 -2 19q-7 35 -29 55t-57 20zM261 610l-149 170h194l105 -170h-150z" />
    <glyph glyph-name="uni0451" unicode="&#x451;" horiz-adv-x="603" 
d="M348 -16q-97 0 -166.5 33t-107 94.5t-37.5 146.5q0 81 34 143t95 96.5t141 34.5q78 0 135 -31.5t87.5 -89t30.5 -137.5q0 -14 -1 -28t-3 -29h-343q12 -52 51.5 -75.5t107.5 -23.5q42 0 86.5 9.5t78.5 25.5l16 -130q-42 -19 -95.5 -29t-109.5 -10zM304 409q-78 0 -94 -94
h182q0 11 -2 19q-7 35 -29 55t-57 20zM422 598q-38 0 -61.5 22t-23.5 58q0 35 24 57.5t61 22.5q38 0 62 -22.5t24 -57.5q0 -36 -24 -58t-62 -22zM184 598q-38 0 -62 22t-24 58q0 35 24.5 57.5t61.5 22.5q38 0 61.5 -22.5t23.5 -57.5q0 -36 -23.5 -58t-61.5 -22z" />
    <glyph glyph-name="uni0452" unicode="&#x452;" horiz-adv-x="630" 
d="M453 -259l-189 14q33 55 63 123.5t49 149t19 171.5q0 95 -20 133.5t-59 38.5q-33 0 -53.5 -25t-20.5 -72v-274h-181v607h-76v101h76v102h181v-102h171v-101h-171v-153q19 37 54 57.5t80 20.5q70 0 114 -43.5t65 -118t21 -169.5q0 -138 -34 -254t-89 -206z" />
    <glyph glyph-name="uni0453" unicode="&#x453;" horiz-adv-x="481" 
d="M61 0v516h399v-145h-218v-371h-181zM147 610l106 170h193l-148 -170h-151z" />
    <glyph glyph-name="uni0454" unicode="&#x454;" horiz-adv-x="543" 
d="M323 -14q-87 0 -151.5 32.5t-99.5 93.5t-35 144q0 82 35 143.5t99 96t151 34.5q47 0 97 -10.5t81 -26.5l-19 -130q-32 16 -68 23.5t-71 7.5q-60 0 -96 -21t-49 -59h207v-103h-210q12 -42 49.5 -64.5t102.5 -22.5q35 0 73.5 9.5t66.5 22.5l17 -130q-34 -18 -82 -29
t-98 -11z" />
    <glyph glyph-name="uni0455" unicode="&#x455;" horiz-adv-x="519" 
d="M247 -16q-60 0 -117 14t-91 37l20 128q39 -25 85 -38t91 -13q68 0 68 35q0 18 -15 27.5t-63 22.5q-96 26 -136.5 64.5t-40.5 105.5q0 78 59 121.5t162 43.5q52 0 103 -11t85 -30l-19 -126q-80 39 -157 39q-58 0 -58 -33q0 -16 16 -26.5t63 -23.5q96 -26 137.5 -66.5
t41.5 -106.5q0 -78 -62 -121t-172 -43z" />
    <glyph glyph-name="uni0456" unicode="&#x456;" horiz-adv-x="303" 
d="M152 597q-43 0 -72.5 28t-29.5 68q0 42 29.5 69.5t72.5 27.5t72 -27.5t29 -69.5q0 -40 -29 -68t-72 -28zM61 0v516h181v-516h-181z" />
    <glyph glyph-name="uni0457" unicode="&#x457;" horiz-adv-x="303" 
d="M61 0v516h181v-516h-181zM270 598q-38 0 -61.5 22t-23.5 58q0 35 24 57.5t61 22.5q38 0 62 -22.5t24 -57.5q0 -36 -24 -58t-62 -22zM32 598q-38 0 -62 22t-24 58q0 35 24.5 57.5t61.5 22.5q38 0 61.5 -22.5t23.5 -57.5q0 -36 -23.5 -58t-61.5 -22z" />
    <glyph glyph-name="uni0458.alt" unicode="&#x458;" horiz-adv-x="303" 
d="M152 597q-43 0 -72.5 28t-29.5 68q0 42 29.5 69.5t72.5 27.5t72 -27.5t29 -69.5q0 -40 -29 -68t-72 -28zM22 -254q-39 0 -76.5 7t-58.5 19l18 147q20 -7 39 -11.5t38 -4.5q41 0 60 22.5t19 71.5v519h181v-534q0 -116 -56 -176t-164 -60z" />
    <glyph glyph-name="uni0459.alt" unicode="&#x459;" horiz-adv-x="924" 
d="M11 2l8 144q17 -3 29 -3q28 0 44.5 15t24.5 52.5t11 103.5l10 202h453v-151h83q108 0 165.5 -48t57.5 -134t-59 -134.5t-164 -48.5h-257v371h-116l-5 -99q-5 -103 -27 -164t-65.5 -87.5t-114.5 -26.5q-21 0 -40.5 2t-37.5 6zM650 244h-59v-124h59q36 0 55.5 16.5
t19.5 46.5q0 29 -19.5 45t-55.5 16z" />
    <glyph glyph-name="uni045A" unicode="&#x45a;" horiz-adv-x="888" 
d="M61 0v516h181v-182h139v182h174v-158h88q105 0 161 -46.5t56 -132.5q0 -85 -57.5 -132t-159.5 -47h-262v191h-139v-191h-181zM621 237h-66v-117h66q32 0 50 15.5t18 43.5q0 27 -18 42.5t-50 15.5z" />
    <glyph glyph-name="uni045B" unicode="&#x45b;" horiz-adv-x="625" 
d="M61 0v607h-76v101h76v102h181v-102h171v-101h-171v-152q21 36 59.5 56.5t88.5 20.5q87 0 132.5 -55.5t45.5 -162.5v-314h-181v280q0 91 -69 91q-37 0 -56.5 -25.5t-19.5 -72.5v-273h-181z" />
    <glyph glyph-name="uni045C" unicode="&#x45c;" horiz-adv-x="643" 
d="M61 0v516h181v-207l163 207h204l-207 -244l242 -272h-220l-182 220v-220h-181zM202 610l106 170h193l-148 -170h-151z" />
    <glyph glyph-name="uni045D" unicode="&#x45d;" horiz-adv-x="652" 
d="M61 0v516h177v-272l204 272h149v-516h-178v271l-203 -271h-149zM280 610l-149 170h194l105 -170h-150z" />
    <glyph glyph-name="uni045E" unicode="&#x45e;" horiz-adv-x="620" 
d="M96 -245l129 273l-212 488h199l105 -303l97 303h194l-330 -761h-182zM312 572q-94 0 -148.5 46t-54.5 126q1 6 1 9.5v5.5h130v-14q2 -34 21.5 -51.5t50.5 -17.5q32 0 51.5 17.5t20.5 53.5v12h130q1 -3 1 -15q0 -80 -54.5 -126t-148.5 -46z" />
    <glyph glyph-name="uni045F" unicode="&#x45f;" horiz-adv-x="636" 
d="M232 -155v155h-171v516h181v-371h152v371h182v-516h-172v-155h-172z" />
    <glyph glyph-name="uni0462" unicode="&#x462;" horiz-adv-x="797" 
d="M162 0v534h-142v144h142v82h192v-82h239v-144h-239v-98h143q82 0 141.5 -27t91.5 -75.5t32 -111.5q0 -103 -70 -162.5t-195 -59.5h-335zM469 300h-115v-156h115q98 0 98 77q0 37 -24.5 58t-73.5 21z" />
    <glyph glyph-name="uni0463" unicode="&#x463;" horiz-adv-x="662" 
d="M155 0v395h-135v121h135v294h173v-294h192v-121h-192v-73h104q96 0 149.5 -42t53.5 -118q0 -71 -54 -116.5t-149 -45.5h-277zM404 212h-76v-102h76q64 0 64 51t-64 51z" />
    <glyph glyph-name="uni0472" unicode="&#x472;" horiz-adv-x="912" 
d="M456 -16q-90 0 -165.5 29t-130.5 82t-85.5 125.5t-30.5 159.5q0 84 31 156.5t87 126t131 83.5t163 30q90 0 165.5 -29t130.5 -82t85.5 -125.5t30.5 -159.5q0 -84 -31 -156.5t-87 -126t-131 -83.5t-163 -30zM456 602q-73 0 -125.5 -40t-71.5 -108h394q-19 68 -71.5 108
t-125.5 40zM456 158q77 0 131 44t70 118h-402q17 -74 70.5 -118t130.5 -44z" />
    <glyph glyph-name="uni0473" unicode="&#x473;" horiz-adv-x="641" 
d="M321 -16q-82 0 -146 35.5t-101 97.5t-37 141t37 141t101.5 97.5t145.5 35.5q82 0 146 -35.5t101 -97t37 -141.5q0 -79 -37 -141t-101.5 -97.5t-145.5 -35.5zM321 398q-44 0 -76 -24t-45 -64h242q-13 40 -45 64t-76 24zM321 118q46 0 79 26t45 70h-248q12 -44 45 -70
t79 -26z" />
    <glyph glyph-name="uni0474" unicode="&#x474;" horiz-adv-x="834" 
d="M296 0l-284 760h224l165 -540l103 369q19 68 48.5 106.5t75.5 55t112 16.5q28 0 50.5 -2.5t38.5 -4.5l-12 -157q-7 1 -15.5 1.5t-15.5 0.5q-36 0 -60 -16.5t-39 -60.5l-185 -528h-206z" />
    <glyph glyph-name="uni0475" unicode="&#x475;" horiz-adv-x="624" 
d="M203 0l-190 516h201l86 -340l53 199q18 74 64 110t125 36q17 0 40 -2t33 -4l-7 -149q-4 1 -11.5 2t-18.5 1q-28 0 -45 -10.5t-26 -35.5l-113 -323h-191z" />
    <glyph glyph-name="uni0490" unicode="&#x490;" horiz-adv-x="640" 
d="M79 0v760h332v150h194v-313h-323v-597h-203z" />
    <glyph glyph-name="uni0491" unicode="&#x491;" horiz-adv-x="481" 
d="M61 0v516h226v141h173v-286h-218v-371h-181z" />
    <glyph glyph-name="uni1E24" unicode="&#x1e24;" horiz-adv-x="860" 
d="M79 0v760h203v-289h296v289h203v-760h-203v308h-296v-308h-203zM430 -238q-45 0 -72.5 26t-27.5 67q0 42 27.5 68.5t72.5 26.5t73 -26.5t28 -68.5q0 -41 -28 -67t-73 -26z" />
    <glyph glyph-name="uni1E25" unicode="&#x1e25;" horiz-adv-x="625" 
d="M61 0v810h181v-355q21 36 59.5 56.5t88.5 20.5q87 0 132.5 -55.5t45.5 -162.5v-314h-181v280q0 91 -69 91q-37 0 -56.5 -25.5t-19.5 -72.5v-273h-181zM301 -228q-43 0 -68.5 24.5t-25.5 64.5t25.5 64.5t68.5 24.5t69 -24.5t26 -64.5t-26 -64.5t-69 -24.5z" />
    <glyph glyph-name="uni1E36" unicode="&#x1e36;" horiz-adv-x="639" 
d="M79 0v760h203v-597h322v-163h-525zM346 -238q-45 0 -72.5 26t-27.5 67q0 42 27.5 68.5t72.5 26.5t73 -26.5t28 -68.5q0 -41 -28 -67t-73 -26z" />
    <glyph glyph-name="uni1E37" unicode="&#x1e37;" horiz-adv-x="303" 
d="M61 0v810h181v-810h-181zM151 -228q-43 0 -68.5 24.5t-25.5 64.5t25.5 64.5t68.5 24.5t69 -24.5t26 -64.5t-26 -64.5t-69 -24.5z" />
    <glyph glyph-name="Wgrave" unicode="&#x1e80;" horiz-adv-x="1139" 
d="M244 0l-225 760h213l112 -506l140 496h172l142 -487l110 497h212l-225 -760h-183l-144 488l-140 -488h-184zM523 835l-163 154h210l117 -154h-164z" />
    <glyph glyph-name="wgrave" unicode="&#x1e81;" horiz-adv-x="888" 
d="M184 0l-166 516h190l68 -316l92 316h148l98 -317l66 317h190l-166 -516h-162l-103 298l-98 -298h-157zM401 610l-149 170h194l105 -170h-150z" />
    <glyph glyph-name="Wacute" unicode="&#x1e82;" horiz-adv-x="1139" 
d="M244 0l-225 760h213l112 -506l140 496h172l142 -487l110 497h212l-225 -760h-183l-144 488l-140 -488h-184zM448 835l117 154h211l-164 -154h-164z" />
    <glyph glyph-name="wacute" unicode="&#x1e83;" horiz-adv-x="888" 
d="M184 0l-166 516h190l68 -316l92 316h148l98 -317l66 317h190l-166 -516h-162l-103 298l-98 -298h-157zM335 610l106 170h193l-148 -170h-151z" />
    <glyph glyph-name="Wdieresis" unicode="&#x1e84;" horiz-adv-x="1139" 
d="M244 0l-225 760h213l112 -506l140 496h172l142 -487l110 497h212l-225 -760h-183l-144 488l-140 -488h-184zM690 832q-38 0 -63 23t-25 60t25 60t63 23q40 0 65 -23t25 -60t-25 -60t-65 -23zM449 832q-39 0 -64 23t-25 60t25 60t64 23t64 -23t25 -60t-25 -60t-64 -23z
" />
    <glyph glyph-name="wdieresis" unicode="&#x1e85;" horiz-adv-x="888" 
d="M184 0l-166 516h190l68 -316l92 316h148l98 -317l66 317h190l-166 -516h-162l-103 298l-98 -298h-157zM562 598q-38 0 -61.5 22t-23.5 58q0 35 24 57.5t61 22.5q38 0 62 -22.5t24 -57.5q0 -36 -24 -58t-62 -22zM324 598q-38 0 -62 22t-24 58q0 35 24.5 57.5t61.5 22.5
q38 0 61.5 -22.5t23.5 -57.5q0 -36 -23.5 -58t-61.5 -22z" />
    <glyph glyph-name="uni1E9E" unicode="&#x1e9e;" horiz-adv-x="801" 
d="M496 -16q-96 0 -168 42l18 149q57 -35 125 -35q51 0 79.5 25t28.5 69q0 43 -29.5 67.5t-81.5 24.5q-10 0 -21 -1t-21 -3l-37 93l137 170q-48 30 -106 30q-76 0 -119.5 -51.5t-43.5 -143.5v-420h-183v434q0 107 41.5 183.5t118 117.5t181.5 41q79 0 154 -25.5t131 -70.5
v-114l-105 -128q75 -20 120 -79t45 -139q0 -71 -33 -124t-92.5 -82.5t-138.5 -29.5z" />
    <glyph glyph-name="Ygrave" unicode="&#x1ef2;" horiz-adv-x="764" 
d="M282 0v309l-274 451h223l154 -302l154 302h217l-275 -451v-309h-199zM335 835l-163 154h210l117 -154h-164z" />
    <glyph glyph-name="ygrave" unicode="&#x1ef3;" horiz-adv-x="620" 
d="M96 -245l129 273l-212 488h199l105 -303l97 303h194l-330 -761h-182zM270 610l-149 170h194l105 -170h-150z" />
    <glyph glyph-name="uni2000" unicode="&#x2000;" horiz-adv-x="500" 
 />
    <glyph glyph-name="uni2001" unicode="&#x2001;" horiz-adv-x="1000" 
 />
    <glyph glyph-name="uni2002" unicode="&#x2002;" horiz-adv-x="500" 
 />
    <glyph glyph-name="uni2003" unicode="&#x2003;" horiz-adv-x="1000" 
 />
    <glyph glyph-name="uni2004" unicode="&#x2004;" horiz-adv-x="333" 
 />
    <glyph glyph-name="uni2005" unicode="&#x2005;" horiz-adv-x="250" 
 />
    <glyph glyph-name="uni2006" unicode="&#x2006;" horiz-adv-x="166" 
 />
    <glyph glyph-name="uni2007" unicode="&#x2007;" horiz-adv-x="646" 
 />
    <glyph glyph-name="uni2008" unicode="&#x2008;" horiz-adv-x="306" 
 />
    <glyph glyph-name="uni2009" unicode="&#x2009;" horiz-adv-x="200" 
 />
    <glyph glyph-name="uni200A" unicode="&#x200a;" horiz-adv-x="55" 
 />
    <glyph glyph-name="uni200B" unicode="&#x200b;" 
 />
    <glyph glyph-name="uni2010" unicode="&#x2010;" horiz-adv-x="419" 
d="M49 214v147h320v-147h-320z" />
    <glyph glyph-name="uni2011" unicode="&#x2011;" horiz-adv-x="419" 
d="M49 214v147h320v-147h-320z" />
    <glyph glyph-name="figuredash" unicode="&#x2012;" horiz-adv-x="500" 
d="M0 222v133h500v-133h-500z" />
    <glyph glyph-name="endash" unicode="&#x2013;" horiz-adv-x="500" 
d="M0 222v133h500v-133h-500z" />
    <glyph glyph-name="emdash" unicode="&#x2014;" horiz-adv-x="1000" 
d="M0 222v133h1000v-133h-1000z" />
    <glyph glyph-name="uni2015" unicode="&#x2015;" horiz-adv-x="1000" 
d="M0 222v133h1000v-133h-1000z" />
    <glyph glyph-name="quoteleft" unicode="&#x2018;" horiz-adv-x="257" 
d="M35 499q1 72 19.5 143t49.5 118h133q-41 -118 -41 -261h-161z" />
    <glyph glyph-name="quoteright" unicode="&#x2019;" horiz-adv-x="257" 
d="M20 499q41 118 41 261h161q-1 -73 -19.5 -143.5t-49.5 -117.5h-133z" />
    <glyph glyph-name="quotesinglbase" unicode="&#x201a;" horiz-adv-x="257" 
d="M20 -136q41 118 41 261h161q-1 -73 -19.5 -143.5t-49.5 -117.5h-133z" />
    <glyph glyph-name="quotedblleft" unicode="&#x201c;" horiz-adv-x="480" 
d="M35 499q1 72 19.5 143t49.5 118h133q-41 -118 -41 -261h-161zM259 499q1 72 19.5 143t49.5 118h133q-41 -118 -41 -261h-161z" />
    <glyph glyph-name="quotedblright" unicode="&#x201d;" horiz-adv-x="480" 
d="M20 499q41 118 41 261h161q-1 -73 -19.5 -143.5t-49.5 -117.5h-133zM244 499q41 118 41 261h161q-1 -73 -19.5 -143.5t-49.5 -117.5h-133z" />
    <glyph glyph-name="quotedblbase" unicode="&#x201e;" horiz-adv-x="480" 
d="M20 -136q41 118 41 261h161q-1 -73 -19.5 -143.5t-49.5 -117.5h-133zM244 -136q41 118 41 261h161q-1 -73 -19.5 -143.5t-49.5 -117.5h-133z" />
    <glyph glyph-name="dagger" unicode="&#x2020;" horiz-adv-x="534" 
d="M176 -130v545h-146v138h146v207h181v-207h146v-138h-146v-545h-181z" />
    <glyph glyph-name="daggerdbl" unicode="&#x2021;" horiz-adv-x="534" 
d="M30 64v138h146v225h-146v138h146v195h181v-195h146v-138h-146v-225h146v-138h-146v-194h-181v194h-146z" />
    <glyph glyph-name="bullet" unicode="&#x2022;" horiz-adv-x="366" 
d="M182 136q-37 0 -68 18.5t-49.5 49.5t-18.5 68q0 38 18 69t49 49t69 18t69 -18t49.5 -49t18.5 -69q0 -37 -18.5 -68t-49.5 -49.5t-69 -18.5z" />
    <glyph glyph-name="ellipsis" unicode="&#x2026;" horiz-adv-x="1000" 
d="M166 -6q-45 0 -73.5 27t-28.5 69t28.5 68.5t73.5 26.5t73.5 -26.5t28.5 -68.5t-28.5 -69t-73.5 -27zM499 -6q-45 0 -73.5 27t-28.5 69t28.5 68.5t73.5 26.5t73.5 -26.5t28.5 -68.5t-28.5 -69t-73.5 -27zM834 -6q-45 0 -73.5 27t-28.5 69t28.5 68.5t73.5 26.5t73.5 -26.5
t28.5 -68.5t-28.5 -69t-73.5 -27z" />
    <glyph glyph-name="perthousand" unicode="&#x2030;" horiz-adv-x="1443" 
d="M175 0l507 744h142l-506 -744h-143zM743 -14q-58 0 -103.5 25t-72 68.5t-26.5 99.5t26.5 99.5t72 68.5t103.5 25t103.5 -25t72 -68.5t26.5 -99.5t-26.5 -99.5t-72 -68.5t-103.5 -25zM743 99q33 0 52.5 22t19.5 58t-19.5 57.5t-52.5 21.5t-52.5 -21.5t-19.5 -57.5
t19.5 -58t52.5 -22zM1186 -14q-58 0 -103.5 25t-72 68.5t-26.5 99.5t26.5 99.5t72 68.5t103.5 25t103.5 -25t72 -68.5t26.5 -99.5t-26.5 -99.5t-72 -68.5t-103.5 -25zM1186 99q33 0 52.5 22t19.5 58t-19.5 57.5t-52.5 21.5t-52.5 -21.5t-19.5 -57.5t19.5 -58t52.5 -22z
M257 374q-58 0 -103.5 25t-72 68.5t-26.5 99.5t26.5 99.5t72 68.5t103.5 25t103.5 -25t72 -68.5t26.5 -99.5t-26.5 -99.5t-72 -68.5t-103.5 -25zM257 487q33 0 52.5 22t19.5 58t-19.5 57.5t-52.5 21.5t-52.5 -21.5t-19.5 -57.5t19.5 -58t52.5 -22z" />
    <glyph glyph-name="minute" unicode="&#x2032;" horiz-adv-x="228" 
d="M12 469l36 291h171l-69 -291h-138z" />
    <glyph glyph-name="second" unicode="&#x2033;" horiz-adv-x="444" 
d="M12 469l36 291h171l-69 -291h-138zM229 469l36 291h171l-69 -291h-138z" />
    <glyph glyph-name="guilsinglleft" unicode="&#x2039;" horiz-adv-x="394" 
d="M176 34l-152 223l152 223h192l-158 -223l158 -223h-192z" />
    <glyph glyph-name="guilsinglright" unicode="&#x203a;" horiz-adv-x="394" 
d="M27 34l157 223l-157 223h192l151 -223l-151 -223h-192z" />
    <glyph glyph-name="fraction" unicode="&#x2044;" horiz-adv-x="190" 
d="M-230 0l507 744h142l-506 -744h-143z" />
    <glyph glyph-name="uni2070" unicode="&#x2070;" horiz-adv-x="398" 
d="M199 446q-87 0 -136.5 57t-49.5 157q0 32 6 60q13 74 60 114t120 40q87 0 136.5 -56.5t49.5 -157.5q0 -31 -6 -60q-13 -73 -59.5 -113.5t-120.5 -40.5zM199 558q35 0 47 51q2 11 3 23.5t1 27.5q0 102 -51 102q-37 0 -47 -51q-2 -10 -3 -23t-1 -28q0 -102 51 -102z" />
    <glyph glyph-name="uni2074" unicode="&#x2074;" horiz-adv-x="398" 
d="M214 456v75h-194v99l175 234h134v-238h44v-95h-44v-75h-115zM128 626h86v115z" />
    <glyph glyph-name="uni2075" unicode="&#x2075;" horiz-adv-x="398" 
d="M177 446q-43 0 -80 7.5t-54 19.5l10 102q45 -28 106 -28q68 0 68 42q0 39 -65 39q-25 0 -51.5 -2.5t-52.5 -7.5l10 246h264v-100h-158l-2 -47q15 1 31 1q74 0 114.5 -34t40.5 -97q0 -67 -47.5 -104t-133.5 -37z" />
    <glyph glyph-name="uni2076" unicode="&#x2076;" horiz-adv-x="398" 
d="M200 446q-78 0 -126 43t-48 113q0 65 41.5 135.5t114.5 128.5l153 -3q-39 -27 -78 -66t-67 -78q22 9 46 9q59 0 97.5 -38t38.5 -95q0 -66 -48 -107.5t-124 -41.5zM199 545q22 0 35.5 13.5t13.5 33.5q0 21 -13.5 34.5t-35.5 13.5t-36 -13t-14 -35q0 -20 14 -33.5t36 -13.5
z" />
    <glyph glyph-name="uni2077" unicode="&#x2077;" horiz-adv-x="398" 
d="M68 457l152 292h-175v115h317v-99l-154 -311z" />
    <glyph glyph-name="uni2078" unicode="&#x2078;" horiz-adv-x="398" 
d="M199 446q-82 0 -129 34t-47 94q0 32 16.5 57.5t44.5 39.5q-49 26 -49 83q0 54 45.5 87t118.5 33q74 0 119 -33t45 -87q0 -56 -48 -83q28 -14 44 -40t16 -57q0 -60 -46.5 -94t-129.5 -34zM199 705q20 0 32 11t12 29q0 19 -12 30t-32 11t-32 -11t-12 -30q0 -18 12 -29
t32 -11zM199 538q23 0 36.5 12.5t13.5 31.5q0 20 -13.5 32t-36.5 12q-22 0 -36 -12t-14 -32q0 -19 14 -31.5t36 -12.5z" />
    <glyph glyph-name="uni2079" unicode="&#x2079;" horiz-adv-x="398" 
d="M216 454l-153 3q39 27 78.5 66.5t65.5 76.5q-20 -8 -46 -8q-58 0 -96.5 38t-38.5 95q0 66 48 107.5t124 41.5q78 0 126 -43t48 -113q0 -65 -41.5 -135.5t-114.5 -128.5zM199 680q23 0 36.5 13t13.5 35q0 20 -13.5 33.5t-36.5 13.5q-22 0 -36 -13.5t-14 -33.5
q0 -21 14 -34.5t36 -13.5z" />
    <glyph glyph-name="uni2080" unicode="&#x2080;" horiz-adv-x="398" 
d="M199 -136q-87 0 -136.5 57t-49.5 157q0 32 6 60q13 74 60 114t120 40q87 0 136.5 -56.5t49.5 -157.5q0 -31 -6 -60q-13 -73 -59.5 -113.5t-120.5 -40.5zM199 -24q35 0 47 51q2 11 3 23.5t1 27.5q0 102 -51 102q-37 0 -47 -51q-2 -10 -3 -23t-1 -28q0 -102 51 -102z" />
    <glyph glyph-name="uni2081" unicode="&#x2081;" horiz-adv-x="398" 
d="M161 -126v279l-99 -45l-19 113l134 61h118v-408h-134z" />
    <glyph glyph-name="uni2082" unicode="&#x2082;" horiz-adv-x="398" 
d="M36 -126v102q35 23 66 47t52 43q56 50 56 83q0 37 -49 37q-53 0 -103 -47l-21 101q23 23 65.5 37.5t83.5 14.5q71 0 113.5 -34t42.5 -91q0 -77 -82 -150q-21 -19 -43 -36h139v-107h-320z" />
    <glyph glyph-name="uni2083" unicode="&#x2083;" horiz-adv-x="398" 
d="M174 -136q-90 0 -137 28l10 100q26 -13 57 -20t59 -7q61 0 61 41q0 38 -58 38q-25 0 -43 -7l-27 64l96 81h-143v100h290v-92l-88 -73q47 -7 75.5 -38.5t28.5 -74.5q0 -64 -49 -102t-132 -38z" />
    <glyph glyph-name="uni2084" unicode="&#x2084;" horiz-adv-x="398" 
d="M214 -126v75h-194v99l175 234h134v-238h44v-95h-44v-75h-115zM128 44h86v115z" />
    <glyph glyph-name="uni2085" unicode="&#x2085;" horiz-adv-x="398" 
d="M177 -136q-43 0 -80 7.5t-54 19.5l10 102q45 -28 106 -28q68 0 68 42q0 39 -65 39q-25 0 -51.5 -2.5t-52.5 -7.5l10 246h264v-100h-158l-2 -47q15 1 31 1q74 0 114.5 -34t40.5 -97q0 -67 -47.5 -104t-133.5 -37z" />
    <glyph glyph-name="uni2086" unicode="&#x2086;" horiz-adv-x="398" 
d="M200 -136q-78 0 -126 43t-48 113q0 65 41.5 135.5t114.5 128.5l153 -3q-39 -27 -78 -66t-67 -78q22 9 46 9q59 0 97.5 -38t38.5 -95q0 -66 -48 -107.5t-124 -41.5zM199 -37q22 0 35.5 13.5t13.5 33.5q0 21 -13.5 34.5t-35.5 13.5t-36 -13t-14 -35q0 -20 14 -33.5
t36 -13.5z" />
    <glyph glyph-name="uni2087" unicode="&#x2087;" horiz-adv-x="398" 
d="M68 -125l152 292h-175v115h317v-99l-154 -311z" />
    <glyph glyph-name="uni2088" unicode="&#x2088;" horiz-adv-x="398" 
d="M199 -136q-82 0 -129 34t-47 94q0 32 16.5 57.5t44.5 39.5q-49 26 -49 83q0 54 45.5 87t118.5 33q74 0 119 -33t45 -87q0 -56 -48 -83q28 -14 44 -40t16 -57q0 -60 -46.5 -94t-129.5 -34zM199 123q20 0 32 11t12 29q0 19 -12 30t-32 11t-32 -11t-12 -30q0 -18 12 -29
t32 -11zM199 -44q23 0 36.5 12.5t13.5 31.5q0 20 -13.5 32t-36.5 12q-22 0 -36 -12t-14 -32q0 -19 14 -31.5t36 -12.5z" />
    <glyph glyph-name="uni2089" unicode="&#x2089;" horiz-adv-x="398" 
d="M216 -128l-153 3q39 27 78.5 66.5t65.5 76.5q-20 -8 -46 -8q-58 0 -96.5 38t-38.5 95q0 66 48 107.5t124 41.5q78 0 126 -43t48 -113q0 -65 -41.5 -135.5t-114.5 -128.5zM199 98q23 0 36.5 13t13.5 35q0 20 -13.5 33.5t-36.5 13.5q-22 0 -36 -13.5t-14 -33.5
q0 -21 14 -34.5t36 -13.5z" />
    <glyph glyph-name="Euro" unicode="&#x20ac;" horiz-adv-x="646" 
d="M42 237v98h90q-1 17 -1 34q0 20 1 40h-90v98h106q30 114 111 183.5t209 69.5q53 0 96.5 -9.5t80.5 -29.5l-21 -141q-69 32 -140 32q-62 0 -99.5 -28t-55.5 -77h226v-98h-244q-1 -18 -1 -38q0 -19 1 -36h244v-98h-225q19 -52 59 -78.5t106 -26.5t138 35l20 -141
q-39 -22 -84.5 -32t-98.5 -10q-138 0 -218 68.5t-107 184.5h-103z" />
    <glyph glyph-name="uni20B4" unicode="&#x20b4;" horiz-adv-x="620" 
d="M19 249v96h135q32 28 85 64h-220v96h333q18 21 18 42q0 27 -23.5 42.5t-65.5 15.5q-73 0 -149 -39l-27 146q38 20 94.5 34t116.5 14q110 0 173 -48.5t63 -132.5q0 -41 -15 -74h61v-96h-133q-33 -28 -85 -64h218v-96h-336q-13 -19 -13 -42q0 -31 31 -49.5t85 -18.5
q41 0 81.5 11.5t75.5 34.5l25 -151q-38 -25 -90.5 -37.5t-114.5 -12.5q-131 0 -204.5 51t-73.5 140q0 44 16 74h-61z" />
    <glyph glyph-name="uni20B9" unicode="&#x20b9;" horiz-adv-x="646" 
d="M64 256v97h124q56 0 93 23t51 65h-268v108h270q-26 87 -142 87h-128v108h543v-108h-138q37 -35 51 -87h87v-108h-83q-13 -82 -74 -131t-163 -61l251 -249h-237z" />
    <glyph glyph-name="uni20BA" unicode="&#x20ba;" horiz-adv-x="646" 
d="M29 207v101l91 42v73l-91 -42v101l91 42v220h176v-138l155 72v-101l-155 -72v-73l155 71v-101l-155 -71v-197q76 10 116.5 60t53.5 147l160 -7q-21 -350 -389 -350q-34 0 -64 2.5t-53 7.5v255z" />
    <glyph glyph-name="uni20BD" unicode="&#x20bd;" horiz-adv-x="620" 
d="M100 0v126h-86v109h86v67h-86v116h86v326h216q131 0 203.5 -59.5t72.5 -160.5q0 -103 -71.5 -162.5t-204.5 -59.5h-49v-67h186v-109h-186v-126h-167zM302 613h-35v-195h35q56 0 86 25.5t30 71.5q0 47 -29.5 72.5t-86.5 25.5z" />
    <glyph glyph-name="uni2116" unicode="&#x2116;" horiz-adv-x="1347" 
d="M79 0v760h173l346 -464v464h184v-760h-173l-346 465v-465h-184zM1103 374q-58 0 -104 25t-72.5 69t-26.5 99q0 56 26.5 99.5t72.5 68.5t104 25q59 0 105 -25t72.5 -68.5t26.5 -99.5q0 -55 -26.5 -99t-72.5 -69t-105 -25zM1104 495q29 0 47.5 20t18.5 52t-18 52t-48 20
q-29 0 -47.5 -20t-18.5 -52t18 -52t48 -20zM912 191v117h383v-117h-383z" />
    <glyph glyph-name="trademark" unicode="&#x2122;" horiz-adv-x="865" 
d="M107 390v272h-99v98h326v-98h-98v-272h-129zM373 390l25 370h132l76 -181l77 181h131l25 -370h-115l-12 212l-63 -150h-88l-62 146l-11 -208h-115z" />
    <glyph glyph-name="Omega" unicode="&#x2126;" horiz-adv-x="922" 
d="M69 0v160h119q-61 46 -93 113.5t-32 148.5q0 77 29.5 141.5t83 112.5t126 74t159.5 26q118 0 207.5 -45t140 -124.5t50.5 -184.5q0 -168 -126 -262h120v-160h-342v156q68 39 103.5 100.5t35.5 139.5q0 60 -24 105.5t-66.5 71t-98.5 25.5t-98.5 -25.5t-66.5 -71
t-24 -105.5q0 -78 35.5 -139.5t102.5 -100.5v-156h-341z" />
    <glyph glyph-name="uni2150" unicode="&#x2150;" horiz-adv-x="986" 
d="M138 0l507 744h142l-506 -744h-143zM656 1l152 292h-175v115h317v-99l-154 -311zM161 336v279l-99 -45l-19 113l134 61h118v-408h-134z" />
    <glyph glyph-name="uni2151" unicode="&#x2151;" horiz-adv-x="986" 
d="M164 0l507 744h142l-506 -744h-143zM804 -2l-153 3q39 27 78.5 66.5t65.5 76.5q-20 -8 -46 -8q-58 0 -96.5 38t-38.5 95q0 66 48 107.5t124 41.5q78 0 126 -43t48 -113q0 -65 -41.5 -135.5t-114.5 -128.5zM787 224q23 0 36.5 13t13.5 35q0 20 -13.5 33.5t-36.5 13.5
q-22 0 -36 -13.5t-14 -33.5q0 -21 14 -34.5t36 -13.5zM161 336v279l-99 -45l-19 113l134 61h118v-408h-134z" />
    <glyph glyph-name="uni2153" unicode="&#x2153;" horiz-adv-x="986" 
d="M147 0l507 744h142l-506 -744h-143zM762 -10q-90 0 -137 28l10 100q26 -13 57 -20t59 -7q61 0 61 41q0 38 -58 38q-25 0 -43 -7l-27 64l96 81h-143v100h290v-92l-88 -73q47 -7 75.5 -38.5t28.5 -74.5q0 -64 -49 -102t-132 -38zM161 336v279l-99 -45l-19 113l134 61h118
v-408h-134z" />
    <glyph glyph-name="uni2154" unicode="&#x2154;" horiz-adv-x="986" 
d="M171 0l507 744h142l-506 -744h-143zM762 -10q-90 0 -137 28l10 100q26 -13 57 -20t59 -7q61 0 61 41q0 38 -58 38q-25 0 -43 -7l-27 64l96 81h-143v100h290v-92l-88 -73q47 -7 75.5 -38.5t28.5 -74.5q0 -64 -49 -102t-132 -38zM36 336v102q35 23 66 47t52 43q56 50 56 83
q0 37 -49 37q-53 0 -103 -47l-21 101q23 23 65.5 37.5t83.5 14.5q71 0 113.5 -34t42.5 -91q0 -77 -82 -150q-21 -19 -43 -36h139v-107h-320z" />
    <glyph glyph-name="uni2155" unicode="&#x2155;" horiz-adv-x="986" 
d="M150 0l507 744h142l-506 -744h-143zM765 -10q-43 0 -80 7.5t-54 19.5l10 102q45 -28 106 -28q68 0 68 42q0 39 -65 39q-25 0 -51.5 -2.5t-52.5 -7.5l10 246h264v-100h-158l-2 -47q15 1 31 1q74 0 114.5 -34t40.5 -97q0 -67 -47.5 -104t-133.5 -37zM161 336v279l-99 -45
l-19 113l134 61h118v-408h-134z" />
    <glyph glyph-name="uni2156" unicode="&#x2156;" horiz-adv-x="986" 
d="M179 0l507 744h142l-506 -744h-143zM765 -10q-43 0 -80 7.5t-54 19.5l10 102q45 -28 106 -28q68 0 68 42q0 39 -65 39q-25 0 -51.5 -2.5t-52.5 -7.5l10 246h264v-100h-158l-2 -47q15 1 31 1q74 0 114.5 -34t40.5 -97q0 -67 -47.5 -104t-133.5 -37zM36 336v102
q35 23 66 47t52 43q56 50 56 83q0 37 -49 37q-53 0 -103 -47l-21 101q23 23 65.5 37.5t83.5 14.5q71 0 113.5 -34t42.5 -91q0 -77 -82 -150q-21 -19 -43 -36h139v-107h-320z" />
    <glyph glyph-name="uni2157" unicode="&#x2157;" horiz-adv-x="986" 
d="M154 0l507 744h142l-506 -744h-143zM765 -10q-43 0 -80 7.5t-54 19.5l10 102q45 -28 106 -28q68 0 68 42q0 39 -65 39q-25 0 -51.5 -2.5t-52.5 -7.5l10 246h264v-100h-158l-2 -47q15 1 31 1q74 0 114.5 -34t40.5 -97q0 -67 -47.5 -104t-133.5 -37zM174 326q-90 0 -137 28
l10 100q26 -13 57 -20t59 -7q61 0 61 41q0 38 -58 38q-25 0 -43 -7l-27 64l96 81h-143v100h290v-92l-88 -73q47 -7 75.5 -38.5t28.5 -74.5q0 -64 -49 -102t-132 -38z" />
    <glyph glyph-name="uni2158" unicode="&#x2158;" horiz-adv-x="986" 
d="M172 0l507 744h142l-506 -744h-143zM765 -10q-43 0 -80 7.5t-54 19.5l10 102q45 -28 106 -28q68 0 68 42q0 39 -65 39q-25 0 -51.5 -2.5t-52.5 -7.5l10 246h264v-100h-158l-2 -47q15 1 31 1q74 0 114.5 -34t40.5 -97q0 -67 -47.5 -104t-133.5 -37zM214 336v75h-194v99
l175 234h134v-238h44v-95h-44v-75h-115zM128 506h86v115z" />
    <glyph glyph-name="uni2159" unicode="&#x2159;" horiz-adv-x="986" 
d="M177 0l507 744h142l-506 -744h-143zM788 -10q-78 0 -126 43t-48 113q0 65 41.5 135.5t114.5 128.5l153 -3q-39 -27 -78 -66t-67 -78q22 9 46 9q59 0 97.5 -38t38.5 -95q0 -66 -48 -107.5t-124 -41.5zM787 89q22 0 35.5 13.5t13.5 33.5q0 21 -13.5 34.5t-35.5 13.5
t-36 -13t-14 -35q0 -20 14 -33.5t36 -13.5zM161 336v279l-99 -45l-19 113l134 61h118v-408h-134z" />
    <glyph glyph-name="uni215A" unicode="&#x215a;" horiz-adv-x="986" 
d="M184 0l507 744h142l-506 -744h-143zM788 -10q-78 0 -126 43t-48 113q0 65 41.5 135.5t114.5 128.5l153 -3q-39 -27 -78 -66t-67 -78q22 9 46 9q59 0 97.5 -38t38.5 -95q0 -66 -48 -107.5t-124 -41.5zM787 89q22 0 35.5 13.5t13.5 33.5q0 21 -13.5 34.5t-35.5 13.5
t-36 -13t-14 -35q0 -20 14 -33.5t36 -13.5zM177 326q-43 0 -80 7.5t-54 19.5l10 102q45 -28 106 -28q68 0 68 42q0 39 -65 39q-25 0 -51.5 -2.5t-52.5 -7.5l10 246h264v-100h-158l-2 -47q15 1 31 1q74 0 114.5 -34t40.5 -97q0 -67 -47.5 -104t-133.5 -37z" />
    <glyph glyph-name="oneeighth" unicode="&#x215b;" horiz-adv-x="986" 
d="M156 0l507 744h142l-506 -744h-143zM787 -10q-82 0 -129 34t-47 94q0 32 16.5 57.5t44.5 39.5q-49 26 -49 83q0 54 45.5 87t118.5 33q74 0 119 -33t45 -87q0 -56 -48 -83q28 -14 44 -40t16 -57q0 -60 -46.5 -94t-129.5 -34zM787 249q20 0 32 11t12 29q0 19 -12 30t-32 11
t-32 -11t-12 -30q0 -18 12 -29t32 -11zM787 82q23 0 36.5 12.5t13.5 31.5q0 20 -13.5 32t-36.5 12q-22 0 -36 -12t-14 -32q0 -19 14 -31.5t36 -12.5zM161 336v279l-99 -45l-19 113l134 61h118v-408h-134z" />
    <glyph glyph-name="threeeighths" unicode="&#x215c;" horiz-adv-x="986" 
d="M157 0l507 744h142l-506 -744h-143zM787 -10q-82 0 -129 34t-47 94q0 32 16.5 57.5t44.5 39.5q-49 26 -49 83q0 54 45.5 87t118.5 33q74 0 119 -33t45 -87q0 -56 -48 -83q28 -14 44 -40t16 -57q0 -60 -46.5 -94t-129.5 -34zM787 249q20 0 32 11t12 29q0 19 -12 30t-32 11
t-32 -11t-12 -30q0 -18 12 -29t32 -11zM787 82q23 0 36.5 12.5t13.5 31.5q0 20 -13.5 32t-36.5 12q-22 0 -36 -12t-14 -32q0 -19 14 -31.5t36 -12.5zM174 326q-90 0 -137 28l10 100q26 -13 57 -20t59 -7q61 0 61 41q0 38 -58 38q-25 0 -43 -7l-27 64l96 81h-143v100h290v-92
l-88 -73q47 -7 75.5 -38.5t28.5 -74.5q0 -64 -49 -102t-132 -38z" />
    <glyph glyph-name="fiveeighths" unicode="&#x215d;" horiz-adv-x="986" 
d="M163 0l507 744h142l-506 -744h-143zM787 -10q-82 0 -129 34t-47 94q0 32 16.5 57.5t44.5 39.5q-49 26 -49 83q0 54 45.5 87t118.5 33q74 0 119 -33t45 -87q0 -56 -48 -83q28 -14 44 -40t16 -57q0 -60 -46.5 -94t-129.5 -34zM787 249q20 0 32 11t12 29q0 19 -12 30t-32 11
t-32 -11t-12 -30q0 -18 12 -29t32 -11zM787 82q23 0 36.5 12.5t13.5 31.5q0 20 -13.5 32t-36.5 12q-22 0 -36 -12t-14 -32q0 -19 14 -31.5t36 -12.5zM177 326q-43 0 -80 7.5t-54 19.5l10 102q45 -28 106 -28q68 0 68 42q0 39 -65 39q-25 0 -51.5 -2.5t-52.5 -7.5l10 246h264
v-100h-158l-2 -47q15 1 31 1q74 0 114.5 -34t40.5 -97q0 -67 -47.5 -104t-133.5 -37z" />
    <glyph glyph-name="seveneighths" unicode="&#x215e;" horiz-adv-x="986" 
d="M128 0l507 744h142l-506 -744h-143zM787 -10q-82 0 -129 34t-47 94q0 32 16.5 57.5t44.5 39.5q-49 26 -49 83q0 54 45.5 87t118.5 33q74 0 119 -33t45 -87q0 -56 -48 -83q28 -14 44 -40t16 -57q0 -60 -46.5 -94t-129.5 -34zM787 249q20 0 32 11t12 29q0 19 -12 30t-32 11
t-32 -11t-12 -30q0 -18 12 -29t32 -11zM787 82q23 0 36.5 12.5t13.5 31.5q0 20 -13.5 32t-36.5 12q-22 0 -36 -12t-14 -32q0 -19 14 -31.5t36 -12.5zM68 337l152 292h-175v115h317v-99l-154 -311z" />
    <glyph glyph-name="partialdiff" unicode="&#x2202;" horiz-adv-x="648" 
d="M278 -16q-76 0 -133 29t-88.5 81.5t-31.5 122.5q0 73 33 130.5t90 91.5t128 34q48 0 86 -17t60 -49v31q0 82 -36 124.5t-107 42.5q-40 0 -82 -15t-71 -39l-21 149q35 28 90 44t113 16q144 0 222.5 -90t78.5 -255q0 -131 -40.5 -228t-114.5 -150t-176 -53zM294 138
q46 0 77 32.5t31 78.5q0 42 -24 66t-68 24q-47 0 -77.5 -31.5t-30.5 -79.5q0 -42 24.5 -66t67.5 -24z" />
    <glyph glyph-name="Delta" unicode="&#x2206;" horiz-adv-x="846" 
d="M21 0l300 760h202l302 -760h-804zM271 152h292l-147 441z" />
    <glyph glyph-name="product" unicode="&#x220f;" horiz-adv-x="787" 
d="M79 -79v839h629v-839h-199v682h-230v-682h-200z" />
    <glyph glyph-name="summation" unicode="&#x2211;" horiz-adv-x="656" 
d="M34 -79v131l198 298l-193 279v131h562v-164h-319l167 -241l-179 -270h335v-164h-571z" />
    <glyph glyph-name="minus" unicode="&#x2212;" horiz-adv-x="646" 
d="M94 261v149h482v-149h-482z" />
    <glyph glyph-name="uni2215" unicode="&#x2215;" horiz-adv-x="190" 
d="M-230 0l507 744h142l-506 -744h-143z" />
    <glyph glyph-name="uni2219" unicode="&#x2219;" horiz-adv-x="306" 
d="M153 283q-45 0 -73.5 27t-28.5 69t28.5 68.5t73.5 26.5t73.5 -26.5t28.5 -68.5t-28.5 -69t-73.5 -27z" />
    <glyph glyph-name="radical" unicode="&#x221a;" horiz-adv-x="759" 
d="M292 0l-142 336h-119v145h256l97 -281l242 631h177l-336 -831h-175z" />
    <glyph glyph-name="infinity" unicode="&#x221e;" horiz-adv-x="731" 
d="M215 151q-87 0 -138 53t-51 144t51 144t138 53q44 0 84.5 -21t65.5 -57q26 36 66 57t84 21q88 0 138.5 -53t50.5 -144t-50.5 -144t-138.5 -53q-45 0 -85 20.5t-65 57.5q-25 -37 -64.5 -57.5t-85.5 -20.5zM224 281q47 0 77 67q-30 66 -77 66q-28 0 -43.5 -17.5
t-15.5 -48.5t15.5 -49t43.5 -18zM507 281q27 0 42.5 18t15.5 49t-15.5 48.5t-42.5 17.5q-50 0 -77 -66q26 -67 77 -67z" />
    <glyph glyph-name="integral" unicode="&#x222b;" horiz-adv-x="473" 
d="M100 -254q-31 0 -65.5 7t-55.5 17l17 146q13 -5 33.5 -9.5t34.5 -4.5q77 0 77 95v24t-1 17l-31 492q-1 12 -1 21.5v28.5q0 116 55.5 178.5t159.5 62.5q31 0 65.5 -6.5t55.5 -17.5l-17 -146q-13 5 -33.5 9.5t-34.5 4.5q-40 0 -58 -23t-18 -72v-22.5t1 -18.5l30 -492
q1 -9 1 -19.5v-30.5q0 -116 -55.5 -178.5t-159.5 -62.5z" />
    <glyph glyph-name="approxequal" unicode="&#x2248;" horiz-adv-x="646" 
d="M60 360v14q0 84 21 132t58 68t85 20q40 0 70.5 -13.5t58.5 -32.5q23 -16 40 -24.5t34 -8.5q20 0 32.5 17t13.5 62h137v-14q0 -84 -21 -132t-58 -68t-85 -20q-33 0 -60.5 10.5t-52.5 26.5q-28 18 -48.5 30t-41.5 12q-20 0 -32.5 -17t-13.5 -62h-137zM60 80v15q0 84 21 132
t58 68t85 20q40 0 70.5 -13.5t58.5 -33.5q23 -16 40 -24t34 -8q20 0 32.5 17t13.5 62h137v-15q0 -83 -21 -131.5t-58 -68.5t-85 -20q-33 0 -60.5 10.5t-52.5 27.5q-28 18 -48.5 29.5t-41.5 11.5q-20 0 -32.5 -17t-13.5 -62h-137z" />
    <glyph glyph-name="notequal" unicode="&#x2260;" horiz-adv-x="646" 
d="M143 27l53 115h-84v140h148l45 99h-193v140h257l53 115h105l-53 -115h84v-140h-148l-45 -99h193v-140h-257l-53 -115h-105z" />
    <glyph glyph-name="lessequal" unicode="&#x2264;" horiz-adv-x="646" 
d="M572 193l-475 157v171l475 157v-155l-316 -87l316 -88v-155zM94 0v149h482v-149h-482z" />
    <glyph glyph-name="greaterequal" unicode="&#x2265;" horiz-adv-x="646" 
d="M98 193v155l319 87l-319 88v155l475 -157v-171zM94 0v149h482v-149h-482z" />
    <glyph glyph-name="lozenge" unicode="&#x25ca;" horiz-adv-x="700" 
d="M272 0l-231 405l231 406h157l230 -406l-230 -405h-157zM228 406l122 -231l122 230l-122 232z" />
    <glyph glyph-name="uniFB00" unicode="&#xfb00;" horiz-adv-x="877" 
d="M114 0v371h-83v145h83v50q0 119 59 184t168 65q33 0 69.5 -6.5t57.5 -17.5l-17 -146q-14 5 -34 9t-36 4q-44 0 -65 -25t-21 -79v-38h122v-145h-122v-371h-181zM543 0v371h-83v145h83v50q0 119 59 184t168 65q33 0 69.5 -6.5t57.5 -17.5l-17 -146q-14 5 -34 9t-36 4
q-44 0 -65 -25t-21 -79v-38h122v-145h-122v-371h-181z" />
    <glyph glyph-name="uniFB01" unicode="&#xfb01;" horiz-adv-x="739" 
d="M114 0v371h-83v145h83v50q0 119 58.5 184t165.5 65q31 0 58.5 -4.5t46.5 -12.5l-9 -150q-11 5 -26.5 7.5t-28.5 2.5q-43 0 -63.5 -25t-20.5 -79v-38h122v-145h-122v-371h-181zM588 597q-43 0 -72.5 28t-29.5 68q0 42 29.5 69.5t72.5 27.5t72 -27.5t29 -69.5
q0 -40 -29 -68t-72 -28zM497 0v516h181v-516h-181z" />
    <glyph glyph-name="uniFB02" unicode="&#xfb02;" horiz-adv-x="739" 
d="M114 0v371h-83v145h83v50q0 119 58.5 184t165.5 65q31 0 58.5 -4.5t46.5 -12.5l-9 -150q-11 5 -26.5 7.5t-28.5 2.5q-43 0 -63.5 -25t-20.5 -79v-38h122v-145h-122v-371h-181zM497 0v810h181v-810h-181z" />
    <glyph glyph-name="uniFB03" unicode="&#xfb03;" horiz-adv-x="1172" 
d="M114 0v371h-83v145h83v50q0 119 59 184t168 65q33 0 69.5 -6.5t57.5 -17.5l-17 -146q-14 5 -34 9t-36 4q-44 0 -65 -25t-21 -79v-38h122v-145h-122v-371h-181zM547 0v371h-83v145h83v50q0 119 58.5 184t165.5 65q31 0 58.5 -4.5t46.5 -12.5l-9 -150q-11 5 -26.5 7.5
t-28.5 2.5q-43 0 -63.5 -25t-20.5 -79v-38h122v-145h-122v-371h-181zM1021 597q-43 0 -72.5 28t-29.5 68q0 42 29.5 69.5t72.5 27.5t72 -27.5t29 -69.5q0 -40 -29 -68t-72 -28zM930 0v516h181v-516h-181z" />
    <glyph glyph-name="uniFB04" unicode="&#xfb04;" horiz-adv-x="1172" 
d="M114 0v371h-83v145h83v50q0 119 59 184t168 65q33 0 69.5 -6.5t57.5 -17.5l-17 -146q-14 5 -34 9t-36 4q-44 0 -65 -25t-21 -79v-38h122v-145h-122v-371h-181zM547 0v371h-83v145h83v50q0 119 58.5 184t165.5 65q31 0 58.5 -4.5t46.5 -12.5l-9 -150q-11 5 -26.5 7.5
t-28.5 2.5q-43 0 -63.5 -25t-20.5 -79v-38h122v-145h-122v-371h-181zM930 0v810h181v-810h-181z" />
    <glyph glyph-name="uniFEFF" unicode="&#xfeff;" 
 />
    <glyph glyph-name="zero.pnum" horiz-adv-x="680" 
d="M340 -16q-142 0 -221.5 102t-79.5 286q0 36 3.5 69t10.5 63q25 123 98.5 189.5t188.5 66.5q143 0 222 -102t79 -286q0 -36 -4 -69t-9 -63q-24 -123 -98.5 -189.5t-189.5 -66.5zM340 150q68 0 90 98q6 25 8.5 56t2.5 68q0 222 -101 222q-68 0 -90 -98q-5 -25 -8 -55.5
t-3 -68.5q0 -222 101 -222z" />
    <glyph glyph-name="one.pnum" horiz-adv-x="527" 
d="M229 0v558l-186 -79l-31 156l252 109h149v-744h-184z" />
    <glyph glyph-name="two.pnum" horiz-adv-x="647" 
d="M38 0v137q62 54 112.5 102.5t85.5 88.5q39 45 61 77t31.5 58t9.5 52q0 40 -25.5 63.5t-66.5 23.5q-94 0 -173 -81l-31 154q46 41 108.5 63t129.5 22q77 0 133.5 -27t87.5 -77t31 -118q0 -65 -33.5 -132t-104.5 -145q-19 -21 -47 -48t-56 -53h265v-160h-518z" />
    <glyph glyph-name="three.pnum" horiz-adv-x="610" 
d="M237 -16q-66 0 -124 13t-98 37l16 151q90 -49 191 -49q59 0 91.5 25t32.5 70q0 44 -31 67.5t-87 23.5q-19 0 -35.5 -1.5t-31.5 -6.5l-44 100l178 180h-264v150h481v-130l-170 -170q58 -4 101.5 -31.5t68.5 -73.5t25 -105q0 -76 -36.5 -132.5t-103.5 -87t-160 -30.5z" />
    <glyph glyph-name="four.pnum" horiz-adv-x="663" 
d="M348 0v152h-335v141l320 451h185v-447h85v-145h-85v-152h-170zM179 297h169v238z" />
    <glyph glyph-name="five.pnum" horiz-adv-x="616" 
d="M248 -16q-65 0 -127 12.5t-100 31.5l16 154q97 -44 189 -44q62 0 97 27t35 73q0 47 -38.5 73t-109.5 26q-37 0 -81.5 -5.5t-76.5 -14.5l17 427h433v-155h-271l-5 -118q33 5 54 5q82 0 142 -29t93.5 -81.5t33.5 -123.5q0 -79 -36.5 -137t-104 -89.5t-160.5 -31.5z" />
    <glyph glyph-name="six.pnum" horiz-adv-x="651" 
d="M314 -16q-90 0 -154.5 33t-99 94.5t-34.5 146.5q0 82 33.5 168t95 169t145.5 152l224 -7q-195 -161 -268 -299q39 32 104 32q67 0 119 -30.5t82 -83.5t30 -121q0 -74 -35.5 -131.5t-97.5 -90t-144 -32.5zM310 135q44 0 71.5 28t27.5 71q0 44 -27.5 71.5t-71.5 27.5
q-42 0 -70 -27.5t-28 -71.5q0 -43 28 -71t70 -28z" />
    <glyph glyph-name="seven.pnum" horiz-adv-x="604" 
d="M86 2l260 570h-327v172h529v-149l-264 -598z" />
    <glyph glyph-name="eight.pnum" horiz-adv-x="663" 
d="M313 -16q-89 0 -153.5 27t-99.5 77.5t-35 119.5q0 64 33 112.5t91 69.5q-50 21 -77.5 63t-27.5 98q0 63 33.5 110t94 73t141.5 26t141.5 -26t94 -73t33.5 -110q0 -55 -27.5 -97.5t-77.5 -63.5q57 -21 90.5 -70t33.5 -112q0 -69 -35 -119t-99.5 -77.5t-153.5 -27.5z
M313 449q42 0 67.5 23.5t25.5 63.5q0 39 -25.5 62.5t-67.5 23.5t-67.5 -23.5t-25.5 -62.5q0 -40 25.5 -63.5t67.5 -23.5zM313 129q45 0 72.5 26t27.5 67q0 42 -28 67.5t-72 25.5t-72 -25.5t-28 -67.5q0 -41 27.5 -67t72.5 -26z" />
    <glyph glyph-name="nine.pnum" horiz-adv-x="651" 
d="M90 4q96 78 162.5 152.5t105.5 146.5q-37 -32 -104 -32q-66 0 -118.5 30.5t-82.5 84t-30 120.5q0 75 35.5 132t98 89.5t143.5 32.5q90 0 154.5 -33t99 -94.5t34.5 -146.5q0 -81 -33.5 -168t-94.5 -169t-146 -152zM304 411q43 0 70.5 28t27.5 71q0 44 -27.5 71.5
t-70.5 27.5t-71 -27.5t-28 -71.5q0 -43 28 -71t71 -28z" />
    <glyph glyph-name="zero.dnom" horiz-adv-x="398" 
d="M199 -10q-87 0 -136.5 57t-49.5 157q0 32 6 60q13 74 60 114t120 40q87 0 136.5 -56.5t49.5 -157.5q0 -31 -6 -60q-13 -73 -59.5 -113.5t-120.5 -40.5zM199 102q35 0 47 51q2 11 3 23.5t1 27.5q0 102 -51 102q-37 0 -47 -51q-2 -10 -3 -23t-1 -28q0 -102 51 -102z" />
    <glyph glyph-name="one.dnom" horiz-adv-x="398" 
d="M161 0v279l-99 -45l-19 113l134 61h118v-408h-134z" />
    <glyph glyph-name="two.dnom" horiz-adv-x="398" 
d="M36 0v102q35 23 66 47t52 43q56 50 56 83q0 37 -49 37q-53 0 -103 -47l-21 101q23 23 65.5 37.5t83.5 14.5q71 0 113.5 -34t42.5 -91q0 -77 -82 -150q-21 -19 -43 -36h139v-107h-320z" />
    <glyph glyph-name="three.dnom" horiz-adv-x="398" 
d="M174 -10q-90 0 -137 28l10 100q26 -13 57 -20t59 -7q61 0 61 41q0 38 -58 38q-25 0 -43 -7l-27 64l96 81h-143v100h290v-92l-88 -73q47 -7 75.5 -38.5t28.5 -74.5q0 -64 -49 -102t-132 -38z" />
    <glyph glyph-name="four.dnom" horiz-adv-x="398" 
d="M214 0v75h-194v99l175 234h134v-238h44v-95h-44v-75h-115zM128 170h86v115z" />
    <glyph glyph-name="five.dnom" horiz-adv-x="398" 
d="M177 -10q-43 0 -80 7.5t-54 19.5l10 102q45 -28 106 -28q68 0 68 42q0 39 -65 39q-25 0 -51.5 -2.5t-52.5 -7.5l10 246h264v-100h-158l-2 -47q15 1 31 1q74 0 114.5 -34t40.5 -97q0 -67 -47.5 -104t-133.5 -37z" />
    <glyph glyph-name="six.dnom" horiz-adv-x="398" 
d="M200 -10q-78 0 -126 43t-48 113q0 65 41.5 135.5t114.5 128.5l153 -3q-39 -27 -78 -66t-67 -78q22 9 46 9q59 0 97.5 -38t38.5 -95q0 -66 -48 -107.5t-124 -41.5zM199 89q22 0 35.5 13.5t13.5 33.5q0 21 -13.5 34.5t-35.5 13.5t-36 -13t-14 -35q0 -20 14 -33.5t36 -13.5z
" />
    <glyph glyph-name="seven.dnom" horiz-adv-x="398" 
d="M68 1l152 292h-175v115h317v-99l-154 -311z" />
    <glyph glyph-name="eight.dnom" horiz-adv-x="398" 
d="M199 -10q-82 0 -129 34t-47 94q0 32 16.5 57.5t44.5 39.5q-49 26 -49 83q0 54 45.5 87t118.5 33q74 0 119 -33t45 -87q0 -56 -48 -83q28 -14 44 -40t16 -57q0 -60 -46.5 -94t-129.5 -34zM199 249q20 0 32 11t12 29q0 19 -12 30t-32 11t-32 -11t-12 -30q0 -18 12 -29
t32 -11zM199 82q23 0 36.5 12.5t13.5 31.5q0 20 -13.5 32t-36.5 12q-22 0 -36 -12t-14 -32q0 -19 14 -31.5t36 -12.5z" />
    <glyph glyph-name="nine.dnom" horiz-adv-x="398" 
d="M216 -2l-153 3q39 27 78.5 66.5t65.5 76.5q-20 -8 -46 -8q-58 0 -96.5 38t-38.5 95q0 66 48 107.5t124 41.5q78 0 126 -43t48 -113q0 -65 -41.5 -135.5t-114.5 -128.5zM199 224q23 0 36.5 13t13.5 35q0 20 -13.5 33.5t-36.5 13.5q-22 0 -36 -13.5t-14 -33.5
q0 -21 14 -34.5t36 -13.5z" />
    <glyph glyph-name="zero.numr" horiz-adv-x="398" 
d="M199 326q-87 0 -136.5 57t-49.5 157q0 32 6 60q13 74 60 114t120 40q87 0 136.5 -56.5t49.5 -157.5q0 -31 -6 -60q-13 -73 -59.5 -113.5t-120.5 -40.5zM199 438q35 0 47 51q2 11 3 23.5t1 27.5q0 102 -51 102q-37 0 -47 -51q-2 -10 -3 -23t-1 -28q0 -102 51 -102z" />
    <glyph glyph-name="one.numr" horiz-adv-x="398" 
d="M161 336v279l-99 -45l-19 113l134 61h118v-408h-134z" />
    <glyph glyph-name="two.numr" horiz-adv-x="398" 
d="M36 336v102q35 23 66 47t52 43q56 50 56 83q0 37 -49 37q-53 0 -103 -47l-21 101q23 23 65.5 37.5t83.5 14.5q71 0 113.5 -34t42.5 -91q0 -77 -82 -150q-21 -19 -43 -36h139v-107h-320z" />
    <glyph glyph-name="three.numr" horiz-adv-x="398" 
d="M174 326q-90 0 -137 28l10 100q26 -13 57 -20t59 -7q61 0 61 41q0 38 -58 38q-25 0 -43 -7l-27 64l96 81h-143v100h290v-92l-88 -73q47 -7 75.5 -38.5t28.5 -74.5q0 -64 -49 -102t-132 -38z" />
    <glyph glyph-name="four.numr" horiz-adv-x="398" 
d="M214 336v75h-194v99l175 234h134v-238h44v-95h-44v-75h-115zM128 506h86v115z" />
    <glyph glyph-name="five.numr" horiz-adv-x="398" 
d="M177 326q-43 0 -80 7.5t-54 19.5l10 102q45 -28 106 -28q68 0 68 42q0 39 -65 39q-25 0 -51.5 -2.5t-52.5 -7.5l10 246h264v-100h-158l-2 -47q15 1 31 1q74 0 114.5 -34t40.5 -97q0 -67 -47.5 -104t-133.5 -37z" />
    <glyph glyph-name="six.numr" horiz-adv-x="398" 
d="M200 326q-78 0 -126 43t-48 113q0 65 41.5 135.5t114.5 128.5l153 -3q-39 -27 -78 -66t-67 -78q22 9 46 9q59 0 97.5 -38t38.5 -95q0 -66 -48 -107.5t-124 -41.5zM199 425q22 0 35.5 13.5t13.5 33.5q0 21 -13.5 34.5t-35.5 13.5t-36 -13t-14 -35q0 -20 14 -33.5t36 -13.5
z" />
    <glyph glyph-name="seven.numr" horiz-adv-x="398" 
d="M68 337l152 292h-175v115h317v-99l-154 -311z" />
    <glyph glyph-name="eight.numr" horiz-adv-x="398" 
d="M199 326q-82 0 -129 34t-47 94q0 32 16.5 57.5t44.5 39.5q-49 26 -49 83q0 54 45.5 87t118.5 33q74 0 119 -33t45 -87q0 -56 -48 -83q28 -14 44 -40t16 -57q0 -60 -46.5 -94t-129.5 -34zM199 585q20 0 32 11t12 29q0 19 -12 30t-32 11t-32 -11t-12 -30q0 -18 12 -29
t32 -11zM199 418q23 0 36.5 12.5t13.5 31.5q0 20 -13.5 32t-36.5 12q-22 0 -36 -12t-14 -32q0 -19 14 -31.5t36 -12.5z" />
    <glyph glyph-name="nine.numr" horiz-adv-x="398" 
d="M216 334l-153 3q39 27 78.5 66.5t65.5 76.5q-20 -8 -46 -8q-58 0 -96.5 38t-38.5 95q0 66 48 107.5t124 41.5q78 0 126 -43t48 -113q0 -65 -41.5 -135.5t-114.5 -128.5zM199 560q23 0 36.5 13t13.5 35q0 20 -13.5 33.5t-36.5 13.5q-22 0 -36 -13.5t-14 -33.5
q0 -21 14 -34.5t36 -13.5z" />
    <glyph glyph-name="zero.percent" horiz-adv-x="514" 
d="M257 -14q-58 0 -103.5 25t-72 68.5t-26.5 99.5t26.5 99.5t72 68.5t103.5 25t103.5 -25t72 -68.5t26.5 -99.5t-26.5 -99.5t-72 -68.5t-103.5 -25zM257 99q33 0 52.5 22t19.5 58t-19.5 57.5t-52.5 21.5t-52.5 -21.5t-19.5 -57.5t19.5 -58t52.5 -22z" />
    <glyph glyph-name="two_fraction_seven" horiz-adv-x="986" 
d="M170 0l507 744h142l-506 -744h-143zM656 1l152 292h-175v115h317v-99l-154 -311zM36 336v102q35 23 66 47t52 43q56 50 56 83q0 37 -49 37q-53 0 -103 -47l-21 101q23 23 65.5 37.5t83.5 14.5q71 0 113.5 -34t42.5 -91q0 -77 -82 -150q-21 -19 -43 -36h139v-107h-320z
" />
    <glyph glyph-name="three_fraction_seven" horiz-adv-x="986" 
d="M144 0l507 744h142l-506 -744h-143zM656 1l152 292h-175v115h317v-99l-154 -311zM174 326q-90 0 -137 28l10 100q26 -13 57 -20t59 -7q61 0 61 41q0 38 -58 38q-25 0 -43 -7l-27 64l96 81h-143v100h290v-92l-88 -73q47 -7 75.5 -38.5t28.5 -74.5q0 -64 -49 -102t-132 -38
z" />
    <glyph glyph-name="four_fraction_seven" horiz-adv-x="986" 
d="M158 0l507 744h142l-506 -744h-143zM656 1l152 292h-175v115h317v-99l-154 -311zM214 336v75h-194v99l175 234h134v-238h44v-95h-44v-75h-115zM128 506h86v115z" />
    <glyph glyph-name="five_fraction_seven" horiz-adv-x="986" 
d="M147 0l507 744h142l-506 -744h-143zM656 1l152 292h-175v115h317v-99l-154 -311zM177 326q-43 0 -80 7.5t-54 19.5l10 102q45 -28 106 -28q68 0 68 42q0 39 -65 39q-25 0 -51.5 -2.5t-52.5 -7.5l10 246h264v-100h-158l-2 -47q15 1 31 1q74 0 114.5 -34t40.5 -97
q0 -67 -47.5 -104t-133.5 -37z" />
    <glyph glyph-name="six_fraction_seven" horiz-adv-x="986" 
d="M148 0l507 744h142l-506 -744h-143zM656 1l152 292h-175v115h317v-99l-154 -311zM200 326q-78 0 -126 43t-48 113q0 65 41.5 135.5t114.5 128.5l153 -3q-39 -27 -78 -66t-67 -78q22 9 46 9q59 0 97.5 -38t38.5 -95q0 -66 -48 -107.5t-124 -41.5zM199 425q22 0 35.5 13.5
t13.5 33.5q0 21 -13.5 34.5t-35.5 13.5t-36 -13t-14 -35q0 -20 14 -33.5t36 -13.5z" />
    <glyph glyph-name="two_fraction_nine" horiz-adv-x="986" 
d="M184 0l507 744h142l-506 -744h-143zM804 -2l-153 3q39 27 78.5 66.5t65.5 76.5q-20 -8 -46 -8q-58 0 -96.5 38t-38.5 95q0 66 48 107.5t124 41.5q78 0 126 -43t48 -113q0 -65 -41.5 -135.5t-114.5 -128.5zM787 224q23 0 36.5 13t13.5 35q0 20 -13.5 33.5t-36.5 13.5
q-22 0 -36 -13.5t-14 -33.5q0 -21 14 -34.5t36 -13.5zM36 336v102q35 23 66 47t52 43q56 50 56 83q0 37 -49 37q-53 0 -103 -47l-21 101q23 23 65.5 37.5t83.5 14.5q71 0 113.5 -34t42.5 -91q0 -77 -82 -150q-21 -19 -43 -36h139v-107h-320z" />
    <glyph glyph-name="four_fraction_nine" horiz-adv-x="986" 
d="M184 0l507 744h142l-506 -744h-143zM804 -2l-153 3q39 27 78.5 66.5t65.5 76.5q-20 -8 -46 -8q-58 0 -96.5 38t-38.5 95q0 66 48 107.5t124 41.5q78 0 126 -43t48 -113q0 -65 -41.5 -135.5t-114.5 -128.5zM787 224q23 0 36.5 13t13.5 35q0 20 -13.5 33.5t-36.5 13.5
q-22 0 -36 -13.5t-14 -33.5q0 -21 14 -34.5t36 -13.5zM214 336v75h-194v99l175 234h134v-238h44v-95h-44v-75h-115zM128 506h86v115z" />
    <glyph glyph-name="five_fraction_nine" horiz-adv-x="986" 
d="M163 0l507 744h142l-506 -744h-143zM804 -2l-153 3q39 27 78.5 66.5t65.5 76.5q-20 -8 -46 -8q-58 0 -96.5 38t-38.5 95q0 66 48 107.5t124 41.5q78 0 126 -43t48 -113q0 -65 -41.5 -135.5t-114.5 -128.5zM787 224q23 0 36.5 13t13.5 35q0 20 -13.5 33.5t-36.5 13.5
q-22 0 -36 -13.5t-14 -33.5q0 -21 14 -34.5t36 -13.5zM177 326q-43 0 -80 7.5t-54 19.5l10 102q45 -28 106 -28q68 0 68 42q0 39 -65 39q-25 0 -51.5 -2.5t-52.5 -7.5l10 246h264v-100h-158l-2 -47q15 1 31 1q74 0 114.5 -34t40.5 -97q0 -67 -47.5 -104t-133.5 -37z" />
    <glyph glyph-name="seven_fraction_nine" horiz-adv-x="986" 
d="M117 0l507 744h142l-506 -744h-143zM804 -2l-153 3q39 27 78.5 66.5t65.5 76.5q-20 -8 -46 -8q-58 0 -96.5 38t-38.5 95q0 66 48 107.5t124 41.5q78 0 126 -43t48 -113q0 -65 -41.5 -135.5t-114.5 -128.5zM787 224q23 0 36.5 13t13.5 35q0 20 -13.5 33.5t-36.5 13.5
q-22 0 -36 -13.5t-14 -33.5q0 -21 14 -34.5t36 -13.5zM68 337l152 292h-175v115h317v-99l-154 -311z" />
    <glyph glyph-name="eight_fraction_nine" horiz-adv-x="986" 
d="M170 0l507 744h142l-506 -744h-143zM804 -2l-153 3q39 27 78.5 66.5t65.5 76.5q-20 -8 -46 -8q-58 0 -96.5 38t-38.5 95q0 66 48 107.5t124 41.5q78 0 126 -43t48 -113q0 -65 -41.5 -135.5t-114.5 -128.5zM787 224q23 0 36.5 13t13.5 35q0 20 -13.5 33.5t-36.5 13.5
q-22 0 -36 -13.5t-14 -33.5q0 -21 14 -34.5t36 -13.5zM199 326q-82 0 -129 34t-47 94q0 32 16.5 57.5t44.5 39.5q-49 26 -49 83q0 54 45.5 87t118.5 33q74 0 119 -33t45 -87q0 -56 -48 -83q28 -14 44 -40t16 -57q0 -60 -46.5 -94t-129.5 -34zM199 585q20 0 32 11t12 29
q0 19 -12 30t-32 11t-32 -11t-12 -30q0 -18 12 -29t32 -11zM199 418q23 0 36.5 12.5t13.5 31.5q0 20 -13.5 32t-36.5 12q-22 0 -36 -12t-14 -32q0 -19 14 -31.5t36 -12.5z" />
    <glyph glyph-name="hyphen.case" horiz-adv-x="419" 
d="M49 306v147h320v-147h-320z" />
    <glyph glyph-name="endash.case" horiz-adv-x="500" 
d="M0 314v133h500v-133h-500z" />
    <glyph glyph-name="emdash.case" horiz-adv-x="1000" 
d="M0 314v133h1000v-133h-1000z" />
    <glyph glyph-name="parenleft.case" horiz-adv-x="447" 
d="M260 -61q-57 57 -98.5 132.5t-63.5 163.5t-22 181t22 181t63.5 164t98.5 132h188q-100 -97 -153 -219t-53 -258t53 -258t153 -219h-188z" />
    <glyph glyph-name="parenright.case" horiz-adv-x="447" 
d="M-2 -61q101 97 154 219t53 258t-53 258t-154 219h189q58 -56 98.5 -132t62.5 -164t22 -181t-22 -181t-62.5 -163.5t-98.5 -132.5h-189z" />
    <glyph glyph-name="slash.case" horiz-adv-x="578" 
d="M5 -92l402 943h167l-403 -943h-166z" />
    <glyph glyph-name="backslash.case" horiz-adv-x="578" 
d="M407 -92l-402 943h166l403 -943h-167z" />
    <glyph glyph-name="bracketleft.case" horiz-adv-x="447" 
d="M100 -61v953h304v-146h-139v-660h139v-147h-304z" />
    <glyph glyph-name="bracketright.case" horiz-adv-x="447" 
d="M44 -61v147h139v660h-139v146h303v-953h-303z" />
    <glyph glyph-name="braceleft.case" horiz-adv-x="458" 
d="M343 -70q-219 0 -219 171q0 39 10 79.5t10 84.5q0 42 -17 58.5t-60 16.5h-24v145h24q43 0 60 16.5t17 58.5q0 44 -10 84.5t-10 79.5q0 171 219 171q17 0 40.5 -1t37.5 -2v-140q-8 1 -18.5 1h-28.5q-44 0 -64.5 -17.5t-20.5 -56.5q0 -31 10 -71t10 -82q0 -41 -21.5 -71
t-61.5 -43q83 -25 83 -113q0 -42 -10 -82t-10 -71q0 -39 20.5 -56.5t64.5 -17.5h28t19 1v-140q-14 -1 -37.5 -2t-40.5 -1z" />
    <glyph glyph-name="braceright.case" horiz-adv-x="458" 
d="M115 -70q-17 0 -40.5 1t-37.5 2v140q8 -1 18.5 -1h28.5q44 0 64.5 17.5t20.5 56.5q0 31 -10 71t-10 82q0 41 21.5 71t61.5 43q-83 25 -83 113q0 42 10 82t10 71q0 39 -20.5 56.5t-64.5 17.5h-28t-19 -1v140q14 1 37.5 2t40.5 1q219 0 219 -171q0 -39 -10 -79.5t-10 -84.5
q0 -42 17 -58.5t60 -16.5h24v-145h-24q-43 0 -60 -16.5t-17 -58.5q0 -44 10 -84.5t10 -79.5q0 -171 -219 -171z" />
    <glyph glyph-name="bullet.case" horiz-adv-x="366" 
d="M182 190q-37 0 -68 18.5t-49.5 49.5t-18.5 68q0 38 18 69t49 49t69 18t69 -18t49.5 -49t18.5 -69q0 -37 -18.5 -68t-49.5 -49.5t-69 -18.5z" />
    <glyph glyph-name="guilsinglleft.case" horiz-adv-x="394" 
d="M176 157l-152 223l152 223h192l-158 -223l158 -223h-192z" />
    <glyph glyph-name="guilsinglright.case" horiz-adv-x="394" 
d="M27 157l157 223l-157 223h192l151 -223l-151 -223h-192z" />
    <glyph glyph-name="guillemotleft.case" horiz-adv-x="672" 
d="M176 157l-152 223l152 223h192l-158 -223l158 -223h-192zM454 157l-152 223l152 223h192l-158 -223l158 -223h-192z" />
    <glyph glyph-name="guillemotright.case" horiz-adv-x="672" 
d="M27 157l157 223l-157 223h192l151 -223l-151 -223h-192zM305 157l157 223l-157 223h192l151 -223l-151 -223h-192z" />
    <glyph glyph-name="at.case" horiz-adv-x="1045" 
d="M512 -79q-142 0 -246.5 52t-162 147.5t-57.5 224.5q0 107 40 198.5t112 159.5t169 106t211 38q127 0 221.5 -48t147.5 -134t53 -200q0 -92 -33.5 -163t-93 -110.5t-137.5 -39.5q-54 0 -92 18.5t-53 53.5q-22 -33 -58.5 -51.5t-78.5 -18.5q-78 0 -126 56t-48 147
q0 71 28.5 128.5t77 91.5t108.5 34q40 0 72.5 -18t50.5 -50l12 53h141l-42 -246q-3 -22 -3 -32q0 -50 39 -50q28 0 51 26t37 70t14 96q0 125 -78.5 195t-218.5 70q-85 0 -156 -27.5t-123.5 -78.5t-81 -119.5t-28.5 -151.5q0 -144 90 -224.5t251 -80.5q62 0 125 12.5
t115 35.5l12 -120q-58 -24 -125.5 -37t-135.5 -13zM503 290q40 0 65 29t25 75q0 81 -70 81q-40 0 -65 -29t-25 -76q0 -80 70 -80z" />
    <glyph glyph-name="periodcentered.case" horiz-adv-x="306" 
d="M153 303q-45 0 -73.5 27t-28.5 69t28.5 68.5t73.5 26.5t73.5 -26.5t28.5 -68.5t-28.5 -69t-73.5 -27z" />
    <glyph glyph-name="M" horiz-adv-x="989" 
d="M79 0v760h214l204 -424l204 424h209v-760h-186v475l-151 -312h-156l-152 314v-477h-186z" />
    <glyph glyph-name="j" horiz-adv-x="303" 
d="M152 597q-43 0 -72.5 28t-29.5 68q0 42 29.5 69.5t72.5 27.5t72 -27.5t29 -69.5q0 -40 -29 -68t-72 -28zM61 -245v761h181v-761h-181z" />
    <glyph glyph-name="t" horiz-adv-x="431" 
d="M108 0v371h-87v145h87v133h181v-133h105v-145h-105v-371h-181z" />
    <glyph glyph-name="u" horiz-adv-x="612" 
d="M306 -16q-123 0 -186.5 62t-63.5 181v289h182v-283q0 -88 69 -88q35 0 51 21t16 67v283h182v-289q0 -119 -63.5 -181t-186.5 -62z" />
    <glyph glyph-name="a.alt" horiz-adv-x="580" 
d="M209 -16q-78 0 -124 44t-46 117q0 77 55 123.5t145 46.5q67 0 119 -21q-2 52 -29.5 76t-86.5 24q-86 0 -158 -47l-12 137q35 22 89.5 35t106.5 13q128 0 193.5 -62.5t65.5 -181.5v-288h-163l-2 59q-23 -36 -62.5 -55.5t-90.5 -19.5zM204 158q0 -26 17 -40.5t47 -14.5
q40 0 64 25.5t26 71.5q-17 8 -37 12.5t-40 4.5q-37 0 -57 -15.5t-20 -43.5z" />
    <glyph glyph-name="g.alt" horiz-adv-x="615" 
d="M304 165q-37 0 -70 6q-30 -14 -30 -35q0 -16 16.5 -22.5t55.5 -6.5h48q127 0 189 -42t62 -130q0 -91 -76 -140t-219 -49q-123 0 -190 38t-67 108q0 42 27.5 74.5t73.5 45.5q-72 26 -72 89q0 32 22.5 59.5t61.5 44.5q-39 23 -61.5 59t-22.5 85q0 55 29.5 96t83 64
t124.5 23q35 0 66 -6t58 -18l184 13v-115l-80 9q19 -37 19 -79q0 -50 -29 -89t-81.5 -60.5t-121.5 -21.5zM294 282q35 0 57 18t22 48t-22 48t-57 18t-56.5 -18t-21.5 -48t21.5 -48t56.5 -18zM297 -128q57 0 88.5 14.5t31.5 39.5t-26.5 36.5t-82.5 11.5h-23q-108 0 -108 -50
q0 -25 31.5 -38.5t88.5 -13.5z" />
    <glyph glyph-name="y.alt" horiz-adv-x="622" 
d="M133 -254q-31 0 -64.5 6.5t-53.5 17.5l22 151q34 -17 73 -17q37 0 60 18.5t42 63.5l15 37l-214 493h198l111 -320l94 320h192l-219 -536q-37 -91 -73 -142t-79.5 -71.5t-103.5 -20.5z" />
    <glyph glyph-name="periodcentered.loclCAT" horiz-adv-x="306" 
d="M153 283q-45 0 -73.5 27t-28.5 69t28.5 69t73.5 27t73.5 -27t28.5 -69t-28.5 -69t-73.5 -27z" />
    <glyph glyph-name="periodcentered.loclCAT.cap" horiz-adv-x="306" 
d="M153 312q-45 0 -73.5 27t-28.5 69t28.5 69t73.5 27t73.5 -27t28.5 -69t-28.5 -69t-73.5 -27z" />
    <glyph glyph-name="uni0237" horiz-adv-x="303" 
d="M61 -245v761h181v-761h-181z" />
    <glyph glyph-name="dotlessij" horiz-adv-x="606" 
d="M364 -245v761h181v-761h-181zM61 0v516h181v-516h-181z" />
    <glyph glyph-name="dotlessij.alt" horiz-adv-x="606" 
d="M325 -254q-39 0 -76.5 7t-58.5 19l18 147q20 -7 39 -11.5t38 -4.5q41 0 60 22.5t19 71.5v519h181v-534q0 -116 -56 -176t-164 -60zM61 0v516h181v-516h-181z" />
    <glyph glyph-name="ij" horiz-adv-x="603" 
d="M152 597q-43 0 -72.5 28t-29.5 68q0 42 29.5 69.5t72.5 27.5t72 -27.5t29 -69.5q0 -40 -29 -68t-72 -28zM61 0v516h181v-516h-181zM452 597q-43 0 -72.5 28t-29.5 68q0 42 29.5 69.5t72.5 27.5t72 -27.5t29 -69.5q0 -40 -29 -68t-72 -28zM361 -245v761h181v-761h-181z
" />
    <glyph glyph-name="ae.alt" horiz-adv-x="922" 
d="M233 -16q-91 0 -142.5 43t-51.5 118q0 77 55 123.5t145 46.5q67 0 119 -21q-2 52 -29.5 76t-86.5 24q-86 0 -158 -47l-12 137q35 22 89 35t107 13q66 0 113 -19.5t70 -56.5q29 36 75 56t104 20q76 0 132 -31.5t86.5 -89.5t30.5 -137q0 -14 -1 -28t-3 -29h-343
q13 -52 51.5 -75.5t105.5 -23.5q44 0 88.5 9.5t78.5 25.5l16 -130q-42 -19 -95.5 -29t-109.5 -10q-89 0 -152 27t-94 79q-22 -50 -73 -78t-115 -28zM623 409q-78 0 -93 -94h182q-1 10 -3 19q-7 35 -29 55t-57 20zM204 158q0 -26 17 -40.5t47 -14.5q40 0 64 25.5t26 71.5
q-17 8 -37 12.5t-40 4.5q-37 0 -57 -15.5t-20 -43.5z" />
    <glyph glyph-name="tbar" horiz-adv-x="431" 
d="M108 0v177h-74v103h74v91h-87v145h87v133h181v-133h105v-145h-105v-91h92v-103h-92v-177h-181z" />
    <glyph glyph-name="uni0327.cap" 
d="M-35 -267q-26 0 -55.5 5.5t-42.5 13.5l17 87q27 -12 63 -12q50 0 50 29q0 28 -53 28q-8 0 -17 -0.5t-14 -2.5l36 129h100l-18 -61q46 -4 75 -31t29 -67q0 -58 -43.5 -88t-126.5 -30z" />
    <glyph glyph-name="uni0326.cap" 
d="M-122 -249q19 39 30.5 91t11.5 96h163q0 -31 -10 -67t-25 -67.5t-34 -52.5h-136z" />
    <glyph glyph-name="uni0328.cap" 
d="M19 -264q-66 0 -102.5 30t-36.5 84q0 53 44 104t124 90l54 -44q-80 -59 -80 -105q0 -32 38 -32q20 0 38 10l11 -117q-13 -9 -38.5 -14.5t-51.5 -5.5z" />
    <glyph glyph-name="uni0328.round" 
d="M21 -264q-67 0 -104 29.5t-37 81.5q0 59 45 108.5t132 85.5l59 -18q-48 -32 -74 -65t-26 -62q0 -37 41 -37q25 0 43 10l10 -113q-13 -9 -38 -14.5t-51 -5.5z" />
    <glyph glyph-name="uni0328.round.cap" 
d="M21 -264q-66 0 -104 29.5t-38 80.5q0 62 49.5 119.5t130.5 91.5l59 -19q-44 -31 -71 -67.5t-27 -68.5q0 -39 46 -39q25 0 47 12l10 -118q-13 -8 -44 -14.5t-58 -6.5z" />
    <glyph glyph-name="uni0163" horiz-adv-x="431" 
d="M108 0v371h-87v145h87v133h181v-133h105v-145h-105v-371h-181zM167 -267q-29 0 -61.5 6t-45.5 13l17 83q27 -11 65 -11q53 0 53 32q0 30 -55 30q-9 0 -17.5 -0.5t-14.5 -1.5l36 126h94l-19 -64q47 -4 75 -30t28 -68q0 -53 -42 -84t-113 -31z" />
    <glyph glyph-name="uni021B" horiz-adv-x="431" 
d="M108 0v371h-87v145h87v133h181v-133h105v-145h-105v-371h-181zM85 -249q18 39 29.5 91t11.5 96h159q0 -31 -9.5 -67t-25 -67.5t-34.5 -52.5h-131z" />
    <glyph glyph-name="uogonek" horiz-adv-x="612" 
d="M306 -16q-123 0 -186.5 62t-63.5 181v289h182v-283q0 -88 69 -88q35 0 51 21t16 67v283h182v-289q0 -119 -63.5 -181t-186.5 -62zM368 -264q-67 0 -104 29.5t-37 81.5q0 59 45 108.5t132 85.5l59 -18q-48 -32 -74 -65t-26 -62q0 -37 41 -37q25 0 43 10l10 -113
q-13 -9 -38 -14.5t-51 -5.5z" />
    <glyph glyph-name="uni0123.alt" horiz-adv-x="615" 
d="M304 165q-37 0 -70 6q-30 -14 -30 -35q0 -16 16.5 -22.5t55.5 -6.5h48q127 0 189 -42t62 -130q0 -91 -76 -140t-219 -49q-123 0 -190 38t-67 108q0 42 27.5 74.5t73.5 45.5q-72 26 -72 89q0 32 22.5 59.5t61.5 44.5q-39 23 -61.5 59t-22.5 85q0 55 29.5 96t83 64
t124.5 23q35 0 66 -6t58 -18l184 13v-115l-80 9q19 -37 19 -79q0 -50 -29 -89t-81.5 -60.5t-121.5 -21.5zM294 282q35 0 57 18t22 48t-22 48t-57 18t-56.5 -18t-21.5 -48t21.5 -48t56.5 -18zM297 -128q57 0 88.5 14.5t31.5 39.5t-26.5 36.5t-82.5 11.5h-23q-108 0 -108 -50
q0 -25 31.5 -38.5t88.5 -13.5zM216 610q1 47 20 98.5t48 83.5h126q-18 -39 -28.5 -87.5t-11.5 -94.5h-154z" />
    <glyph glyph-name="aogonek.alt" horiz-adv-x="580" 
d="M209 -16q-78 0 -124 44t-46 117q0 77 55 123.5t145 46.5q67 0 119 -21q-2 52 -29.5 76t-86.5 24q-86 0 -158 -47l-12 137q35 22 89.5 35t106.5 13q128 0 193.5 -62.5t65.5 -181.5v-288h-163l-2 59q-23 -36 -62.5 -55.5t-90.5 -19.5zM204 158q0 -26 17 -40.5t47 -14.5
q40 0 64 25.5t26 71.5q-17 8 -37 12.5t-40 4.5q-37 0 -57 -15.5t-20 -43.5zM445 -264q-66 0 -102.5 30t-36.5 84q0 53 44 104t123 90l54 -44q-45 -32 -64.5 -57t-19.5 -49q0 -35 41 -35q11 0 21.5 2.5t19.5 6.5l9 -112q-13 -9 -38 -14.5t-51 -5.5z" />
    <glyph glyph-name="acutecomb.cap" 
d="M-122 835l117 154h211l-164 -154h-164z" />
    <glyph glyph-name="uni030B.cap" 
d="M25 835l87 152h195l-118 -152h-164zM-217 835l88 152h194l-118 -152h-164z" />
    <glyph glyph-name="IJacute" horiz-adv-x="945" 
d="M590 -16q-55 0 -108 11.5t-85 30.5l18 156q32 -17 66.5 -25.5t68.5 -8.5q62 0 89.5 31t27.5 103v478h203v-490q0 -286 -280 -286zM79 0v760h203v-760h-203zM59 835l117 154h211l-164 -154h-164zM646 835l117 154h211l-164 -154h-164z" />
    <glyph glyph-name="ijacute" horiz-adv-x="606" 
d="M364 -245v761h181v-761h-181zM61 0v516h181v-516h-181zM43 610l106 170h193l-148 -170h-151zM346 610l106 170h193l-148 -170h-151z" />
    <glyph glyph-name="uacute" horiz-adv-x="612" 
d="M306 -16q-123 0 -186.5 62t-63.5 181v289h182v-283q0 -88 69 -88q35 0 51 21t16 67v283h182v-289q0 -119 -63.5 -181t-186.5 -62zM198 610l106 170h193l-148 -170h-151z" />
    <glyph glyph-name="uhungarumlaut" horiz-adv-x="612" 
d="M306 -16q-123 0 -186.5 62t-63.5 181v289h182v-283q0 -88 69 -88q35 0 51 21t16 67v283h182v-289q0 -119 -63.5 -181t-186.5 -62zM325 610l83 170h170l-114 -170h-139zM118 610l83 170h169l-113 -170h-139z" />
    <glyph glyph-name="aacute.alt" horiz-adv-x="580" 
d="M209 -16q-78 0 -124 44t-46 117q0 77 55 123.5t145 46.5q67 0 119 -21q-2 52 -29.5 76t-86.5 24q-86 0 -158 -47l-12 137q35 22 89.5 35t106.5 13q128 0 193.5 -62.5t65.5 -181.5v-288h-163l-2 59q-23 -36 -62.5 -55.5t-90.5 -19.5zM204 158q0 -26 17 -40.5t47 -14.5
q40 0 64 25.5t26 71.5q-17 8 -37 12.5t-40 4.5q-37 0 -57 -15.5t-20 -43.5zM173 610l106 170h193l-148 -170h-151z" />
    <glyph glyph-name="ijacute.alt" horiz-adv-x="606" 
d="M325 -254q-39 0 -76.5 7t-58.5 19l18 147q20 -7 39 -11.5t38 -4.5q41 0 60 22.5t19 71.5v519h181v-534q0 -116 -56 -176t-164 -60zM61 0v516h181v-516h-181zM43 610l106 170h193l-148 -170h-151zM346 610l106 170h193l-148 -170h-151z" />
    <glyph glyph-name="yacute.alt" horiz-adv-x="622" 
d="M133 -254q-31 0 -64.5 6.5t-53.5 17.5l22 151q34 -17 73 -17q37 0 60 18.5t42 63.5l15 37l-214 493h198l111 -320l94 320h192l-219 -536q-37 -91 -73 -142t-79.5 -71.5t-103.5 -20.5zM204 610l106 170h193l-148 -170h-151z" />
    <glyph glyph-name="gravecomb.cap" 
d="M-47 835l-163 154h210l117 -154h-164z" />
    <glyph glyph-name="ugrave" horiz-adv-x="612" 
d="M306 -16q-123 0 -186.5 62t-63.5 181v289h182v-283q0 -88 69 -88q35 0 51 21t16 67v283h182v-289q0 -119 -63.5 -181t-186.5 -62zM264 610l-149 170h194l105 -170h-150z" />
    <glyph glyph-name="agrave.alt" horiz-adv-x="580" 
d="M209 -16q-78 0 -124 44t-46 117q0 77 55 123.5t145 46.5q67 0 119 -21q-2 52 -29.5 76t-86.5 24q-86 0 -158 -47l-12 137q35 22 89.5 35t106.5 13q128 0 193.5 -62.5t65.5 -181.5v-288h-163l-2 59q-23 -36 -62.5 -55.5t-90.5 -19.5zM204 158q0 -26 17 -40.5t47 -14.5
q40 0 64 25.5t26 71.5q-17 8 -37 12.5t-40 4.5q-37 0 -57 -15.5t-20 -43.5zM239 610l-149 170h194l105 -170h-150z" />
    <glyph glyph-name="ygrave.alt" horiz-adv-x="622" 
d="M133 -254q-31 0 -64.5 6.5t-53.5 17.5l22 151q34 -17 73 -17q37 0 60 18.5t42 63.5l15 37l-214 493h198l111 -320l94 320h192l-219 -536q-37 -91 -73 -142t-79.5 -71.5t-103.5 -20.5zM270 610l-149 170h194l105 -170h-150z" />
    <glyph glyph-name="uni0302.cap" 
d="M-233 835l143 157h180l143 -157h-173l-60 69l-60 -69h-173z" />
    <glyph glyph-name="tildecomb.cap" 
d="M81 831q-36 0 -59.5 13t-41.5 26t-36 13q-29 0 -29 -50h-116q0 172 120 172q36 0 60 -13t42 -25.5t36 -12.5q28 0 28 50h116q0 -173 -120 -173z" />
    <glyph glyph-name="ucircumflex" horiz-adv-x="612" 
d="M306 -16q-123 0 -186.5 62t-63.5 181v289h182v-283q0 -88 69 -88q35 0 51 21t16 67v283h182v-289q0 -119 -63.5 -181t-186.5 -62zM90 610l137 170h158l137 -170h-154l-62 77l-62 -77h-154z" />
    <glyph glyph-name="utilde" horiz-adv-x="612" 
d="M306 -16q-123 0 -186.5 62t-63.5 181v289h182v-283q0 -88 69 -88q35 0 51 21t16 67v283h182v-289q0 -119 -63.5 -181t-186.5 -62zM392 607q-38 0 -62.5 13.5t-42.5 27t-38 13.5q-29 0 -29 -52h-113q0 168 114 168q38 0 62.5 -13.5t42.5 -27t37 -13.5q29 0 29 52h113
q0 -168 -113 -168z" />
    <glyph glyph-name="acircumflex.alt" horiz-adv-x="580" 
d="M209 -16q-78 0 -124 44t-46 117q0 77 55 123.5t145 46.5q67 0 119 -21q-2 52 -29.5 76t-86.5 24q-86 0 -158 -47l-12 137q35 22 89.5 35t106.5 13q128 0 193.5 -62.5t65.5 -181.5v-288h-163l-2 59q-23 -36 -62.5 -55.5t-90.5 -19.5zM204 158q0 -26 17 -40.5t47 -14.5
q40 0 64 25.5t26 71.5q-17 8 -37 12.5t-40 4.5q-37 0 -57 -15.5t-20 -43.5zM65 610l137 170h158l137 -170h-154l-62 77l-62 -77h-154z" />
    <glyph glyph-name="ycircumflex.alt" horiz-adv-x="622" 
d="M133 -254q-31 0 -64.5 6.5t-53.5 17.5l22 151q34 -17 73 -17q37 0 60 18.5t42 63.5l15 37l-214 493h198l111 -320l94 320h192l-219 -536q-37 -91 -73 -142t-79.5 -71.5t-103.5 -20.5zM96 610l137 170h158l137 -170h-154l-62 77l-62 -77h-154z" />
    <glyph glyph-name="atilde.alt" horiz-adv-x="580" 
d="M209 -16q-78 0 -124 44t-46 117q0 77 55 123.5t145 46.5q67 0 119 -21q-2 52 -29.5 76t-86.5 24q-86 0 -158 -47l-12 137q35 22 89.5 35t106.5 13q128 0 193.5 -62.5t65.5 -181.5v-288h-163l-2 59q-23 -36 -62.5 -55.5t-90.5 -19.5zM204 158q0 -26 17 -40.5t47 -14.5
q40 0 64 25.5t26 71.5q-17 8 -37 12.5t-40 4.5q-37 0 -57 -15.5t-20 -43.5zM367 607q-38 0 -62.5 13.5t-42.5 27t-38 13.5q-29 0 -29 -52h-113q0 168 114 168q38 0 62.5 -13.5t42.5 -27t37 -13.5q29 0 29 52h113q0 -168 -113 -168z" />
    <glyph glyph-name="uni030C.cap" 
d="M-90 835l-143 157h173l60 -69l60 69h173l-143 -157h-180z" />
    <glyph glyph-name="uni0315.short" 
d="M-74 587l12 223h158l-58 -223h-112z" />
    <glyph glyph-name="uni0304.cap" 
d="M-171 840v123h343v-123h-343z" />
    <glyph glyph-name="tcaron" horiz-adv-x="431" 
d="M108 0v371h-87v145h87v133h181v-133h105v-145h-105v-371h-181zM348 587l12 223h158l-58 -223h-112z" />
    <glyph glyph-name="umacron" horiz-adv-x="612" 
d="M306 -16q-123 0 -186.5 62t-63.5 181v289h182v-283q0 -88 69 -88q35 0 51 21t16 67v283h182v-289q0 -119 -63.5 -181t-186.5 -62zM138 620v120h336v-120h-336z" />
    <glyph glyph-name="amacron.alt" horiz-adv-x="580" 
d="M209 -16q-78 0 -124 44t-46 117q0 77 55 123.5t145 46.5q67 0 119 -21q-2 52 -29.5 76t-86.5 24q-86 0 -158 -47l-12 137q35 22 89.5 35t106.5 13q128 0 193.5 -62.5t65.5 -181.5v-288h-163l-2 59q-23 -36 -62.5 -55.5t-90.5 -19.5zM204 158q0 -26 17 -40.5t47 -14.5
q40 0 64 25.5t26 71.5q-17 8 -37 12.5t-40 4.5q-37 0 -57 -15.5t-20 -43.5zM113 620v120h336v-120h-336z" />
    <glyph glyph-name="uni0308.cap" 
d="M120 832q-38 0 -63 23t-25 60t25 60t63 23q40 0 65 -23t25 -60t-25 -60t-65 -23zM-121 832q-39 0 -64 23t-25 60t25 60t64 23t64 -23t25 -60t-25 -60t-64 -23z" />
    <glyph glyph-name="uni0306.cap" 
d="M0 816q-90 0 -142 43.5t-52 117.5q0 9 1 13h125v-8q2 -28 20 -44t48 -16t48.5 15.5t19.5 43.5v9h125q1 -4 1 -13q0 -74 -52 -117.5t-142 -43.5z" />
    <glyph glyph-name="udieresis" horiz-adv-x="612" 
d="M306 -16q-123 0 -186.5 62t-63.5 181v289h182v-283q0 -88 69 -88q35 0 51 21t16 67v283h182v-289q0 -119 -63.5 -181t-186.5 -62zM425 598q-38 0 -61.5 22t-23.5 58q0 35 24 57.5t61 22.5q38 0 62 -22.5t24 -57.5q0 -36 -24 -58t-62 -22zM187 598q-38 0 -62 22t-24 58
q0 35 24.5 57.5t61.5 22.5q38 0 61.5 -22.5t23.5 -57.5q0 -36 -23.5 -58t-61.5 -22z" />
    <glyph glyph-name="adieresis.alt" horiz-adv-x="580" 
d="M209 -16q-78 0 -124 44t-46 117q0 77 55 123.5t145 46.5q67 0 119 -21q-2 52 -29.5 76t-86.5 24q-86 0 -158 -47l-12 137q35 22 89.5 35t106.5 13q128 0 193.5 -62.5t65.5 -181.5v-288h-163l-2 59q-23 -36 -62.5 -55.5t-90.5 -19.5zM204 158q0 -26 17 -40.5t47 -14.5
q40 0 64 25.5t26 71.5q-17 8 -37 12.5t-40 4.5q-37 0 -57 -15.5t-20 -43.5zM400 598q-38 0 -61.5 22t-23.5 58q0 35 24 57.5t61 22.5q38 0 62 -22.5t24 -57.5q0 -36 -24 -58t-62 -22zM162 598q-38 0 -62 22t-24 58q0 35 24.5 57.5t61.5 22.5q38 0 61.5 -22.5t23.5 -57.5
q0 -36 -23.5 -58t-61.5 -22z" />
    <glyph glyph-name="ydieresis.alt" horiz-adv-x="622" 
d="M133 -254q-31 0 -64.5 6.5t-53.5 17.5l22 151q34 -17 73 -17q37 0 60 18.5t42 63.5l15 37l-214 493h198l111 -320l94 320h192l-219 -536q-37 -91 -73 -142t-79.5 -71.5t-103.5 -20.5zM431 598q-38 0 -61.5 22t-23.5 58q0 35 24 57.5t61 22.5q38 0 62 -22.5t24 -57.5
q0 -36 -24 -58t-62 -22zM193 598q-38 0 -62 22t-24 58q0 35 24.5 57.5t61.5 22.5q38 0 61.5 -22.5t23.5 -57.5q0 -36 -23.5 -58t-61.5 -22z" />
    <glyph glyph-name="abreve.alt" horiz-adv-x="580" 
d="M209 -16q-78 0 -124 44t-46 117q0 77 55 123.5t145 46.5q67 0 119 -21q-2 52 -29.5 76t-86.5 24q-86 0 -158 -47l-12 137q35 22 89.5 35t106.5 13q128 0 193.5 -62.5t65.5 -181.5v-288h-163l-2 59q-23 -36 -62.5 -55.5t-90.5 -19.5zM204 158q0 -26 17 -40.5t47 -14.5
q40 0 64 25.5t26 71.5q-17 8 -37 12.5t-40 4.5q-37 0 -57 -15.5t-20 -43.5zM281 587q-88 0 -139 44t-51 120q0 10 1 14h118q0 -9 1 -12q5 -63 70 -63t70 62q1 4 1 13h118q1 -4 1 -14q0 -76 -50.5 -120t-139.5 -44z" />
    <glyph glyph-name="gbreve.alt" horiz-adv-x="615" 
d="M304 165q-37 0 -70 6q-30 -14 -30 -35q0 -16 16.5 -22.5t55.5 -6.5h48q127 0 189 -42t62 -130q0 -91 -76 -140t-219 -49q-123 0 -190 38t-67 108q0 42 27.5 74.5t73.5 45.5q-72 26 -72 89q0 32 22.5 59.5t61.5 44.5q-39 23 -61.5 59t-22.5 85q0 55 29.5 96t83 64
t124.5 23q35 0 66 -6t58 -18l184 13v-115l-80 9q19 -37 19 -79q0 -50 -29 -89t-81.5 -60.5t-121.5 -21.5zM294 282q35 0 57 18t22 48t-22 48t-57 18t-56.5 -18t-21.5 -48t21.5 -48t56.5 -18zM297 -128q57 0 88.5 14.5t31.5 39.5t-26.5 36.5t-82.5 11.5h-23q-108 0 -108 -50
q0 -25 31.5 -38.5t88.5 -13.5zM310 587q-88 0 -139 44t-51 120q0 10 1 14h118q0 -9 1 -12q5 -63 70 -63t70 62q1 4 1 13h118q1 -4 1 -14q0 -76 -50.5 -120t-139.5 -44z" />
    <glyph glyph-name="uni0307.cap" 
d="M0 829q-45 0 -72.5 26t-27.5 68q0 41 27.5 67.5t72.5 26.5t73 -26t28 -68q0 -41 -28 -67.5t-73 -26.5z" />
    <glyph glyph-name="dotbelowcomb.cap" 
d="M0 -238q-45 0 -72.5 26t-27.5 67q0 42 27.5 68.5t72.5 26.5t73 -26.5t28 -68.5q0 -41 -28 -67t-73 -26z" />
    <glyph glyph-name="gdotaccent.alt" horiz-adv-x="615" 
d="M304 165q-37 0 -70 6q-30 -14 -30 -35q0 -16 16.5 -22.5t55.5 -6.5h48q127 0 189 -42t62 -130q0 -91 -76 -140t-219 -49q-123 0 -190 38t-67 108q0 42 27.5 74.5t73.5 45.5q-72 26 -72 89q0 32 22.5 59.5t61.5 44.5q-39 23 -61.5 59t-22.5 85q0 55 29.5 96t83 64
t124.5 23q35 0 66 -6t58 -18l184 13v-115l-80 9q19 -37 19 -79q0 -50 -29 -89t-81.5 -60.5t-121.5 -21.5zM294 282q35 0 57 18t22 48t-22 48t-57 18t-56.5 -18t-21.5 -48t21.5 -48t56.5 -18zM297 -128q57 0 88.5 14.5t31.5 39.5t-26.5 36.5t-82.5 11.5h-23q-108 0 -108 -50
q0 -25 31.5 -38.5t88.5 -13.5zM310 596q-43 0 -68.5 24.5t-25.5 64.5t25.5 64.5t68.5 24.5t69 -24t26 -65q0 -40 -26 -64.5t-69 -24.5z" />
    <glyph glyph-name="uni030A.cap" 
d="M0 816q-43 0 -76.5 18.5t-53 50.5t-19.5 72q0 41 19.5 72.5t53 49.5t76.5 18t76.5 -18t53 -49.5t19.5 -72.5q0 -40 -19.5 -72t-53 -50.5t-76.5 -18.5zM0 902q25 0 39.5 15t14.5 40q0 24 -14.5 39t-39.5 15t-39.5 -15t-14.5 -39q0 -25 14.5 -40t39.5 -15z" />
    <glyph glyph-name="uring" horiz-adv-x="612" 
d="M306 -16q-123 0 -186.5 62t-63.5 181v289h182v-283q0 -88 69 -88q35 0 51 21t16 67v283h182v-289q0 -119 -63.5 -181t-186.5 -62zM306 571q-43 0 -76.5 18.5t-53 50.5t-19.5 72q0 41 19.5 72.5t53 50t76.5 18.5t76.5 -18.5t53 -50t19.5 -72.5q0 -40 -19.5 -72t-53 -50.5
t-76.5 -18.5zM306 658q25 0 39.5 15t14.5 39q0 25 -14.5 39.5t-39.5 14.5t-39.5 -14.5t-14.5 -39.5q0 -24 14.5 -39t39.5 -15z" />
    <glyph glyph-name="aring.alt" horiz-adv-x="580" 
d="M209 -16q-78 0 -124 44t-46 117q0 77 55 123.5t145 46.5q67 0 119 -21q-2 52 -29.5 76t-86.5 24q-86 0 -158 -47l-12 137q35 22 89.5 35t106.5 13q128 0 193.5 -62.5t65.5 -181.5v-288h-163l-2 59q-23 -36 -62.5 -55.5t-90.5 -19.5zM204 158q0 -26 17 -40.5t47 -14.5
q40 0 64 25.5t26 71.5q-17 8 -37 12.5t-40 4.5q-37 0 -57 -15.5t-20 -43.5zM281 571q-43 0 -76.5 18.5t-53 50.5t-19.5 72q0 41 19.5 72.5t53 50t76.5 18.5t76.5 -18.5t53 -50t19.5 -72.5q0 -40 -19.5 -72t-53 -50.5t-76.5 -18.5zM281 658q25 0 39.5 15t14.5 39
q0 25 -14.5 39.5t-39.5 14.5t-39.5 -14.5t-14.5 -39.5q0 -24 14.5 -39t39.5 -15z" />
    <glyph glyph-name="uni0414" horiz-adv-x="907" 
d="M18 -179v342h89q34 40 47.5 106t13.5 178v313h605v-597h108v-342h-195v179h-474v-179h-194zM356 431q0 -98 -10 -162t-32 -106h261v434h-219v-166z" />
    <glyph glyph-name="uni041B" horiz-adv-x="863" 
d="M17 1l9 156q13 -1 20 -1.5t15 -0.5q60 0 83.5 36.5t23.5 130.5v438h615v-760h-199v597h-228v-300q0 -109 -25.5 -176t-81 -97.5t-145.5 -30.5q-53 0 -87 8z" />
    <glyph glyph-name="uni041C" horiz-adv-x="989" 
d="M79 0v760h214l204 -424l204 424h209v-760h-186v475l-151 -312h-156l-152 314v-477h-186z" />
    <glyph glyph-name="uni0434" horiz-adv-x="717" 
d="M13 -155v300h70q25 31 35.5 81t10.5 133v157h475v-371h93v-300h-173v155h-339v-155h-172zM295 320q0 -117 -32 -175h161v227h-129v-52z" />
    <glyph glyph-name="uni043B" horiz-adv-x="662" 
d="M11 2l8 144q17 -3 30 -3q39 0 56 26.5t17 87.5v259h480v-516h-182v371h-131v-137q0 -124 -49 -182t-156 -58q-36 0 -73 8z" />
    <glyph glyph-name="uni043C" horiz-adv-x="800" 
d="M61 0v516h215l126 -250l123 250h214v-516h-166v318l-120 -241h-106l-120 238v-315h-166z" />
    <glyph glyph-name="uni0423.alt" horiz-adv-x="798" 
d="M227 -15q-28 0 -63 6.5t-60 16.5l24 161q18 -7 40 -12t46 -5q31 0 55.5 12.5t49.5 53.5l-307 542h221l182 -357l155 357h216l-288 -579q-30 -62 -64.5 -106t-83 -67t-123.5 -23z" />
    </font>
</defs>
</svg>
